<?xml version="1.0" standalone="no"?>
<!DOCTYPE svg PUBLIC "-//W3C//DTD SVG 1.1//EN" "http://www.w3.org/Graphics/SVG/1.1/DTD/svg11.dtd" >
<svg xmlns="http://www.w3.org/2000/svg" xmlns:xlink="http://www.w3.org/1999/xlink" version="1.1">
<metadata>
Created by FontForge 20170731 at Sun Dec  3 18:37:34 2023
 By Aleksey,,,
Copyleft 2002, 2003, 2005, 2008, 2009, 2010 Free Software Foundation.
</metadata>
<defs>
<font id="FreeSansBoldOblique" horiz-adv-x="0" >
  <font-face 
    font-family="FreeSans"
    font-weight="700"
    font-style="oblique"
    font-stretch="normal"
    units-per-em="2048"
    panose-1="2 11 7 4 2 2 2 9 2 4"
    ascent="1638"
    descent="-410"
    x-height="1106"
    cap-height="1493"
    bbox="-1858 -641 3258 2204"
    underline-thickness="141"
    underline-position="-367"
    slope="-12"
    unicode-range="U+0020-FFFD"
  />
<missing-glyph horiz-adv-x="1433" 
d="M180 0l318 1493h1073l-318 -1493h-1073zM491 209h541l228 1075h-541z" />
    <glyph glyph-name="IJ" unicode="IJ" horiz-adv-x="1218" 
d="M754 1493l-158 -739h-307l157 739h308zM1085 1493h308l-236 -1104q-51 -240 -205 -342q-66 -43 -165.5 -68.5t-200.5 -25.5q-180 0 -282.5 85t-102.5 234q0 71 14 134l31 147h307l-33 -158q-8 -36 -8 -69q0 -49 37.5 -80t97.5 -31q165 0 203 174z" />
    <glyph glyph-name="ij" unicode="ij" horiz-adv-x="999" 
d="M1096 1106l-277 -1299q-28 -133 -119 -193t-266 -60q-56 0 -92 10l49 227q11 -8 51 -8q46 0 70.5 20.5t34.5 69.5l262 1233h287zM1178 1493l-56 -256h-286l55 256h287zM659 1106l-235 -1106h-287l236 1106h286zM741 1493l-55 -256h-287l56 256h286z" />
    <glyph glyph-name="m_n_armenian" unicode="&#x574;&#x576;" horiz-adv-x="2545" 
d="M1399 1303q-40 0 -62 -1.5t-47 -8t-36 -22t-11 -40.5q0 -26 37 -65.5t47 -59.5h608l-151 -711q-8 -33 -8 -67q0 -131 149 -131q104 0 180.5 59.5t98.5 157.5l147 692h287l-236 -1106h-286l28 131q-82 -93 -170 -135.5t-200 -42.5q-147 0 -224 69.5t-77 200.5q0 51 12 113
l117 547h-291l-189 -883h-286l28 131q-82 -93 -170 -135.5t-200 -42.5q-147 0 -224 69.5t-77 200.5q0 51 12 113l76 362h286l-63 -303q-8 -33 -8 -67q0 -131 149 -131q104 0 180.5 59.5t98.5 157.5l100 469h-426q-229 0 -229 186q0 28 5 60t10.5 53t13.5 49l10 35h215
q-25 -78 -25 -107q0 -53 72 -53h374q-8 13 -30.5 36.5t-32.5 35.5l-74 92q-41 47 -41 98q0 57 49.5 91t133.5 34h391z" />
    <glyph glyph-name="m_e_armenian" unicode="&#x574;&#x565;" horiz-adv-x="2510" 
d="M866 1368q0 57 49.5 91t133.5 34h974l-81 -387h702l-41 -191h-702l-111 -520q-8 -33 -8 -67q0 -131 149 -131q104 0 180.5 59.5t98.5 157.5l24 118h287l-113 -532h-286l28 131q-82 -93 -170 -135.5t-200 -42.5q-147 0 -224 69.5t-77 200.5q0 51 12 113l205 967
q-441 -7 -451 -60q0 -2 -1 -6t-1 -6q0 -20 15 -41t33 -37t33 -45.5t15 -63.5q0 -26 -4 -40l-213 -1004h-286l28 131q-82 -93 -170 -135.5t-200 -42.5q-147 0 -224 69.5t-77 200.5q0 51 12 113l164 770h286l-151 -711q-8 -33 -8 -67q0 -131 149 -131q104 0 180.5 59.5
t98.5 157.5l133 630q2 6 2 19q0 20 -9.5 36.5t-34.5 42t-34 36.5l-74 92q-41 47 -41 98z" />
    <glyph glyph-name="m_i_armenian" unicode="&#x574;&#x56b;" horiz-adv-x="2525" 
d="M866 1368q0 57 49.5 91t133.5 34h976l-116 -547q156 178 362 178q55 0 103 -12.5t92.5 -41t70 -83t25.5 -129.5q0 -52 -12 -117l-158 -741h-287l144 676q8 36 8 74q0 131 -141 131q-97 0 -172 -61t-95 -156l-229 -1074h-287l365 1713q-147 0 -296 -13t-157 -47
q0 -2 -1 -6t-1 -6q0 -20 15 -41t33 -37t33 -45.5t15 -63.5q0 -26 -4 -40l-213 -1004h-286l28 131q-82 -93 -170 -135.5t-200 -42.5q-147 0 -224 69.5t-77 200.5q0 51 12 113l164 770h286l-151 -711q-8 -33 -8 -67q0 -131 149 -131q104 0 180.5 59.5t98.5 157.5l133 630
q2 6 2 19q0 20 -9.5 36.5t-34.5 42t-34 36.5l-74 92q-41 47 -41 98z" />
    <glyph glyph-name="v_n_armenian" unicode="&#x57e;&#x576;" horiz-adv-x="2535" 
d="M377 1110q0 149 106 266t244 117h713l-82 -387h577l-151 -711q-8 -33 -8 -67q0 -131 149 -131q104 0 180.5 59.5t98.5 157.5l147 692h287l-236 -1106h-286l28 131q-82 -93 -170 -135.5t-200 -42.5q-147 0 -224 69.5t-77 200.5q0 51 12 113l119 557h-291l-238 -1112h160
l-41 -191h-446l116 541q-82 -93 -170 -135.5t-200 -42.5q-147 0 -224 69.5t-77 200.5q0 51 12 113l90 426h287l-78 -367q-8 -33 -8 -67q0 -131 149 -131q104 0 180.5 59.5t98.5 157.5l102 479h-426q-103 0 -163 58.5t-60 158.5zM707 1280q-40 0 -66.5 -24.5t-34.5 -49.5
t-8 -47q0 -53 72 -53h401l37 174h-401z" />
    <glyph glyph-name="m_x_armenian" unicode="&#x574;&#x56d;" horiz-adv-x="2965" 
d="M866 1368q0 57 49.5 91t133.5 34h952l-82 -387h446l-151 -711q-8 -33 -8 -67q0 -131 149 -131q104 0 180.5 59.5t98.5 157.5l147 692h287l-236 -1106h-286l28 131q-82 -93 -170 -135.5t-200 -42.5q-147 0 -224 69.5t-77 200.5q0 51 12 113l123 579h-160l-283 -1325h-286
l364 1713q-53 0 -110 -2t-134.5 -7.5t-128.5 -18.5t-55 -32q0 -2 -1 -6t-1 -6q0 -20 15 -41t33 -37t33 -45.5t15 -63.5q0 -26 -4 -40l-213 -1004h-286l28 131q-82 -93 -170 -135.5t-200 -42.5q-147 0 -224 69.5t-77 200.5q0 51 12 113l164 770h286l-151 -711q-8 -33 -8 -67
q0 -131 149 -131q104 0 180.5 59.5t98.5 157.5l133 630q2 6 2 19q0 20 -9.5 36.5t-34.5 42t-34 36.5l-74 92q-41 47 -41 98z" />
    <glyph glyph-name="yodyodpatahhebrew" unicode="&#x5f2;&#x5b7;" horiz-adv-x="1110" 
d="M203 451h409l-34 -168h-410zM862 682l-309 -117l141 664h285zM334 682l-309 -117l141 664h285z" />
    <glyph glyph-name="yi_yi_lig_ukrainian" unicode="&#x457;&#x457;" horiz-adv-x="1091" 
d="M639 1106l-236 -1106h-286l235 1106h287zM1223 1106l-236 -1106h-287l236 1106h287zM543 1518l-54 -246h-225l53 246h226zM1409 1518l-53 -246h-226l54 246h225zM827 1518l-53 -246h-225l53 246h225zM1133 1518l-54 -246h-225l53 246h226z" />
    <glyph glyph-name=".notdef" horiz-adv-x="1433" 
d="M180 0l318 1493h1073l-318 -1493h-1073zM491 209h541l228 1075h-541z" />
    <glyph glyph-name=".null" 
 />
    <glyph glyph-name="nonmarkingreturn" horiz-adv-x="1228" 
 />
    <glyph glyph-name="space" unicode=" " horiz-adv-x="569" 
 />
    <glyph glyph-name="exclam" unicode="!" horiz-adv-x="681" 
d="M854 1487l-92 -430l-219 -633h-137l49 633l92 430h307zM600 299l-63 -299h-308l64 299h307z" />
    <glyph glyph-name="quotedbl" unicode="&#x22;" horiz-adv-x="970" 
d="M1186 1493l-58 -266l-143 -264h-113l-26 264l57 266h283zM702 1493l-57 -266l-143 -264h-113l-27 264l58 266h282z" />
    <glyph glyph-name="numbersign" unicode="#" horiz-adv-x="1138" 
d="M283 -66h-215l170 418h-158l43 205h199l127 311h-203l45 205h241l146 354h217l-147 -354h210l146 354h217l-147 -354h178l-43 -205h-217l-127 -311h202l-43 -205h-243l-172 -418h-215l170 418h-209zM537 557h211l126 311h-208z" />
    <glyph glyph-name="dollar" unicode="$" horiz-adv-x="1138" 
d="M944 1452q342 -29 342 -332q0 -44 -10 -100h-262q6 59 6 82q0 58 -31.5 96t-87.5 47l-88 -411q59 -18 105 -36.5t96.5 -49t83.5 -65.5t54.5 -86.5t21.5 -111.5q0 -33 -5 -69t-20.5 -85t-39.5 -94t-66.5 -92.5t-98 -84t-137.5 -64.5t-180 -39l-45 -215h-140l47 215
q-179 19 -273.5 108t-94.5 238q0 53 16 121h266q-2 -39 -2 -68q0 -153 134 -180l94 436q-338 85 -338 361q0 42 10 90.5t44 115t87 120t150.5 97.5t224.5 56l22 111h140zM762 1245q-66 -13 -110.5 -42.5t-63 -66t-25 -62t-6.5 -48.5q0 -102 127 -152zM760 578l-86 -402
q98 23 152.5 83.5t54.5 146.5q0 122 -121 172z" />
    <glyph glyph-name="percent" unicode="%" horiz-adv-x="1820" 
d="M1548 1452h158l-1128 -1493h-156zM721 1436q136 0 224.5 -83.5t88.5 -211.5q0 -87 -38.5 -170t-101 -144.5t-147.5 -99t-174 -37.5q-132 0 -220.5 85t-88.5 212q0 113 64.5 217.5t170.5 168t222 63.5zM678 1235q-82 0 -145.5 -63.5t-63.5 -145.5q0 -57 43 -96t106 -39
q83 0 147 62.5t64 144.5q0 59 -43.5 98t-107.5 39zM1536 705q136 0 224.5 -83.5t88.5 -211.5q0 -116 -64 -220.5t-170.5 -167.5t-225.5 -63q-132 0 -221 85t-89 212q0 113 64.5 217.5t170.5 168t222 63.5zM1493 504q-82 0 -145.5 -63.5t-63.5 -145.5q0 -57 43.5 -96
t106.5 -39q83 0 147 62.5t64 144.5q0 58 -43.5 97.5t-108.5 39.5z" />
    <glyph glyph-name="ampersand" unicode="&#x26;" horiz-adv-x="1478" 
d="M1278 1239q0 -71 -25 -136.5t-58.5 -108.5t-83 -84t-80 -60t-68.5 -41q-8 -4 -11 -6l168 -281q52 47 79 100t44 142h232q-17 -113 -84 -233.5t-158 -202.5l192 -328h-327l-76 123q-141 -101 -228.5 -135.5t-205.5 -34.5q-191 0 -298.5 97t-107.5 269q0 158 99 276.5
t331 225.5q-108 152 -108 250q0 107 63.5 202t170 151.5t227.5 56.5q140 0 226.5 -66.5t86.5 -175.5zM711 653l-107 -59q-75 -43 -108 -92t-33 -119q0 -80 53.5 -136.5t128.5 -56.5q52 0 109 26t159 95zM858 963q164 85 164 213q0 39 -27.5 61.5t-76.5 22.5
q-59 0 -96.5 -36.5t-37.5 -93.5q0 -26 12 -52.5t62 -114.5z" />
    <glyph glyph-name="quotesingle" unicode="'" horiz-adv-x="487" 
d="M702 1493l-57 -266l-143 -264h-113l-27 264l58 266h282z" />
    <glyph glyph-name="parenleft" unicode="(" horiz-adv-x="681" 
d="M938 1493q-128 -176 -214.5 -314.5t-161 -296.5t-110.5 -319.5t-36 -333.5q0 -141 26 -279.5t93 -359.5h-205q-158 365 -158 660q0 310 134.5 608t426.5 635h205z" />
    <glyph glyph-name="parenright" unicode=")" horiz-adv-x="681" 
d="M-43 -410q128 176 214.5 314.5t161 296.5t110.5 319.5t36 333.5q0 141 -26 279.5t-93 359.5h205q158 -365 158 -659q0 -310 -134.5 -608.5t-426.5 -635.5h-205z" />
    <glyph glyph-name="asterisk" unicode="*" horiz-adv-x="796" 
d="M504 1114l-207 74l76 141l207 -74l49 238h147l-51 -238l240 74l14 -143l-238 -72l97 -192l-138 -88l-96 192l-178 -192l-100 88z" />
    <glyph glyph-name="plus" unicode="+" horiz-adv-x="1196" 
d="M1221 598l-52 -246h-374l-80 -372h-244l80 372h-373l51 246h373l80 371h244l-80 -371h375z" />
    <glyph glyph-name="comma" unicode="," horiz-adv-x="569" 
d="M195 299h307l-60 -281q-29 -168 -123.5 -258.5t-263.5 -115.5l25 114q187 34 227 242h-176z" />
    <glyph glyph-name="hyphen" unicode="-" horiz-adv-x="681" 
d="M760 700l-60 -276h-557l60 276h557z" />
    <glyph glyph-name="period" unicode="." horiz-adv-x="569" 
d="M502 299l-64 -299h-307l64 299h307z" />
    <glyph glyph-name="slash" unicode="/" horiz-adv-x="569" 
d="M737 1462h137l-739 -1491h-137z" />
    <glyph glyph-name="zero" unicode="0" horiz-adv-x="1138" 
d="M862 1483q184 0 289.5 -108.5t105.5 -297.5q0 -35 -3.5 -85.5t-13.5 -127.5t-26 -157t-44.5 -171t-65 -173t-90.5 -158t-118.5 -131t-152 -88t-188.5 -33q-181 0 -285 109t-104 298q0 47 6 117.5t25 181t49 218t84.5 219t124.5 196t175.5 138t231.5 53.5zM807 1253
q-107 0 -180 -116q-51 -82 -109.5 -347.5t-58.5 -414.5q0 -78 42.5 -125t112.5 -47q91 0 148 65t100 217q42 147 72.5 324t30.5 272q0 78 -43 125t-115 47z" />
    <glyph glyph-name="one" unicode="1" horiz-adv-x="1138" 
d="M700 1001h-348l41 191q376 0 500 260h190l-309 -1452h-287z" />
    <glyph glyph-name="two" unicode="2" horiz-adv-x="1138" 
d="M1286 1130q0 -89 -28 -169.5t-74.5 -142.5t-109 -120.5t-129 -103t-137 -91t-130.5 -84t-112 -80.5t-79 -83h615l-53 -256h-988q31 116 77 206.5t101.5 151t116.5 107t130 86t133 76t135.5 88.5t128.5 112q52 52 81 122t29 141q0 77 -46.5 120t-129.5 43q-106 0 -173 -79
t-87 -228h-274q40 258 190.5 397.5t388.5 139.5q199 0 311.5 -93.5t112.5 -259.5z" />
    <glyph glyph-name="three" unicode="3" horiz-adv-x="1138" 
d="M864 471q0 108 -64 143t-218 35l41 193h24q138 0 221.5 73.5t83.5 194.5q0 63 -44 103t-113 40q-32 0 -60 -6.5t-49 -20t-38 -26.5t-30.5 -35.5t-22 -37t-16.5 -40t-11 -35.5t-8 -33t-5 -24h-264q47 250 182.5 369t372.5 119q195 0 302 -80.5t107 -228.5
q0 -247 -245 -396q147 -90 147 -252q0 -120 -42 -225t-118.5 -182t-190 -121.5t-249.5 -44.5q-199 0 -309.5 93.5t-110.5 262.5q0 41 13 117h278v-66q2 -75 50 -116t136 -41q102 0 176 79.5t74 188.5z" />
    <glyph glyph-name="four" unicode="4" horiz-adv-x="1138" 
d="M1188 559l-51 -237h-150l-69 -322h-287l69 322h-583l51 241l721 889h338l-191 -893h152zM750 559l133 623l-510 -623h377z" />
    <glyph glyph-name="five" unicode="5" horiz-adv-x="1138" 
d="M1171 614q0 -34 -7 -80t-26.5 -110.5t-49.5 -127.5t-81 -126t-115 -110.5t-158 -77t-204 -29.5q-185 0 -297 92t-112 244q0 39 10 90h283q-4 -36 -4 -45q0 -60 49 -95.5t131 -35.5q124 0 206.5 103.5t82.5 258.5q0 89 -48 138t-137 49q-65 0 -119 -28.5t-88 -80.5h-258
l299 809h785l-56 -256h-606l-110 -303q134 88 270 88q167 0 263.5 -99t96.5 -268z" />
    <glyph glyph-name="six" unicode="6" horiz-adv-x="1138" 
d="M174 350q0 42 4.5 98.5t16.5 135.5t30.5 160.5t49.5 171t70 170t95.5 154t122.5 127t155 85t189 31.5q173 0 273 -84t100 -230q0 -29 -2 -47h-266q-13 70 -51.5 100.5t-112.5 30.5q-66 0 -113 -23.5t-83.5 -79t-62.5 -125t-57 -183.5q149 114 306 114q161 0 252.5 -91
t91.5 -251q0 -38 -8 -88t-27.5 -114t-49.5 -126.5t-78 -123.5t-108 -106.5t-145 -74t-184 -28.5q-186 0 -297 108t-111 289zM721 727q-114 0 -197.5 -102t-83.5 -240q0 -80 49 -131t127 -51q112 0 192.5 102.5t80.5 245.5q0 78 -46.5 127t-121.5 49z" />
    <glyph glyph-name="seven" unicode="7" horiz-adv-x="1138" 
d="M1391 1452l-48 -225q-12 -13 -37 -38q-66 -68 -99.5 -103t-94.5 -101.5t-96 -109.5t-89 -112.5t-88 -125.5t-78.5 -133.5t-76.5 -151.5t-65 -164.5t-60 -187.5h-291q123 372 294 639.5t470 556.5h-723l56 256h1026z" />
    <glyph glyph-name="eight" unicode="8" horiz-adv-x="1138" 
d="M1270 1167q0 -64 -22.5 -122.5t-49.5 -95.5t-71 -74t-66 -51t-55 -33q94 -57 133 -119t39 -154q0 -73 -23.5 -150t-74 -151.5t-121 -133t-173 -94.5t-221.5 -36q-204 0 -323 98.5t-119 265.5q0 305 330 474q-72 56 -103 106.5t-31 116.5q0 126 73.5 234t199.5 171.5
t272 63.5q180 0 293 -88t113 -228zM815 1253q-103 0 -174.5 -66.5t-71.5 -162.5q0 -69 48 -111.5t126 -42.5q108 0 184.5 69t76.5 167q0 66 -52 106.5t-137 40.5zM700 676q-120 0 -202 -89t-82 -218q0 -72 54.5 -119t137.5 -47q121 0 199 85.5t78 217.5q0 78 -50 124
t-135 46z" />
    <glyph glyph-name="nine" unicode="9" horiz-adv-x="1138" 
d="M1251 1063q0 -53 -7.5 -128t-29.5 -183t-55.5 -214t-92.5 -213.5t-133.5 -188.5t-184.5 -132t-240 -51q-164 0 -266.5 88t-102.5 229q0 24 8 68h277v-25q0 -49 44 -79.5t116 -30.5q52 0 92.5 16t81 57.5t74.5 121t61 198.5q-87 -74 -151 -101.5t-150 -27.5
q-160 0 -253 96t-93 262q0 181 79.5 332t217.5 238.5t303 87.5q184 0 294.5 -114.5t110.5 -305.5zM797 1253q-114 0 -192.5 -107.5t-78.5 -262.5q0 -82 44.5 -130t119.5 -48q123 0 209 104.5t86 253.5q0 88 -51 139t-137 51z" />
    <glyph glyph-name="colon" unicode=":" horiz-adv-x="681" 
d="M766 1065l-64 -299h-307l64 299h307zM602 299l-63 -299h-308l64 299h307z" />
    <glyph glyph-name="semicolon" unicode=";" horiz-adv-x="681" 
d="M295 299h307l-59 -281q-29 -168 -123.5 -258.5t-263.5 -115.5l24 114q188 34 228 242h-177zM766 1065l-64 -299h-307l64 299h307z" />
    <glyph glyph-name="less" unicode="&#x3c;" horiz-adv-x="1196" 
d="M1290 971l-55 -264l-696 -232l598 -227l-58 -268l-921 372l53 248z" />
    <glyph glyph-name="equal" unicode="=" horiz-adv-x="1196" 
d="M1274 844l-51 -246h-994l52 246h993zM1169 352l-51 -246h-993l51 246h993z" />
    <glyph glyph-name="greater" unicode="&#x3e;" horiz-adv-x="1196" 
d="M78 -20l55 264l696 231l-598 227l58 269l921 -373l-53 -248z" />
    <glyph glyph-name="question" unicode="?" horiz-adv-x="1251" 
d="M934 1524q102 0 181.5 -24.5t127.5 -62t79 -87.5t42.5 -97t11.5 -94q0 -86 -27.5 -163t-58 -124.5t-88 -97.5t-82.5 -66t-75 -46q-8 -5 -11 -7q-105 -65 -134.5 -103.5t-51.5 -139.5h-250q7 80 38 146t74.5 111.5t94 85t99.5 74.5t89 71.5t65 85t25 106.5q0 78 -52 128
t-134 50q-104 0 -176 -75t-98 -210h-279q7 31 12 51t19 65t29 78t42 80t57 81t74.5 70.5t95 60t118 38.5t143.5 15zM856 299l-63 -299h-308l64 299h307z" />
    <glyph glyph-name="at" unicode="@" horiz-adv-x="1996" 
d="M2114 899q0 -113 -31 -220t-83 -191.5t-120.5 -155.5t-143 -118t-150 -73t-142.5 -26q-174 0 -221 143q-152 -149 -326 -149q-124 0 -202.5 77.5t-78.5 200.5q0 80 37 173.5t102.5 181t148 159.5t182.5 116t196 44q77 0 122.5 -32.5t76.5 -108.5l55 120h184l-278 -573
q-26 -50 -32.5 -69.5t-6.5 -41.5q0 -32 22 -51.5t58 -19.5q27 0 69 18t91.5 51t98.5 85.5t89.5 114.5t66 145t25.5 171q0 93 -41.5 180t-117.5 155.5t-193.5 109.5t-257.5 41q-156 0 -292 -41.5t-231 -109.5t-173 -157t-125.5 -180t-80 -183t-45 -162.5t-12.5 -121.5
q0 -225 174 -368.5t447 -143.5q95 0 191 19t243 65l25 -161q-230 -93 -506 -93q-130 0 -240 23.5t-188.5 63t-140.5 93.5t-100.5 112.5t-63.5 123.5t-35 122.5t-10 113.5q0 137 42 277t117 267.5t186.5 239.5t244.5 194t296.5 129.5t335.5 47.5q163 0 303 -50.5
t235.5 -135.5t149.5 -199.5t54 -241.5zM1374 770q0 63 -39.5 103t-103.5 40q-63 0 -137 -45.5t-133.5 -113.5t-99.5 -154t-40 -160q0 -72 38 -116.5t99 -44.5q67 0 143 50.5t135 124t98.5 160.5t39.5 156z" />
    <glyph glyph-name="A" unicode="A" horiz-adv-x="1478" 
d="M1090 301h-558l-165 -301h-314l834 1493h354l199 -1493h-314zM1061 557l-72 580l-315 -580h387z" />
    <glyph glyph-name="B" unicode="B" horiz-adv-x="1478" 
d="M1151 1493q95 0 169 -21t118.5 -53.5t73 -76.5t39 -86t10.5 -87q0 -106 -61.5 -202t-178.5 -172q78 -61 111.5 -124.5t33.5 -148.5q0 -28 -6 -64t-24 -87.5t-46 -100.5t-77 -99t-112 -87t-156.5 -60.5t-204.5 -23.5h-672l317 1493h666zM1001 899q62 0 109 14.5t73.5 36
t43.5 51t22.5 55.5t5.5 54q0 66 -43.5 96.5t-138.5 30.5h-336l-71 -338h335zM895 256q77 0 132 22.5t83 60.5t40.5 78t12.5 85q0 72 -45.5 106.5t-140.5 34.5h-365l-82 -387h365z" />
    <glyph glyph-name="C" unicode="C" horiz-adv-x="1478" 
d="M219 481q0 214 66.5 405.5t182 330.5t278 220t346.5 81q238 0 385 -118.5t147 -309.5q0 -27 -8 -103h-289q0 127 -63 197.5t-207 70.5q-93 0 -172 -32.5t-132 -84t-95.5 -120t-66.5 -136t-40 -137.5t-21.5 -119t-5.5 -85q0 -161 76 -243.5t225 -82.5q148 0 253 77
t149 218h293q-67 -262 -262.5 -409.5t-475.5 -147.5q-262 0 -412.5 141t-150.5 387z" />
    <glyph glyph-name="D" unicode="D" horiz-adv-x="1478" 
d="M158 0l317 1493h584q278 0 404 -121.5t126 -390.5q0 -59 -8 -129.5t-32 -168t-62 -188.5t-104.5 -183t-152 -159.5t-212 -110t-277.5 -42.5h-583zM520 256h275q89 0 163.5 31t124 80.5t87.5 116.5t59 132.5t34 136t17 119t4 89.5q0 276 -280 276h-277z" />
    <glyph glyph-name="E" unicode="E" horiz-adv-x="1366" 
d="M606 643l-82 -387h809l-55 -256h-1116l317 1493h1082l-56 -256h-774l-72 -338h715l-53 -256h-715z" />
    <glyph glyph-name="F" unicode="F" horiz-adv-x="1251" 
d="M596 643l-137 -643h-307l317 1493h1049l-56 -256h-741l-72 -338h656l-56 -256h-653z" />
    <glyph glyph-name="G" unicode="G" horiz-adv-x="1593" 
d="M1628 803l-172 -807h-184l14 184q-114 -122 -224.5 -174.5t-252.5 -52.5q-270 0 -430 158.5t-160 425.5q0 129 36.5 264.5t112 264t180 229t253.5 162t319 61.5q250 0 403.5 -120.5t153.5 -314.5q0 -9 -4 -67h-282q-12 115 -97 177t-231 62q-89 0 -165.5 -27
t-130.5 -71.5t-97 -104t-70 -122t-44.5 -128.5t-24.5 -120t-7 -100q0 -158 98.5 -262.5t249.5 -104.5q81 0 151.5 25.5t117.5 62t85 84.5t57.5 86.5t31.5 73.5h-340l55 256h598z" />
    <glyph glyph-name="H" unicode="H" horiz-adv-x="1478" 
d="M1182 678h-592l-144 -678h-307l318 1493h307l-119 -559h590l119 559h309l-317 -1493h-308z" />
    <glyph glyph-name="I" unicode="I" horiz-adv-x="569" 
d="M754 1493l-318 -1493h-307l317 1493h308z" />
    <glyph glyph-name="J" unicode="J" horiz-adv-x="1138" 
d="M1006 1493h307l-236 -1104q-8 -36 -16 -65.5t-28.5 -77t-46.5 -84t-70.5 -78t-99.5 -68.5t-135 -45t-175 -18q-180 0 -282.5 85t-102.5 234q0 71 14 134l31 147h307l-33 -158q-8 -36 -8 -69q0 -49 37.5 -80t97.5 -31q165 0 203 174z" />
    <glyph glyph-name="K" unicode="K" horiz-adv-x="1478" 
d="M561 479l-102 -479h-307l317 1493h307l-139 -655l725 655h364l-739 -653l481 -840h-366l-354 643z" />
    <glyph glyph-name="L" unicode="L" horiz-adv-x="1251" 
d="M788 1493l-262 -1237h715l-55 -256h-1022l317 1493h307z" />
    <glyph glyph-name="M" unicode="M" horiz-adv-x="1705" 
d="M1018 0h-307l-15 1268l-270 -1268h-291l318 1493h444l41 -1147l520 1147h449l-318 -1493h-291l271 1268z" />
    <glyph glyph-name="N" unicode="N" horiz-adv-x="1478" 
d="M1671 1493l-317 -1493h-303l-394 1071l-227 -1071h-291l318 1493h307l393 -1055l223 1055h291z" />
    <glyph glyph-name="O" unicode="O" horiz-adv-x="1593" 
d="M1102 1518q281 0 437.5 -154.5t156.5 -431.5q0 -89 -17.5 -183.5t-54.5 -190t-89.5 -184t-126.5 -165.5t-162 -134t-200.5 -89.5t-236.5 -32.5q-274 0 -433 156.5t-159 425.5q0 101 25 210.5t72 220t123 209.5t171 176t223 122t271 45zM858 215q92 0 170.5 31t132 80
t95.5 114.5t66.5 130t41 131t22 113t5.5 80.5q0 169 -87 264.5t-241 95.5q-93 0 -172 -30.5t-133 -79t-97 -113t-68.5 -128.5t-42 -130t-22.5 -113.5t-6 -82.5q0 -167 90.5 -265t245.5 -98z" />
    <glyph glyph-name="P" unicode="P" horiz-adv-x="1366" 
d="M1104 1493q98 0 175 -22.5t123 -57.5t76 -82t41 -92t11 -92q0 -69 -19 -147.5t-63.5 -162.5t-108.5 -151t-163.5 -110.5t-217.5 -43.5h-383l-112 -532h-307l317 1493h631zM944 788q80 0 138 28t87.5 73.5t42.5 91.5t13 94q0 72 -51 117t-134 45h-315l-94 -449h313z" />
    <glyph glyph-name="Q" unicode="Q" horiz-adv-x="1593" 
d="M1405 211l131 -156l-190 -166l-142 166q-182 -102 -391 -102q-271 0 -430.5 157.5t-159.5 426.5q0 87 17.5 180.5t54 189t88.5 184.5t126 167t161 135.5t198.5 91t233.5 33.5q281 0 440.5 -157t159.5 -433q0 -189 -83.5 -390t-213.5 -327zM1104 569l133 -159
q71 90 115.5 224t44.5 259q0 170 -89 266t-247 96q-101 0 -189 -42t-149.5 -111.5t-106.5 -158t-66.5 -182t-21.5 -183.5q0 -168 88 -265.5t240 -97.5q102 0 182 39l-127 149z" />
    <glyph glyph-name="R" unicode="R" horiz-adv-x="1478" 
d="M1044 84q0 69 39 216.5t39 178.5q0 113 -174 113h-352l-125 -592h-307l317 1493h772q81 0 145 -21.5t102.5 -54t63.5 -75t34.5 -81t9.5 -75.5q0 -61 -14.5 -117t-35.5 -96.5t-55 -79.5t-61.5 -62.5t-66.5 -48.5t-59 -35.5t-50 -25.5q159 -53 159 -168q0 -71 -31.5 -232.5
t-31.5 -195.5q0 -43 37 -70l-13 -55h-325q-17 55 -17 84zM1303 1094q0 55 -32 88t-79 44t-115 11h-344l-82 -389h371q66 0 117.5 18t81.5 44.5t49.5 61t26 64.5t6.5 58z" />
    <glyph glyph-name="S" unicode="S" horiz-adv-x="1366" 
d="M309 967q0 114 46.5 214.5t130 175.5t209 118t274.5 43q244 0 380 -93.5t136 -259.5q0 -46 -17 -127h-286q4 36 4 47q0 83 -70 126.5t-201 43.5q-139 0 -220 -57.5t-81 -155.5q0 -58 51.5 -89t196.5 -60l223 -45q157 -31 239.5 -109t82.5 -196q0 -50 -9 -102.5t-32 -111
t-57.5 -111.5t-90.5 -102t-126.5 -84.5t-169.5 -57t-215 -21.5q-106 0 -193 17.5t-145.5 48.5t-101.5 70t-66.5 85.5t-34 91t-10.5 90.5q0 35 8 90h299q-4 -36 -4 -47q0 -88 76.5 -136t216.5 -48q159 0 254.5 62t95.5 165q0 72 -53 109t-193 65l-201 41q-183 37 -264.5 110
t-81.5 200z" />
    <glyph glyph-name="T" unicode="T" horiz-adv-x="1251" 
d="M1053 1237l-265 -1237h-307l264 1237h-454l55 256h1196l-55 -256h-434z" />
    <glyph glyph-name="U" unicode="U" horiz-adv-x="1478" 
d="M1350 1493h307l-215 -1012q-24 -113 -75.5 -204t-117.5 -150.5t-149.5 -99.5t-170 -57t-179.5 -17q-232 0 -369 105.5t-137 283.5q0 73 22 180l207 971h307l-215 -1012q-10 -55 -10 -92q0 -82 66 -128t186 -46q140 0 219.5 64t108.5 202z" />
    <glyph glyph-name="V" unicode="V" horiz-adv-x="1366" 
d="M819 0h-260l-192 1493h309l92 -1124l565 1124h309z" />
    <glyph glyph-name="W" unicode="W" horiz-adv-x="1933" 
d="M1495 0h-276l-9 1137l-485 -1137h-276l-105 1493h326l-6 -1118l458 1118h324l-6 -1122l461 1122h325z" />
    <glyph glyph-name="X" unicode="X" horiz-adv-x="1366" 
d="M1022 762l319 -762h-366l-184 510l-388 -510h-358l635 752l-297 741h365l161 -483l375 483h358z" />
    <glyph glyph-name="Y" unicode="Y" horiz-adv-x="1366" 
d="M977 553l-119 -553h-307l119 553l-297 940h342l168 -645l424 645h342z" />
    <glyph glyph-name="Z" unicode="Z" horiz-adv-x="1251" 
d="M1501 1493l-55 -256l-971 -981h764l-55 -256h-1123l56 256l970 981h-763l55 256h1122z" />
    <glyph glyph-name="bracketleft" unicode="[" horiz-adv-x="681" 
d="M948 1493l-45 -205h-231l-316 -1493h232l-43 -205h-498l404 1903h497z" />
    <glyph glyph-name="backslash" unicode="\" horiz-adv-x="569" 
d="M283 1452h151l150 -1499h-154z" />
    <glyph glyph-name="bracketright" unicode="]" horiz-adv-x="681" 
d="M-51 -410l45 205h231l316 1493h-232l43 205h498l-404 -1903h-497z" />
    <glyph glyph-name="asciicircum" unicode="^" horiz-adv-x="1196" 
d="M1188 553h-232l-118 614l-365 -614h-229l522 870h256z" />
    <glyph glyph-name="underscore" unicode="_" horiz-adv-x="1138" 
d="M1130 -246l-34 -164h-1229l35 164h1228z" />
    <glyph glyph-name="grave" unicode="`" horiz-adv-x="681" 
d="M358 1550h244l92 -307h-129z" />
    <glyph glyph-name="a" unicode="a" horiz-adv-x="1138" 
d="M791 1124q95 0 167.5 -16.5t114 -42t68 -60t35 -65t8.5 -63.5t-13 -93l-129 -614q-6 -32 -6 -43q0 -43 43 -92l-8 -35h-313q-15 34 -15 55q0 20 7 56q-93 -84 -173 -121t-169 -37q-137 0 -221.5 74t-84.5 194q0 31 8.5 70.5t36.5 95t71 103t120.5 89t177.5 58.5l119 18
q7 1 31 4t34.5 4.5t33.5 6t35 8t32 10.5t30.5 14t24 18t20.5 23t12 28.5t5 35.5q0 46 -36 67t-114 21q-99 0 -151 -35t-78 -119h-268q43 200 173.5 291.5t371.5 91.5zM819 444l17 78q-11 -6 -17 -9t-15 -6t-13.5 -4t-21.5 -3.5t-30 -5.5l-135 -23q-100 -17 -154.5 -65.5
t-54.5 -120.5q0 -103 150 -103q104 0 175 68t99 194z" />
    <glyph glyph-name="b" unicode="b" horiz-adv-x="1251" 
d="M438 1493h287l-113 -530q133 161 340 161q163 0 261 -116t98 -308q0 -143 -51.5 -280.5t-134.5 -239.5t-195 -164.5t-228 -62.5q-204 0 -270 160l-24 -113h-287zM838 895q-86 0 -162.5 -66.5t-122 -177.5t-45.5 -237q0 -105 49 -168.5t131 -63.5q85 0 161.5 65t122.5 174
t46 232q0 112 -48.5 177t-131.5 65z" />
    <glyph glyph-name="c" unicode="c" horiz-adv-x="1138" 
d="M815 1124q186 0 297 -98.5t111 -245.5q0 -14 -9 -88h-274q-1 40 -3.5 66t-12.5 54.5t-27.5 45t-49 27t-75.5 10.5q-73 0 -131.5 -38t-93 -95t-57 -128t-31 -130.5t-8.5 -110.5q0 -211 182 -211q83 0 138.5 46t102.5 155h275q-64 -205 -208.5 -317.5t-342.5 -112.5
q-101 0 -180.5 26.5t-127 67.5t-78.5 96t-42.5 106t-11.5 103q0 45 7 101t27 132t50.5 148.5t82.5 144.5t118 125.5t162 87t210 33.5z" />
    <glyph glyph-name="d" unicode="d" horiz-adv-x="1251" 
d="M829 0l25 113q-138 -160 -340 -160q-160 0 -256 116.5t-96 309.5q0 104 27.5 210t80.5 201.5t124.5 170.5t167 119t200.5 44t171 -39t101 -122l113 530h287l-318 -1493h-287zM778 895q-83 0 -158 -66t-120 -175.5t-45 -231.5q0 -110 48 -175t130 -65q85 0 160.5 65.5
t120 176.5t44.5 238q0 107 -48.5 170t-131.5 63z" />
    <glyph glyph-name="e" unicode="e" horiz-adv-x="1138" 
d="M776 1124q195 0 314.5 -112.5t119.5 -292.5q0 -124 -36 -256h-744q-6 -57 -6 -92q0 -85 53 -137t141 -52q74 0 136.5 35.5t93.5 93.5h282q-85 -170 -233 -264t-334 -94q-192 0 -312 118t-120 308q0 41 6.5 93.5t25.5 125.5t48.5 143.5t80.5 141t115.5 123t160 85.5
t208.5 33zM741 895q-205 0 -274 -242h451q0 45 -2.5 75.5t-12.5 65t-28.5 54.5t-52 33.5t-81.5 13.5z" />
    <glyph glyph-name="f" unicode="f" horiz-adv-x="681" 
d="M870 1083l-41 -190h-167l-191 -893h-287l191 893h-158l41 190h156l28 134q31 143 115.5 209.5t235.5 66.5q28 0 157 -6l-45 -215q-73 8 -86 8q-39 0 -61.5 -20.5t-32.5 -67.5l-25 -109h170z" />
    <glyph glyph-name="g" unicode="g" horiz-adv-x="1251" 
d="M481 -446q-122 0 -210.5 23.5t-133.5 62t-64.5 79t-19.5 84.5q0 27 6 64h295q-2 -18 -2 -25q0 -44 50.5 -74t125.5 -30q112 0 194.5 62.5t104.5 162.5l33 150q-98 -91 -171.5 -125.5t-168.5 -34.5q-155 0 -256.5 110t-101.5 279q0 109 27 220t80 211.5t125.5 179t171 125
t208.5 46.5q179 0 260 -188l37 170h272l-243 -1143q-41 -194 -203 -301.5t-416 -107.5zM776 895q-82 0 -156.5 -67.5t-119.5 -179.5t-45 -236q0 -106 46.5 -168t125.5 -62q89 0 167.5 63t124.5 170t46 230q0 114 -51.5 182t-137.5 68z" />
    <glyph glyph-name="h" unicode="h" horiz-adv-x="1251" 
d="M455 1493h286l-118 -555q82 97 170.5 141.5t197.5 44.5q134 0 215.5 -74.5t81.5 -195.5q0 -54 -12 -113l-158 -741h-287l138 641q12 64 12 98q0 75 -39 115.5t-111 40.5q-98 0 -173 -74t-101 -198l-133 -623h-287z" />
    <glyph glyph-name="i" unicode="i" horiz-adv-x="569" 
d="M659 1106l-235 -1106h-287l236 1106h286zM741 1493l-55 -256h-287l56 256h286z" />
    <glyph glyph-name="j" unicode="j" horiz-adv-x="569" 
d="M666 1106l-277 -1299q-28 -133 -119 -193t-266 -60q-56 0 -92 10l49 227q11 -8 51 -8q46 0 70.5 20.5t34.5 69.5l262 1233h287zM748 1493l-56 -256h-286l55 256h287z" />
    <glyph glyph-name="k" unicode="k" horiz-adv-x="1138" 
d="M725 1493l-174 -817l457 430h325l-475 -422l264 -684h-336l-161 489l-140 -127l-77 -362h-287l317 1493h287z" />
    <glyph glyph-name="l" unicode="l" horiz-adv-x="569" 
d="M741 1493l-317 -1493h-287l318 1493h286z" />
    <glyph glyph-name="m" unicode="m" horiz-adv-x="1820" 
d="M358 1106h285l-35 -166q91 100 170.5 142t179.5 42q95 0 163.5 -45.5t90.5 -122.5q85 88 172 128t191 40q138 0 214.5 -68t76.5 -190q0 -41 -17 -125l-157 -741h-287l147 696q11 53 11 84q0 55 -31 85t-88 30q-97 0 -163 -60.5t-89 -170.5l-141 -664h-287l151 709
q7 40 7 67q0 54 -35 86.5t-94 32.5q-89 0 -154 -62t-88 -169l-141 -664h-287z" />
    <glyph glyph-name="n" unicode="n" horiz-adv-x="1251" 
d="M365 1106h286l-37 -168q83 98 171 142t202 44q137 0 219 -73.5t82 -196.5q0 -54 -12 -113l-158 -741h-287l138 641q12 67 12 100q0 74 -39.5 114t-112.5 40q-103 0 -177.5 -73t-102.5 -199l-133 -623h-287z" />
    <glyph glyph-name="o" unicode="o" horiz-adv-x="1251" 
d="M168 362q0 207 82 379.5t238.5 277.5t357.5 105q211 0 331.5 -109t120.5 -300q0 -157 -49.5 -296.5t-137 -242.5t-217 -163t-282.5 -60q-203 0 -323.5 111t-120.5 298zM664 182q65 0 120 27t91 71t62.5 95.5t41 107t21 98t6.5 74.5q0 109 -55.5 174.5t-149.5 65.5
q-138 0 -239 -140.5t-101 -334.5q0 -109 55.5 -173.5t147.5 -64.5z" />
    <glyph glyph-name="p" unicode="p" horiz-adv-x="1251" 
d="M639 1106l-35 -164q141 182 346 182q163 0 259 -114.5t96 -309.5q0 -152 -47.5 -290.5t-128 -239t-191.5 -160t-233 -59.5q-107 0 -174 44t-99 136l-123 -577h-286l329 1552h287zM831 895q-86 0 -162 -66.5t-120.5 -178t-44.5 -238.5q0 -105 49 -168.5t131 -63.5
q86 0 162 65.5t121 177t45 239.5q0 106 -49 169.5t-132 63.5z" />
    <glyph glyph-name="q" unicode="q" horiz-adv-x="1251" 
d="M1063 1106h287l-330 -1552h-287l123 577q-137 -180 -348 -180q-163 0 -262 114.5t-99 303.5q0 106 27 214t80.5 204.5t125.5 172t170 120t206 44.5q211 0 272 -182zM772 895q-86 0 -163 -66.5t-123 -177.5t-46 -237q0 -106 50 -170t133 -64q133 0 232 144.5t99 339.5
q0 106 -49.5 168.5t-132.5 62.5z" />
    <glyph glyph-name="r" unicode="r" horiz-adv-x="796" 
d="M365 1106h286l-47 -217q72 112 166 173.5t193 61.5q18 0 34 -2l-61 -291q-56 9 -88 9q-254 0 -307 -252l-125 -588h-287z" />
    <glyph glyph-name="s" unicode="s" horiz-adv-x="1138" 
d="M260 707q0 179 148.5 298t384.5 119q193 0 303 -79.5t110 -217.5q0 -31 -10 -77h-276q6 27 6 38q0 50 -48 78.5t-133 28.5q-82 0 -131 -29.5t-49 -79.5q0 -31 27.5 -50t105.5 -42l197 -57q128 -38 189 -100t61 -154q0 -197 -154.5 -313.5t-415.5 -116.5q-104 0 -185.5 21
t-130.5 53.5t-81 75t-43.5 81t-11.5 76.5q0 21 8 62h281q2 -42 23.5 -71.5t56 -43.5t67.5 -19.5t70 -5.5q94 0 153.5 31.5t59.5 81.5q0 35 -29.5 55t-126.5 51l-162 52q-135 44 -199.5 106t-64.5 148z" />
    <glyph glyph-name="t" unicode="t" horiz-adv-x="681" 
d="M848 1083l-41 -190h-160l-127 -602q-12 -52 -12 -70q0 -23 21.5 -37t56.5 -14q24 0 67 6l-41 -201q-78 -22 -174 -22q-112 0 -171.5 45.5t-59.5 130.5q0 36 10 84l143 680h-141l41 190h141l64 297h287l-64 -297h160z" />
    <glyph glyph-name="u" unicode="u" horiz-adv-x="1251" 
d="M1108 0h-287l31 139q-83 -98 -171 -142t-202 -44q-135 0 -217 73.5t-82 196.5q0 50 13 113l163 770h287l-143 -670q-13 -76 -13 -100q0 -75 40 -114.5t116 -39.5q100 0 174.5 74t100.5 199l139 651h286z" />
    <glyph glyph-name="v" unicode="v" horiz-adv-x="1138" 
d="M717 0h-301l-152 1106h303l62 -809l401 809h303z" />
    <glyph glyph-name="w" unicode="w" horiz-adv-x="1593" 
d="M1264 0h-297l-11 778l-340 -778h-294l-76 1106h297l10 -774l326 774h295v-774l333 774h297z" />
    <glyph glyph-name="x" unicode="x" horiz-adv-x="1138" 
d="M842 561l252 -561h-344l-121 344l-252 -344h-344l477 561l-227 545h344l104 -334l252 334h344z" />
    <glyph glyph-name="y" unicode="y" horiz-adv-x="1138" 
d="M1042 1106h295l-733 -1307q-38 -71 -54 -93q-115 -155 -384 -155q-49 0 -90 9l47 223q23 -4 57 -4q106 0 169 51.5t63 138.5q-27 218 -83.5 609t-74.5 528h315l74 -805z" />
    <glyph glyph-name="z" unicode="z" horiz-adv-x="1024" 
d="M1178 1106l-50 -232l-679 -643h561l-49 -231h-918l49 231l684 643h-510l49 232h863z" />
    <glyph glyph-name="braceleft" unicode="{" horiz-adv-x="796" 
d="M399 551q27 -4 43 -7.5t41.5 -13.5t40 -23.5t26 -38.5t11.5 -58q0 -32 -10 -84l-86 -400q-10 -58 -10 -82q0 -51 80 -51h71l-43 -203h-157q-89 0 -144 57.5t-55 149.5q0 44 8 80l92 430q10 52 10 70q0 37 -29 57.5t-81 20.5h-27l-8 2l41 188h33q133 0 160 129l92 432
q29 138 110.5 212.5t202.5 74.5h156l-43 -203h-76q-57 0 -79.5 -22t-37.5 -94l-84 -400q-25 -111 -80.5 -161t-167.5 -62z" />
    <glyph glyph-name="bar" unicode="|" horiz-adv-x="573" 
d="M686 1493l-405 -1903h-164l405 1903h164z" />
    <glyph glyph-name="braceright" unicode="}" horiz-adv-x="796" 
d="M631 532q-26 4 -43 7.5t-42 13.5t-39.5 24t-26 39t-11.5 58q0 32 10 84l86 399q10 58 10 82q0 51 -79 51h-72l43 203h158q89 0 143.5 -57t54.5 -150q0 -44 -8 -80l-92 -430q-10 -52 -10 -69q0 -37 29 -57.5t81 -20.5h27l8 -2l-41 -189h-33q-132 0 -159 -129l-93 -432
q-29 -138 -110.5 -212.5t-202.5 -74.5h-156l43 203h76q57 0 79.5 22.5t37.5 94.5l84 399q25 111 80.5 161t167.5 62z" />
    <glyph glyph-name="asciitilde" unicode="~" horiz-adv-x="1196" 
d="M1032 590h158q-35 -146 -118 -222.5t-206 -76.5q-95 0 -157 53l-99 86q-57 49 -114 49q-59 0 -88.5 -28.5t-49.5 -104.5h-159q79 297 325 297q96 0 156 -51l100 -86q32 -29 56.5 -40t58.5 -11q58 0 86.5 28.5t50.5 106.5z" />
    <glyph glyph-name="nonbreakingspace" unicode="&#xa0;" horiz-adv-x="569" 
 />
    <glyph glyph-name="exclamdown" unicode="&#xa1;" horiz-adv-x="681" 
d="M53 -381l92 430l220 633h137l-49 -633l-93 -430h-307zM307 807l64 299h307l-64 -299h-307z" />
    <glyph glyph-name="cent" unicode="&#xa2;" horiz-adv-x="1138" 
d="M889 1120q85 -10 149.5 -43t98.5 -71.5t55.5 -86t27 -79.5t5.5 -60q0 -23 -8 -88h-275q0 93 -22 136.5t-80 62.5l-150 -709q63 15 106.5 62.5t80.5 138.5h274q-56 -188 -193 -303.5t-317 -124.5l-43 -209h-135l45 213q-76 13 -136 41t-96 66t-60.5 76.5t-35 81.5
t-14.5 72t-4 56q0 38 6 89t23.5 123.5t44.5 142.5t74 142.5t106 129t146.5 96t191.5 47.5l39 176h135zM705 891q-61 -16 -108.5 -66t-73 -109t-42 -128t-21.5 -116t-5 -81q0 -85 23 -130.5t79 -70.5z" />
    <glyph glyph-name="sterling" unicode="&#xa3;" horiz-adv-x="1138" 
d="M590 1016q0 -34 24 -123.5t33 -132.5h285l-25 -113h-250q5 -34 5 -53q0 -109 -70.5 -204.5t-239.5 -213.5q98 44 136.5 56t84.5 12q44 0 131 -17.5t138 -17.5q101 0 233 59l37 -223q-97 -51 -169 -71.5t-148 -20.5q-74 0 -197.5 30.5t-194.5 30.5q-57 0 -108.5 -12.5
t-126.5 -44.5l-68 207q160 94 227.5 179t67.5 192q0 41 -10 112h-182l24 113h123q-33 95 -43 136.5t-10 82.5q0 40 14.5 95t55.5 125t102 127.5t166 97.5t235 40q206 0 312 -91t106 -269q0 -45 -8 -113h-268q2 20 2 53q0 191 -191 191q-94 0 -163.5 -65.5t-69.5 -153.5z" />
    <glyph glyph-name="currency" unicode="&#xa4;" horiz-adv-x="1138" 
d="M1026 1081l182 150l111 -141l-186 -154q20 -67 20 -123q0 -163 -115 -309l123 -156l-170 -139l-121 153q-73 -36 -118 -48.5t-103 -12.5q-59 0 -119 18t-92 46l-192 -160l-111 141l193 158q-23 70 -23 131q0 76 30 156t83 145l-127 162l170 139l125 -158q115 64 241 64
q114 0 199 -62zM772 942q-110 0 -186 -77t-76 -189q0 -77 49 -125.5t127 -48.5q109 0 185.5 78t76.5 188q0 76 -49.5 125t-126.5 49z" />
    <glyph glyph-name="yen" unicode="&#xa5;" horiz-adv-x="1138" 
d="M1176 721l-27 -123h-295l-23 -106h295l-26 -123h-295l-78 -369h-287l78 369h-299l27 123h299l22 106h-299l25 123h287l-263 721h285l174 -520l383 520h279l-547 -721h285z" />
    <glyph glyph-name="brokenbar" unicode="&#xa6;" horiz-adv-x="573" 
d="M686 1493l-170 -797h-164l170 797h164zM451 387l-170 -797h-164l170 797h164z" />
    <glyph glyph-name="section" unicode="&#xa7;" horiz-adv-x="1138" 
d="M1016 55q0 -23 -6.5 -55.5t-23.5 -78t-42.5 -90t-68.5 -89t-97 -78.5t-132.5 -55t-170.5 -21q-166 0 -263 78.5t-97 212.5q0 53 18 121h268q-6 -52 -6 -70q0 -112 133 -112q78 0 131.5 43.5t53.5 107.5q0 40 -17 58.5t-96 72.5l-307 205q-53 35 -82 88t-29 113
q0 117 56 198.5t204 172.5q-77 80 -77 196q0 73 35 146.5t98 130.5q140 131 372 131q165 0 258 -70t93 -194q0 -27 -15 -103h-260q2 14 2 37q0 59 -33 90t-94 31q-66 0 -109.5 -36.5t-43.5 -90.5q0 -32 34.5 -68.5t110.5 -83.5l229 -143q142 -88 142 -232q0 -79 -20 -139.5
t-58.5 -102t-83 -68.5t-104.5 -50q98 -79 98 -203zM528 506l256 -158q72 34 103 70.5t31 87.5q0 37 -20.5 63t-74.5 58l-260 155q-114 -60 -114 -166q0 -34 17.5 -59t61.5 -51z" />
    <glyph glyph-name="dieresis" unicode="&#xa8;" horiz-adv-x="681" 
d="M971 1518l-53 -246h-226l53 246h226zM569 1518l-53 -246h-225l53 246h225z" />
    <glyph glyph-name="copyright" unicode="&#xa9;" horiz-adv-x="1509" 
d="M475 588q0 173 70.5 316.5t193.5 225.5t271 82q142 0 228.5 -71.5t86.5 -190.5q0 -14 -6 -67h-184q0 83 -37 121t-119 38q-75 0 -134 -35.5t-91.5 -85.5t-53.5 -112t-27.5 -106.5t-6.5 -77.5q0 -94 45.5 -143.5t130.5 -49.5q178 0 235 176h189q-43 -161 -167.5 -253.5
t-299.5 -92.5q-151 0 -237.5 87.5t-86.5 238.5zM1085 1522q134 0 251 -47t200 -129t130.5 -197.5t47.5 -247.5q0 -179 -82 -353t-216 -304t-313.5 -209.5t-365.5 -79.5q-178 0 -321 80t-224 221.5t-81 318.5q0 179 82 353.5t215.5 304t312.5 209.5t364 80zM1053 1374
q-147 0 -290.5 -65t-250 -170.5t-172.5 -247t-66 -287.5q0 -217 141.5 -359.5t356.5 -142.5q147 0 290 65t250 171t172.5 248t65.5 288q0 217 -141 358.5t-356 141.5z" />
    <glyph glyph-name="ordfeminine" unicode="&#xaa;" horiz-adv-x="757" 
d="M811 700l-33 -163h-581l34 163h580zM860 838l-4 -21h-188q-9 18 -9 33q0 8 5 33q-56 -50 -107.5 -72.5t-112.5 -22.5q-78 0 -124 43.5t-46 116.5q0 97 68 166t182 86l70 12q93 13 119 28q36 21 37 63q0 51 -91 51q-59 0 -90.5 -20.5t-46.5 -69.5h-162q52 229 330 229
q109 0 171.5 -39t62.5 -108q0 -24 -6 -58l-80 -368q-2 -10 -2 -27q0 -25 24 -55zM705 1083l10 47q-18 -8 -33 -12q-1 0 -25 -4l-20 -2l-62 -12q-58 -9 -90 -38.5t-32 -72.5q0 -61 86 -61q63 0 107 41t59 114z" />
    <glyph glyph-name="guillemotleft" unicode="&#xab;" horiz-adv-x="1138" 
d="M276 446l50 234l407 305l-51 -240l-246 -182l168 -182l-49 -234zM713 446l49 234l407 305l-51 -240l-246 -182l168 -182l-49 -234z" />
    <glyph glyph-name="logicalnot" unicode="&#xac;" horiz-adv-x="1196" 
d="M262 770h1032l-125 -594h-243l73 348h-788z" />
    <glyph glyph-name="softhyphen" unicode="&#xad;" horiz-adv-x="681" 
d="M760 700l-60 -276h-557l60 276h557z" />
    <glyph glyph-name="registered" unicode="&#xae;" horiz-adv-x="1509" 
d="M983 344q0 43 20.5 128t20.5 97q0 72 -109 72h-186l-76 -354h-196l192 905h488q202 0 202 -182q0 -198 -198 -287q43 -20 61.5 -43t18.5 -57q0 -44 -31 -224l-2 -26q0 -27 24 -43l-10 -43h-209q-10 34 -10 57zM973 807q75 0 117.5 32.5t42.5 121.5q0 37 -25.5 52
t-87.5 15h-209l-47 -221h209zM1085 1522q135 0 252 -47t199.5 -129t130 -197.5t47.5 -247.5q0 -179 -82 -353t-215 -304t-312.5 -209.5t-365.5 -79.5q-178 0 -321 80t-224 221.5t-81 318.5q0 144 52 286t145.5 259.5t214 208.5t266.5 142t294 51zM1053 1374q-147 0 -290 -65
t-249.5 -170.5t-172 -247t-65.5 -287.5q0 -217 140.5 -359.5t355.5 -142.5q148 0 291 65t249.5 171t172 248t65.5 288q0 217 -141 358.5t-356 141.5z" />
    <glyph glyph-name="macron" unicode="&#xaf;" horiz-adv-x="681" 
d="M956 1479l-34 -164h-615l35 164h614z" />
    <glyph glyph-name="degree" unicode="&#xb0;" horiz-adv-x="1241" 
d="M801 1405q129 0 220 -90.5t91 -218.5q0 -130 -91 -221t-222 -91q-126 0 -216.5 92t-90.5 220t91 218.5t218 90.5zM803 1276q-75 0 -128.5 -53.5t-53.5 -128.5q0 -72 53 -126.5t125 -54.5q77 0 130.5 53.5t53.5 129.5q0 74 -53.5 127t-126.5 53z" />
    <glyph glyph-name="plusminus" unicode="&#xb1;" horiz-adv-x="1196" 
d="M1290 926l-51 -246h-375l-71 -332h-244l72 332h-373l51 246h373l80 370h243l-80 -370h375zM1145 244l-51 -244h-992l52 244h991z" />
    <glyph glyph-name="twosuperior" unicode="&#xb2;" horiz-adv-x="716" 
d="M936 1255q0 -82 -40 -151.5t-102.5 -118t-126.5 -87.5t-126 -79t-88 -74h376l-34 -163h-627q22 85 66 153t96 111t110.5 79.5t112 66t97 61.5t69.5 76t26 100q0 44 -27.5 69t-78.5 25q-66 0 -105.5 -46.5t-48.5 -135.5h-186q25 160 119 244.5t246 84.5q129 0 200.5 -57
t71.5 -158z" />
    <glyph glyph-name="threesuperior" unicode="&#xb3;" horiz-adv-x="716" 
d="M492 965l26 129q8 -2 21 -2q82 0 130 40t48 109q0 37 -25.5 59.5t-66.5 22.5q-59 0 -90 -34t-50 -120h-178q31 157 115.5 229t236.5 72q125 0 194 -49.5t69 -140.5q0 -141 -146 -231q88 -55 88 -150q0 -152 -105 -248t-272 -96q-128 0 -198 57.5t-70 161.5q0 30 8 74h187
q-4 -16 -4 -37q0 -96 114 -96q62 0 106 44t44 105q0 52 -36.5 75.5t-119.5 25.5h-26z" />
    <glyph glyph-name="acute" unicode="&#xb4;" horiz-adv-x="681" 
d="M973 1550l-324 -307h-143l209 307h258z" />
    <glyph glyph-name="micro" unicode="&#xb5;" horiz-adv-x="1366" 
d="M1071 242l39 -19l33 -155q-2 -1 -17.5 -10t-22 -12t-22 -11.5t-25 -12.5t-25 -10t-27.5 -8.5t-26.5 -5t-27.5 -2.5q-68 0 -107.5 25.5t-49.5 66.5q-59 -53 -136 -83t-153 -30q-19 0 -36.5 1.5t-33 4.5t-27.5 5.5t-24.5 8t-20 8.5t-18 9.5t-14.5 9t-14 9.5t-11 8
l-112 -436h-283l391 1509h283l-170 -659q-8 -31 -8 -66q0 -27 8 -53.5t25.5 -53.5t52 -44t81.5 -17q92 0 165.5 61.5t101.5 172.5l170 659h278l-198 -770q-19 -72 -19 -100z" />
    <glyph glyph-name="paragraph" unicode="&#xb6;" horiz-adv-x="1138" 
d="M248 891q0 74 22.5 155.5t68 161t108 143t150 103t185.5 39.5h619l-31 -150h-90l-369 -1734h-200l368 1734h-127l-368 -1734h-201l199 938q-154 7 -244 100t-90 244z" />
    <glyph glyph-name="periodcentered" unicode="&#xb7;" horiz-adv-x="569" 
d="M553 578l-45 -205h-215l45 205h215z" />
    <glyph glyph-name="cedilla" unicode="&#xb8;" horiz-adv-x="681" 
d="M315 0h103l-84 -127q50 12 88 12q62 0 96.5 -30.5t34.5 -85.5q0 -100 -84.5 -160t-222.5 -60q-69 0 -127.5 13t-145.5 47l62 104q71 -35 114.5 -48t86.5 -13q58 0 98.5 26.5t40.5 63.5q0 31 -25 49.5t-65 18.5q-43 0 -109 -27z" />
    <glyph glyph-name="onesuperior" unicode="&#xb9;" horiz-adv-x="507" 
d="M508 1174h-217l26 124q238 0 312 154h129l-185 -870h-192z" />
    <glyph glyph-name="ordmasculine" unicode="&#xba;" horiz-adv-x="747" 
d="M840 700l-35 -163h-617l35 163h617zM287 1036q0 89 28.5 171t79.5 146t129 102t170 38q126 0 198.5 -65t72.5 -179q0 -127 -50.5 -231t-146 -165.5t-217.5 -61.5t-193 65.5t-71 179.5zM668 1354q-83 0 -143 -85t-60 -204q0 -66 32.5 -105.5t86.5 -39.5q83 0 142.5 85.5
t59.5 202.5q0 66 -32 106t-86 40z" />
    <glyph glyph-name="guillemotright" unicode="&#xbb;" horiz-adv-x="1138" 
d="M668 686l-50 -235l-407 -304l51 240l246 182l-168 183l49 233zM1092 686l-50 -235l-407 -304l51 240l246 182l-168 183l49 233z" />
    <glyph glyph-name="onequarter" unicode="&#xbc;" horiz-adv-x="1779" 
d="M516 1174h-217l27 124q237 0 311 154h129l-184 -870h-193zM1501 1464h174l-1190 -1505h-174zM1804 340l-32 -150h-95l-39 -190h-192l41 190h-363l33 148l445 532h221l-113 -530h94zM1520 340l71 340l-286 -340h215z" />
    <glyph glyph-name="onehalf" unicode="&#xbd;" horiz-adv-x="1779" 
d="M528 1174h-217l27 124q237 0 311 154h129l-184 -870h-193zM1511 1464h175l-1190 -1505h-174zM1874 674q0 -82 -40 -151.5t-102.5 -118t-126.5 -87.5t-126 -79t-88 -74h376l-34 -164h-627q22 85 66 153t96 111t110.5 79.5t112 66t97 61.5t69.5 76t26 100q0 44 -27.5 69
t-78.5 25q-66 0 -105.5 -46.5t-48.5 -135.5h-186q25 160 119 245t246 85q129 0 200.5 -57t71.5 -158z" />
    <glyph glyph-name="threequarters" unicode="&#xbe;" horiz-adv-x="1779" 
d="M506 965l26 129q8 -2 21 -2q82 0 130 40t48 109q0 37 -25.5 59.5t-66.5 22.5q-59 0 -89.5 -34t-49.5 -120h-178q31 157 115.5 229t236.5 72q125 0 193.5 -49.5t68.5 -140.5q0 -142 -145 -231q88 -55 88 -150q0 -152 -105 -248t-272 -96q-128 0 -198.5 57.5t-70.5 161.5
q0 24 9 74h186q-4 -16 -4 -37q0 -96 115 -96q61 0 105 43.5t44 105.5q0 52 -36.5 75.5t-119.5 25.5h-26zM1587 1464h174l-1190 -1505h-174zM1798 340l-33 -150h-94l-39 -190h-192l41 190h-363l33 148l444 532h222l-113 -530h94zM1513 340l72 340l-287 -340h215z" />
    <glyph glyph-name="questiondown" unicode="&#xbf;" horiz-adv-x="1251" 
d="M549 -418q-102 0 -181.5 24.5t-127.5 62t-79.5 87.5t-43 97t-11.5 94q0 85 27.5 162.5t58.5 124.5t88.5 97.5t82 66.5t75.5 46q2 2 3.5 2.5t3.5 2t4 2.5q105 65 134.5 103.5t51.5 139.5h250q-7 -80 -38 -146t-74.5 -111.5t-94 -85t-100 -74.5t-89.5 -71.5t-65 -85
t-25 -106.5q0 -78 52.5 -128t134.5 -50q104 0 176 75t98 210h279q-7 -31 -12 -51t-19 -65t-29 -78t-42 -80t-57 -81t-74.5 -70.5t-95 -60t-118 -38.5t-143.5 -15zM627 807l63 299h307l-63 -299h-307z" />
    <glyph glyph-name="Agrave" unicode="&#xc0;" horiz-adv-x="1478" 
d="M881 1892h243l93 -307h-130zM1090 301h-558l-165 -301h-314l834 1493h354l199 -1493h-314zM1061 557l-72 580l-315 -580h387z" />
    <glyph glyph-name="Aacute" unicode="&#xc1;" horiz-adv-x="1478" 
d="M1415 1905l-323 -308h-144l209 308h258zM1090 301h-558l-165 -301h-314l834 1493h354l199 -1493h-314zM1061 557l-72 580l-315 -580h387z" />
    <glyph glyph-name="Acircumflex" unicode="&#xc2;" horiz-adv-x="1478" 
d="M1047 1917h221l145 -301h-160l-125 199l-210 -199h-156zM1090 301h-558l-165 -301h-314l834 1493h354l199 -1493h-314zM1061 557l-72 580l-315 -580h387z" />
    <glyph glyph-name="Atilde" unicode="&#xc3;" horiz-adv-x="1478" 
d="M1516 1890q-36 -129 -109.5 -189.5t-163.5 -60.5q-52 0 -104 23l-103 51q-64 29 -90 29q-54 0 -104 -98h-111q35 115 99.5 177t148.5 62q39 0 67.5 -7t77.5 -28l103 -43q31 -14 40 -17t27 -3q68 0 111 104h111zM1090 301h-558l-165 -301h-314l834 1493h354l199 -1493
h-314zM1061 557l-72 580l-315 -580h387z" />
    <glyph glyph-name="Adieresis" unicode="&#xc4;" horiz-adv-x="1478" 
d="M1090 301h-558l-165 -301h-314l834 1493h354l199 -1493h-314zM1061 557l-72 580l-315 -580h387zM1462 1886l-53 -246h-225l53 246h225zM1061 1886l-53 -246h-226l54 246h225z" />
    <glyph glyph-name="Aring" unicode="&#xc5;" horiz-adv-x="1478" 
d="M1090 301h-558l-165 -301h-314l834 1493h354l199 -1493h-314zM1061 557l-72 580l-315 -580h387zM1155 1952q64 0 106 -41.5t42 -104.5q0 -87 -70 -155t-160 -68q-64 0 -105.5 41.5t-41.5 104.5q0 88 70 155.5t159 67.5zM1135 1849q-42 0 -75.5 -30t-33.5 -68
q0 -28 19.5 -46.5t50.5 -18.5q41 0 73.5 31t32.5 69q0 28 -19 45.5t-48 17.5z" />
    <glyph glyph-name="AE" unicode="&#xc6;" horiz-adv-x="2048" 
d="M950 311h-448l-174 -311h-326l860 1493h1399l-53 -256h-752l-74 -338h695l-54 -256h-694l-82 -387h791l-56 -256h-1097zM1006 567l143 670h-135l-379 -670h371z" />
    <glyph glyph-name="Ccedilla" unicode="&#xc7;" horiz-adv-x="1478" 
d="M1057 1255q-92 0 -170.5 -32t-132 -83.5t-95.5 -120t-66.5 -136t-41 -137t-22 -119t-5.5 -84.5q0 -328 301 -328q148 0 253 77t149 218h293q-63 -256 -258 -405.5t-465 -151.5l-54 -82q41 14 88 14q62 0 97 -30.5t35 -85.5q0 -100 -85 -160t-225 -60q-67 0 -125 13
t-147 47l61 104q73 -35 116.5 -48t86.5 -13q58 0 98.5 26.5t40.5 63.5q0 31 -25 49.5t-65 18.5q-41 0 -110 -27l112 172q-217 17 -347 160t-130 366q0 214 66.5 405.5t182 330.5t278 220t346.5 81q238 0 385 -119.5t147 -311.5q0 -29 -8 -100h-289q0 127 -63 197.5
t-207 70.5z" />
    <glyph glyph-name="Egrave" unicode="&#xc8;" horiz-adv-x="1366" 
d="M881 1890h243l93 -307h-130zM606 643l-82 -387h809l-55 -256h-1116l317 1493h1082l-56 -256h-774l-72 -338h715l-53 -256h-715z" />
    <glyph glyph-name="Eacute" unicode="&#xc9;" horiz-adv-x="1366" 
d="M1382 1919l-323 -307h-144l209 307h258zM606 643l-82 -387h809l-55 -256h-1116l317 1493h1082l-56 -256h-774l-72 -338h715l-53 -256h-715z" />
    <glyph glyph-name="Ecircumflex" unicode="&#xca;" horiz-adv-x="1366" 
d="M1012 1917h221l145 -301h-159l-125 199l-211 -199h-156zM606 643l-82 -387h809l-55 -256h-1116l317 1493h1082l-56 -256h-774l-72 -338h715l-53 -256h-715z" />
    <glyph glyph-name="Edieresis" unicode="&#xcb;" horiz-adv-x="1366" 
d="M1417 1886l-53 -246h-225l53 246h225zM1016 1886l-53 -246h-226l54 246h225zM606 643l-82 -387h809l-55 -256h-1116l317 1493h1082l-56 -256h-774l-72 -338h715l-53 -256h-715z" />
    <glyph glyph-name="Igrave" unicode="&#xcc;" horiz-adv-x="569" 
d="M418 1896h244l92 -307h-129zM754 1493l-318 -1493h-307l317 1493h308z" />
    <glyph glyph-name="Iacute" unicode="&#xcd;" horiz-adv-x="569" 
d="M999 1919l-323 -307h-144l209 307h258zM754 1493l-318 -1493h-307l317 1493h308z" />
    <glyph glyph-name="Icircumflex" unicode="&#xce;" horiz-adv-x="569" 
d="M590 1917h221l145 -301h-159l-125 199l-211 -199h-156zM754 1493l-318 -1493h-307l317 1493h308z" />
    <glyph glyph-name="Idieresis" unicode="&#xcf;" horiz-adv-x="569" 
d="M997 1886l-53 -246h-225l53 246h225zM596 1886l-53 -246h-226l54 246h225zM754 1493l-318 -1493h-307l317 1493h308z" />
    <glyph glyph-name="Eth" unicode="&#xd0;" horiz-adv-x="1478" 
d="M307 698h-157l34 164h156l135 631h584q278 0 404 -121.5t126 -390.5q0 -181 -60 -362t-169 -332q-113 -155 -254.5 -221t-364.5 -66h-583zM614 698l-94 -442h275q134 0 217 48t149 163q53 91 88 232t35 262q0 276 -280 276h-277l-80 -375h357l-35 -164h-355z" />
    <glyph glyph-name="Ntilde" unicode="&#xd1;" horiz-adv-x="1478" 
d="M1516 1890q-36 -129 -109.5 -189.5t-163.5 -60.5q-52 0 -104 23l-103 51q-64 29 -90 29q-54 0 -104 -98h-111q35 115 99.5 177t148.5 62q39 0 67.5 -7t77.5 -28l103 -43q31 -14 40 -17t27 -3q68 0 111 104h111zM1671 1493l-317 -1493h-303l-394 1071l-227 -1071h-291
l318 1493h307l393 -1055l223 1055h291z" />
    <glyph glyph-name="Ograve" unicode="&#xd2;" horiz-adv-x="1593" 
d="M881 1896h243l93 -307h-130zM1102 1518q281 0 437.5 -154.5t156.5 -431.5q0 -89 -17.5 -183.5t-54.5 -190t-89.5 -184t-126.5 -165.5t-162 -134t-200.5 -89.5t-236.5 -32.5q-274 0 -433 156.5t-159 425.5q0 101 25 210.5t72 220t123 209.5t171 176t223 122t271 45z
M858 215q92 0 170.5 31t132 80t95.5 114.5t66.5 130t41 131t22 113t5.5 80.5q0 169 -87 264.5t-241 95.5q-93 0 -172 -30.5t-133 -79t-97 -113t-68.5 -128.5t-42 -130t-22.5 -113.5t-6 -82.5q0 -167 90.5 -265t245.5 -98z" />
    <glyph glyph-name="Oacute" unicode="&#xd3;" horiz-adv-x="1593" 
d="M1497 1915l-323 -307h-144l209 307h258zM1102 1518q281 0 437.5 -154.5t156.5 -431.5q0 -89 -17.5 -183.5t-54.5 -190t-89.5 -184t-126.5 -165.5t-162 -134t-200.5 -89.5t-236.5 -32.5q-274 0 -433 156.5t-159 425.5q0 101 25 210.5t72 220t123 209.5t171 176t223 122
t271 45zM858 215q92 0 170.5 31t132 80t95.5 114.5t66.5 130t41 131t22 113t5.5 80.5q0 169 -87 264.5t-241 95.5q-93 0 -172 -30.5t-133 -79t-97 -113t-68.5 -128.5t-42 -130t-22.5 -113.5t-6 -82.5q0 -167 90.5 -265t245.5 -98z" />
    <glyph glyph-name="Ocircumflex" unicode="&#xd4;" horiz-adv-x="1593" 
d="M1110 1919h221l146 -301h-160l-125 199l-211 -199h-156zM1102 1518q281 0 437.5 -154.5t156.5 -431.5q0 -89 -17.5 -183.5t-54.5 -190t-89.5 -184t-126.5 -165.5t-162 -134t-200.5 -89.5t-236.5 -32.5q-274 0 -433 156.5t-159 425.5q0 101 25 210.5t72 220t123 209.5
t171 176t223 122t271 45zM858 215q92 0 170.5 31t132 80t95.5 114.5t66.5 130t41 131t22 113t5.5 80.5q0 169 -87 264.5t-241 95.5q-93 0 -172 -30.5t-133 -79t-97 -113t-68.5 -128.5t-42 -130t-22.5 -113.5t-6 -82.5q0 -167 90.5 -265t245.5 -98z" />
    <glyph glyph-name="Otilde" unicode="&#xd5;" horiz-adv-x="1593" 
d="M1102 1518q281 0 437.5 -154.5t156.5 -431.5q0 -89 -17.5 -183.5t-54.5 -190t-89.5 -184t-126.5 -165.5t-162 -134t-200.5 -89.5t-236.5 -32.5q-274 0 -433 156.5t-159 425.5q0 101 25 210.5t72 220t123 209.5t171 176t223 122t271 45zM858 215q92 0 170.5 31t132 80
t95.5 114.5t66.5 130t41 131t22 113t5.5 80.5q0 169 -87 264.5t-241 95.5q-93 0 -172 -30.5t-133 -79t-97 -113t-68.5 -128.5t-42 -130t-22.5 -113.5t-6 -82.5q0 -167 90.5 -265t245.5 -98zM1575 1890q-36 -130 -109 -190t-163 -60q-53 0 -105 23l-102 51q-64 29 -90 29
q-55 0 -105 -98h-110q35 115 99.5 177t147.5 62q39 0 68 -7t78 -28l102 -43q30 -14 40 -17t28 -3q67 0 110 104h111z" />
    <glyph glyph-name="Odieresis" unicode="&#xd6;" horiz-adv-x="1593" 
d="M1102 1518q281 0 437.5 -154.5t156.5 -431.5q0 -89 -17.5 -183.5t-54.5 -190t-89.5 -184t-126.5 -165.5t-162 -134t-200.5 -89.5t-236.5 -32.5q-274 0 -433 156.5t-159 425.5q0 101 25 210.5t72 220t123 209.5t171 176t223 122t271 45zM858 215q92 0 170.5 31t132 80
t95.5 114.5t66.5 130t41 131t22 113t5.5 80.5q0 169 -87 264.5t-241 95.5q-93 0 -172 -30.5t-133 -79t-97 -113t-68.5 -128.5t-42 -130t-22.5 -113.5t-6 -82.5q0 -167 90.5 -265t245.5 -98zM1518 1886l-54 -246h-225l53 246h226zM1116 1886l-53 -246h-225l53 246h225z" />
    <glyph glyph-name="multiply" unicode="&#xd7;" horiz-adv-x="1196" 
d="M1057 909l135 -172l-322 -264l207 -264l-209 -172l-206 264l-318 -262l-135 172l317 262l-207 262l209 174l207 -264z" />
    <glyph glyph-name="Oslash" unicode="&#xd8;" horiz-adv-x="1593" 
d="M371 115l-217 -195l-84 94l227 203q-74 142 -74 322q0 175 68.5 357t187.5 323q255 299 641 299q291 0 443 -168l206 184l86 -92l-221 -199q70 -143 70 -317t-68 -353.5t-188 -320.5q-255 -299 -639 -299q-291 0 -438 162zM1389 1024l-787 -702q90 -107 260 -107
q236 0 389 215q69 94 108.5 219t39.5 250q0 69 -10 125zM1067 1255q-92 0 -171 -30.5t-132.5 -79.5t-96.5 -113.5t-68.5 -129.5t-42 -131t-22.5 -113.5t-6 -82.5q0 -66 13 -139l790 705q-91 114 -264 114z" />
    <glyph glyph-name="Ugrave" unicode="&#xd9;" horiz-adv-x="1478" 
d="M881 1894h243l93 -307h-130zM1350 1493h307l-215 -1012q-24 -113 -75.5 -204t-117.5 -150.5t-149.5 -99.5t-170 -57t-179.5 -17q-232 0 -369 105.5t-137 283.5q0 73 22 180l207 971h307l-215 -1012q-10 -55 -10 -92q0 -82 66 -128t186 -46q140 0 219.5 64t108.5 202z" />
    <glyph glyph-name="Uacute" unicode="&#xda;" horiz-adv-x="1478" 
d="M1417 1919l-323 -307h-144l209 307h258zM1350 1493h307l-215 -1012q-24 -113 -75.5 -204t-117.5 -150.5t-149.5 -99.5t-170 -57t-179.5 -17q-232 0 -369 105.5t-137 283.5q0 73 22 180l207 971h307l-215 -1012q-10 -55 -10 -92q0 -82 66 -128t186 -46q140 0 219.5 64
t108.5 202z" />
    <glyph glyph-name="Ucircumflex" unicode="&#xdb;" horiz-adv-x="1478" 
d="M1057 1917h221l145 -301h-159l-125 199l-211 -199h-156zM1350 1493h307l-215 -1012q-24 -113 -75.5 -204t-117.5 -150.5t-149.5 -99.5t-170 -57t-179.5 -17q-232 0 -369 105.5t-137 283.5q0 73 22 180l207 971h307l-215 -1012q-10 -55 -10 -92q0 -82 66 -128t186 -46
q140 0 219.5 64t108.5 202z" />
    <glyph glyph-name="Udieresis" unicode="&#xdc;" horiz-adv-x="1478" 
d="M1350 1493h307l-215 -1012q-24 -113 -75.5 -204t-117.5 -150.5t-149.5 -99.5t-170 -57t-179.5 -17q-232 0 -369 105.5t-137 283.5q0 73 22 180l207 971h307l-215 -1012q-10 -55 -10 -92q0 -82 66 -128t186 -46q140 0 219.5 64t108.5 202zM1462 1886l-53 -246h-225l53 246
h225zM1061 1886l-53 -246h-226l54 246h225z" />
    <glyph glyph-name="Yacute" unicode="&#xdd;" horiz-adv-x="1366" 
d="M1370 1919l-323 -307h-144l209 307h258zM977 553l-119 -553h-307l119 553l-297 940h342l168 -645l424 645h342z" />
    <glyph glyph-name="Thorn" unicode="&#xde;" horiz-adv-x="1366" 
d="M1053 1247q99 0 176 -23t122.5 -58.5t75 -83t40 -91.5t10.5 -90q0 -118 -49 -239t-132 -209t-175 -127t-214 -39h-383l-61 -287h-307l317 1493h307l-53 -246h326zM891 543q65 0 115.5 18.5t80.5 47.5t50 68t27 76t7 76q0 72 -50.5 117t-133.5 45h-313l-96 -448h313z" />
    <glyph glyph-name="germandbls" unicode="&#xdf;" horiz-adv-x="1251" 
d="M653 197q159 3 251.5 90.5t92.5 226.5q0 201 -231 201h-31l41 194q121 0 196 61.5t75 159.5q0 63 -49 98.5t-134 35.5q-172 0 -207 -164l-233 -1100h-287l244 1143q34 160 182 255t363 95q187 0 300 -83t113 -218q0 -120 -67.5 -215t-181.5 -135q95 -22 147.5 -94
t52.5 -181q0 -31 -8 -75.5t-27.5 -103.5t-48 -118t-75 -116.5t-104 -101.5t-138.5 -71.5t-174 -27.5q-48 0 -140 14l50 230h28z" />
    <glyph glyph-name="agrave" unicode="&#xe0;" horiz-adv-x="1138" 
d="M555 1550h244l92 -307h-129zM791 1124q95 0 167.5 -16.5t114 -42t68 -60t35 -65t8.5 -63.5t-13 -93l-129 -614q-6 -32 -6 -43q0 -43 43 -92l-8 -35h-313q-15 34 -15 55q0 20 7 56q-93 -84 -173 -121t-169 -37q-137 0 -221.5 74t-84.5 194q0 31 8.5 70.5t36.5 95t71 103
t120.5 89t177.5 58.5l119 18q7 1 31 4t34.5 4.5t33.5 6t35 8t32 10.5t30.5 14t24 18t20.5 23t12 28.5t5 35.5q0 46 -36 67t-114 21q-99 0 -151 -35t-78 -119h-268q43 200 173.5 291.5t371.5 91.5zM819 444l17 78q-11 -6 -17 -9t-15 -6t-13.5 -4t-21.5 -3.5t-30 -5.5
l-135 -23q-100 -17 -154.5 -65.5t-54.5 -120.5q0 -103 150 -103q104 0 175 68t99 194z" />
    <glyph glyph-name="aacute" unicode="&#xe1;" horiz-adv-x="1138" 
d="M1204 1552l-323 -307h-144l209 307h258zM791 1124q95 0 167.5 -16.5t114 -42t68 -60t35 -65t8.5 -63.5t-13 -93l-129 -614q-6 -32 -6 -43q0 -43 43 -92l-8 -35h-313q-15 34 -15 55q0 20 7 56q-93 -84 -173 -121t-169 -37q-137 0 -221.5 74t-84.5 194q0 31 8.5 70.5
t36.5 95t71 103t120.5 89t177.5 58.5l119 18q7 1 31 4t34.5 4.5t33.5 6t35 8t32 10.5t30.5 14t24 18t20.5 23t12 28.5t5 35.5q0 46 -36 67t-114 21q-99 0 -151 -35t-78 -119h-268q43 200 173.5 291.5t371.5 91.5zM819 444l17 78q-11 -6 -17 -9t-15 -6t-13.5 -4t-21.5 -3.5
t-30 -5.5l-135 -23q-100 -17 -154.5 -65.5t-54.5 -120.5q0 -103 150 -103q104 0 175 68t99 194z" />
    <glyph glyph-name="acircumflex" unicode="&#xe2;" horiz-adv-x="1138" 
d="M791 1548h221l145 -301h-160l-125 199l-210 -199h-156zM791 1124q95 0 167.5 -16.5t114 -42t68 -60t35 -65t8.5 -63.5t-13 -93l-129 -614q-6 -32 -6 -43q0 -43 43 -92l-8 -35h-313q-15 34 -15 55q0 20 7 56q-93 -84 -173 -121t-169 -37q-137 0 -221.5 74t-84.5 194
q0 31 8.5 70.5t36.5 95t71 103t120.5 89t177.5 58.5l119 18q7 1 31 4t34.5 4.5t33.5 6t35 8t32 10.5t30.5 14t24 18t20.5 23t12 28.5t5 35.5q0 46 -36 67t-114 21q-99 0 -151 -35t-78 -119h-268q43 200 173.5 291.5t371.5 91.5zM819 444l17 78q-11 -6 -17 -9t-15 -6
t-13.5 -4t-21.5 -3.5t-30 -5.5l-135 -23q-100 -17 -154.5 -65.5t-54.5 -120.5q0 -103 150 -103q104 0 175 68t99 194z" />
    <glyph glyph-name="atilde" unicode="&#xe3;" horiz-adv-x="1138" 
d="M1237 1497q-36 -130 -109 -190t-163 -60q-53 0 -105 23l-102 51q-64 29 -90 29q-54 0 -105 -99h-110q35 115 99.5 177.5t147.5 62.5q39 0 68 -7t78 -28l102 -43q30 -14 40 -17t28 -3q67 0 110 104h111zM791 1124q95 0 167.5 -16.5t114 -42t68 -60t35 -65t8.5 -63.5
t-13 -93l-129 -614q-6 -32 -6 -43q0 -43 43 -92l-8 -35h-313q-15 34 -15 55q0 20 7 56q-93 -84 -173 -121t-169 -37q-137 0 -221.5 74t-84.5 194q0 31 8.5 70.5t36.5 95t71 103t120.5 89t177.5 58.5l119 18q7 1 31 4t34.5 4.5t33.5 6t35 8t32 10.5t30.5 14t24 18t20.5 23
t12 28.5t5 35.5q0 46 -36 67t-114 21q-99 0 -151 -35t-78 -119h-268q43 200 173.5 291.5t371.5 91.5zM819 444l17 78q-11 -6 -17 -9t-15 -6t-13.5 -4t-21.5 -3.5t-30 -5.5l-135 -23q-100 -17 -154.5 -65.5t-54.5 -120.5q0 -103 150 -103q104 0 175 68t99 194z" />
    <glyph glyph-name="adieresis" unicode="&#xe4;" horiz-adv-x="1138" 
d="M1204 1513l-53 -245h-225l53 245h225zM803 1513l-53 -245h-226l54 245h225zM791 1124q95 0 167.5 -16.5t114 -42t68 -60t35 -65t8.5 -63.5t-13 -93l-129 -614q-6 -32 -6 -43q0 -43 43 -92l-8 -35h-313q-15 34 -15 55q0 20 7 56q-93 -84 -173 -121t-169 -37
q-137 0 -221.5 74t-84.5 194q0 31 8.5 70.5t36.5 95t71 103t120.5 89t177.5 58.5l119 18q7 1 31 4t34.5 4.5t33.5 6t35 8t32 10.5t30.5 14t24 18t20.5 23t12 28.5t5 35.5q0 46 -36 67t-114 21q-99 0 -151 -35t-78 -119h-268q43 200 173.5 291.5t371.5 91.5zM819 444l17 78
q-11 -6 -17 -9t-15 -6t-13.5 -4t-21.5 -3.5t-30 -5.5l-135 -23q-100 -17 -154.5 -65.5t-54.5 -120.5q0 -103 150 -103q104 0 175 68t99 194z" />
    <glyph glyph-name="aring" unicode="&#xe5;" horiz-adv-x="1138" 
d="M903 1585q64 0 106 -41t42 -104q0 -87 -70 -155t-160 -68q-64 0 -105.5 41t-41.5 104q0 88 70 155.5t159 67.5zM883 1483q-41 0 -75 -30.5t-34 -68.5q0 -28 19.5 -46.5t50.5 -18.5q41 0 73.5 31t32.5 69q0 28 -19 46t-48 18zM791 1124q95 0 167.5 -16.5t114 -42t68 -60
t35 -65t8.5 -63.5t-13 -93l-129 -614q-6 -32 -6 -43q0 -43 43 -92l-8 -35h-313q-15 34 -15 55q0 20 7 56q-93 -84 -173 -121t-169 -37q-137 0 -221.5 74t-84.5 194q0 31 8.5 70.5t36.5 95t71 103t120.5 89t177.5 58.5l119 18q7 1 31 4t34.5 4.5t33.5 6t35 8t32 10.5t30.5 14
t24 18t20.5 23t12 28.5t5 35.5q0 46 -36 67t-114 21q-99 0 -151 -35t-78 -119h-268q43 200 173.5 291.5t371.5 91.5zM819 444l17 78q-11 -6 -17 -9t-15 -6t-13.5 -4t-21.5 -3.5t-30 -5.5l-135 -23q-100 -17 -154.5 -65.5t-54.5 -120.5q0 -103 150 -103q104 0 175 68t99 194z
" />
    <glyph glyph-name="ae" unicode="&#xe6;" horiz-adv-x="1826" 
d="M1470 1124q195 0 311.5 -115.5t116.5 -289.5q0 -124 -36 -256h-742q-14 -62 -14 -105q0 -78 54.5 -127t142.5 -49q75 0 138.5 35t94.5 94h283q-82 -164 -238 -261t-340 -97q-135 0 -231.5 53.5t-139.5 151.5q-107 -115 -204 -160t-238 -45q-149 0 -233 70t-84 194
q0 32 6 68.5t31.5 94t67 105.5t121.5 91t187 61l117 18q7 1 31.5 4t35 4.5t34 6t35.5 8t32 10.5t30.5 14t24 18t20.5 23t12 28.5t5 35.5q0 46 -35.5 67t-113.5 21q-99 0 -151.5 -35t-78.5 -119h-268q20 97 49 155.5t80 102.5q140 125 420 125q233 0 330 -100
q149 100 337 100zM827 442l17 78q-28 -14 -53 -20q-4 0 -18.5 -2.5t-24.5 -3.5l-136 -23q-100 -17 -154.5 -65.5t-54.5 -120.5q0 -103 146 -103q107 0 178.5 67t99.5 193zM1606 653v56q0 89 -45.5 137.5t-128.5 48.5q-99 0 -168 -62t-101 -180h443z" />
    <glyph glyph-name="ccedilla" unicode="&#xe7;" horiz-adv-x="1138" 
d="M1149 383q-30 -95 -79.5 -171.5t-105 -123.5t-119.5 -78.5t-120 -44t-109 -12.5h-26l-53 -80q47 12 88 12q62 0 96.5 -30.5t34.5 -85.5q0 -100 -85 -160t-225 -60q-67 0 -126 13t-146 47l62 106q71 -36 114.5 -49.5t87.5 -13.5q58 0 99 26.5t41 63.5q0 31 -25.5 49.5
t-65.5 18.5q-41 0 -110 -27l117 178q-90 17 -156 57t-99.5 83t-53 97.5t-23.5 88t-4 67.5q0 145 57.5 307t146.5 269q164 194 453 194q186 0 297 -98.5t111 -245.5q0 -14 -9 -88h-274q-1 40 -3.5 66t-12.5 54.5t-27.5 45t-49 27t-75.5 10.5q-85 0 -144 -41.5t-102 -132.5
q-75 -150 -75 -328q0 -211 182 -211q83 0 138.5 46t102.5 155h275z" />
    <glyph glyph-name="egrave" unicode="&#xe8;" horiz-adv-x="1138" 
d="M555 1550h244l92 -307h-129zM776 1124q195 0 314.5 -112.5t119.5 -292.5q0 -124 -36 -256h-744q-6 -57 -6 -92q0 -85 53 -137t141 -52q74 0 136.5 35.5t93.5 93.5h282q-85 -170 -233 -264t-334 -94q-192 0 -312 118t-120 308q0 41 6.5 93.5t25.5 125.5t48.5 143.5
t80.5 141t115.5 123t160 85.5t208.5 33zM741 895q-205 0 -274 -242h451q0 45 -2.5 75.5t-12.5 65t-28.5 54.5t-52 33.5t-81.5 13.5z" />
    <glyph glyph-name="eacute" unicode="&#xe9;" horiz-adv-x="1138" 
d="M1153 1554l-324 -307h-143l209 307h258zM776 1124q195 0 314.5 -112.5t119.5 -292.5q0 -124 -36 -256h-744q-6 -57 -6 -92q0 -85 53 -137t141 -52q74 0 136.5 35.5t93.5 93.5h282q-85 -170 -233 -264t-334 -94q-192 0 -312 118t-120 308q0 41 6.5 93.5t25.5 125.5
t48.5 143.5t80.5 141t115.5 123t160 85.5t208.5 33zM741 895q-205 0 -274 -242h451q0 45 -2.5 75.5t-12.5 65t-28.5 54.5t-52 33.5t-81.5 13.5z" />
    <glyph glyph-name="ecircumflex" unicode="&#xea;" horiz-adv-x="1138" 
d="M770 1550h221l146 -301h-160l-125 199l-211 -199h-156zM776 1124q195 0 314.5 -112.5t119.5 -292.5q0 -124 -36 -256h-744q-6 -57 -6 -92q0 -85 53 -137t141 -52q74 0 136.5 35.5t93.5 93.5h282q-85 -170 -233 -264t-334 -94q-192 0 -312 118t-120 308q0 41 6.5 93.5
t25.5 125.5t48.5 143.5t80.5 141t115.5 123t160 85.5t208.5 33zM741 895q-205 0 -274 -242h451q0 45 -2.5 75.5t-12.5 65t-28.5 54.5t-52 33.5t-81.5 13.5z" />
    <glyph glyph-name="edieresis" unicode="&#xeb;" horiz-adv-x="1138" 
d="M1190 1513l-53 -245h-226l54 245h225zM788 1513l-53 -245h-225l53 245h225zM776 1124q195 0 314.5 -112.5t119.5 -292.5q0 -124 -36 -256h-744q-6 -57 -6 -92q0 -85 53 -137t141 -52q74 0 136.5 35.5t93.5 93.5h282q-85 -170 -233 -264t-334 -94q-192 0 -312 118
t-120 308q0 41 6.5 93.5t25.5 125.5t48.5 143.5t80.5 141t115.5 123t160 85.5t208.5 33zM741 895q-205 0 -274 -242h451q0 45 -2.5 75.5t-12.5 65t-28.5 54.5t-52 33.5t-81.5 13.5z" />
    <glyph glyph-name="igrave" unicode="&#xec;" horiz-adv-x="569" 
d="M330 1550h243l93 -307h-129zM659 1106l-235 -1106h-287l236 1106h286z" />
    <glyph glyph-name="iacute" unicode="&#xed;" horiz-adv-x="569" 
d="M918 1550l-324 -307h-143l208 307h259zM659 1106l-235 -1106h-287l236 1106h286z" />
    <glyph glyph-name="icircumflex" unicode="&#xee;" horiz-adv-x="569" 
d="M506 1548h221l145 -301h-159l-125 199l-211 -199h-156zM659 1106l-235 -1106h-287l236 1106h286z" />
    <glyph glyph-name="idieresis" unicode="&#xef;" horiz-adv-x="569" 
d="M920 1516l-54 -246h-225l53 246h226zM518 1516l-53 -246h-225l53 246h225zM659 1106l-235 -1106h-287l236 1106h286z" />
    <glyph glyph-name="eth" unicode="&#xf0;" horiz-adv-x="1251" 
d="M170 365q0 38 6 88.5t23 121t43 138.5t71 136.5t102.5 120t141.5 83.5t184 32q50 0 88.5 -11.5t96.5 -43.5q-76 130 -199 217l-199 -92l-84 88l181 84q-51 35 -144 94l144 103q105 -46 194 -105l213 92l88 -88l-190 -84q199 -148 282.5 -291.5t83.5 -340.5
q0 -156 -48.5 -294.5t-135 -240t-213 -160.5t-274.5 -59q-214 0 -334.5 109t-120.5 303zM1006 668q0 61 -20.5 105.5t-54 67t-67.5 32.5t-71 10q-78 0 -139.5 -38.5t-95.5 -93.5t-56.5 -123t-29.5 -118t-7 -88q0 -72 20 -122.5t53 -74.5t64.5 -33.5t65.5 -9.5
q145 0 241.5 138.5t96.5 347.5z" />
    <glyph glyph-name="ntilde" unicode="&#xf1;" horiz-adv-x="1251" 
d="M1309 1497q-36 -129 -109.5 -189.5t-163.5 -60.5q-52 0 -104 23l-103 51q-64 29 -90 29q-53 0 -104 -99h-111q35 115 100 177.5t148 62.5q39 0 68 -7t78 -28l102 -43q31 -14 40 -17t27 -3q68 0 111 104h111zM365 1106h286l-37 -168q83 98 171 142t202 44q137 0 219 -73.5
t82 -196.5q0 -54 -12 -113l-158 -741h-287l138 641q12 67 12 100q0 74 -39.5 114t-112.5 40q-103 0 -177.5 -73t-102.5 -199l-133 -623h-287z" />
    <glyph glyph-name="ograve" unicode="&#xf2;" horiz-adv-x="1251" 
d="M635 1550h244l92 -307h-129zM168 362q0 207 82 379.5t238.5 277.5t357.5 105q211 0 331.5 -109t120.5 -300q0 -157 -49.5 -296.5t-137 -242.5t-217 -163t-282.5 -60q-203 0 -323.5 111t-120.5 298zM664 182q65 0 120 27t91 71t62.5 95.5t41 107t21 98t6.5 74.5
q0 109 -55.5 174.5t-149.5 65.5q-138 0 -239 -140.5t-101 -334.5q0 -109 55.5 -173.5t147.5 -64.5z" />
    <glyph glyph-name="oacute" unicode="&#xf3;" horiz-adv-x="1251" 
d="M1229 1552l-324 -307h-143l209 307h258zM168 362q0 207 82 379.5t238.5 277.5t357.5 105q211 0 331.5 -109t120.5 -300q0 -157 -49.5 -296.5t-137 -242.5t-217 -163t-282.5 -60q-203 0 -323.5 111t-120.5 298zM664 182q65 0 120 27t91 71t62.5 95.5t41 107t21 98
t6.5 74.5q0 109 -55.5 174.5t-149.5 65.5q-138 0 -239 -140.5t-101 -334.5q0 -109 55.5 -173.5t147.5 -64.5z" />
    <glyph glyph-name="ocircumflex" unicode="&#xf4;" horiz-adv-x="1251" 
d="M852 1550h221l146 -301h-160l-125 199l-211 -199h-156zM168 362q0 207 82 379.5t238.5 277.5t357.5 105q211 0 331.5 -109t120.5 -300q0 -157 -49.5 -296.5t-137 -242.5t-217 -163t-282.5 -60q-203 0 -323.5 111t-120.5 298zM664 182q65 0 120 27t91 71t62.5 95.5t41 107
t21 98t6.5 74.5q0 109 -55.5 174.5t-149.5 65.5q-138 0 -239 -140.5t-101 -334.5q0 -109 55.5 -173.5t147.5 -64.5z" />
    <glyph glyph-name="otilde" unicode="&#xf5;" horiz-adv-x="1251" 
d="M1292 1497q-36 -130 -109 -190t-163 -60q-53 0 -105 23l-102 51q-64 29 -90 29q-54 0 -105 -99h-110q35 115 100 177.5t148 62.5q39 0 67.5 -7t77.5 -28l103 -43q31 -14 40 -17t27 -3q68 0 111 104h110zM168 362q0 207 82 379.5t238.5 277.5t357.5 105q211 0 331.5 -109
t120.5 -300q0 -157 -49.5 -296.5t-137 -242.5t-217 -163t-282.5 -60q-203 0 -323.5 111t-120.5 298zM664 182q65 0 120 27t91 71t62.5 95.5t41 107t21 98t6.5 74.5q0 109 -55.5 174.5t-149.5 65.5q-138 0 -239 -140.5t-101 -334.5q0 -109 55.5 -173.5t147.5 -64.5z" />
    <glyph glyph-name="odieresis" unicode="&#xf6;" horiz-adv-x="1251" 
d="M1251 1513l-53 -245h-225l53 245h225zM850 1513l-53 -245h-226l54 245h225zM168 362q0 207 82 379.5t238.5 277.5t357.5 105q211 0 331.5 -109t120.5 -300q0 -157 -49.5 -296.5t-137 -242.5t-217 -163t-282.5 -60q-203 0 -323.5 111t-120.5 298zM664 182q65 0 120 27
t91 71t62.5 95.5t41 107t21 98t6.5 74.5q0 109 -55.5 174.5t-149.5 65.5q-138 0 -239 -140.5t-101 -334.5q0 -109 55.5 -173.5t147.5 -64.5z" />
    <glyph glyph-name="divide" unicode="&#xf7;" horiz-adv-x="1196" 
d="M1241 598l-51 -246h-1032l51 246h1032zM651 254q45 0 74 -29t29 -75q0 -57 -48 -103.5t-108 -46.5q-44 0 -73 28.5t-29 71.5q0 60 47.5 107t107.5 47zM799 946q44 0 73 -29t29 -75q0 -57 -48.5 -103.5t-109.5 -46.5q-43 0 -71.5 29t-28.5 72q0 59 48 106t108 47z" />
    <glyph glyph-name="oslash" unicode="&#xf8;" horiz-adv-x="1251" 
d="M1303 705q0 -148 -49 -284t-136 -240t-216 -166t-279 -62q-220 0 -347 121l-182 -152l-69 82l190 160q-43 90 -43 201q0 147 47.5 283.5t133 242.5t216 169.5t285.5 63.5q231 0 354 -129l174 146l70 -84l-186 -156q37 -87 37 -196zM672 182q65 0 119.5 27t90 71.5
t62 96.5t41 107t21 98t6.5 75q0 17 -2 31l-506 -424q26 -38 71 -60t97 -22zM809 895q-56 0 -105 -20.5t-83 -53.5t-62 -76.5t-45 -88t-28.5 -90t-16 -80t-4.5 -60.5q0 -28 2 -51l512 428q-58 92 -170 92z" />
    <glyph glyph-name="ugrave" unicode="&#xf9;" horiz-adv-x="1251" 
d="M698 1550h244l92 -307h-129zM1108 0h-287l31 139q-83 -98 -171 -142t-202 -44q-135 0 -217 73.5t-82 196.5q0 50 13 113l163 770h287l-143 -670q-13 -76 -13 -100q0 -75 40 -114.5t116 -39.5q100 0 174.5 74t100.5 199l139 651h286z" />
    <glyph glyph-name="uacute" unicode="&#xfa;" horiz-adv-x="1251" 
d="M1206 1552l-323 -307h-144l209 307h258zM1108 0h-287l31 139q-83 -98 -171 -142t-202 -44q-135 0 -217 73.5t-82 196.5q0 50 13 113l163 770h287l-143 -670q-13 -76 -13 -100q0 -75 40 -114.5t116 -39.5q100 0 174.5 74t100.5 199l139 651h286z" />
    <glyph glyph-name="ucircumflex" unicode="&#xfb;" horiz-adv-x="1251" 
d="M829 1550h222l145 -301h-160l-125 199l-211 -199h-155zM1108 0h-287l31 139q-83 -98 -171 -142t-202 -44q-135 0 -217 73.5t-82 196.5q0 50 13 113l163 770h287l-143 -670q-13 -76 -13 -100q0 -75 40 -114.5t116 -39.5q100 0 174.5 74t100.5 199l139 651h286z" />
    <glyph glyph-name="udieresis" unicode="&#xfc;" horiz-adv-x="1251" 
d="M1251 1513l-53 -245h-225l53 245h225zM850 1513l-53 -245h-226l54 245h225zM1108 0h-287l31 139q-83 -98 -171 -142t-202 -44q-135 0 -217 73.5t-82 196.5q0 50 13 113l163 770h287l-143 -670q-13 -76 -13 -100q0 -75 40 -114.5t116 -39.5q100 0 174.5 74t100.5 199
l139 651h286z" />
    <glyph glyph-name="yacute" unicode="&#xfd;" horiz-adv-x="1138" 
d="M1159 1550l-323 -307h-144l209 307h258zM1042 1106h295l-733 -1307q-38 -71 -54 -93q-115 -155 -384 -155q-49 0 -90 9l47 223q23 -4 57 -4q106 0 169 51.5t63 138.5q-27 218 -83.5 609t-74.5 528h315l74 -805z" />
    <glyph glyph-name="thorn" unicode="&#xfe;" horiz-adv-x="1251" 
d="M721 1493l-117 -551q141 182 346 182q161 0 258 -115t97 -307q0 -152 -47.5 -290.5t-128 -239t-191.5 -160t-233 -59.5q-210 0 -273 178l-123 -577h-286l411 1939h287zM831 895q-86 0 -162 -66.5t-120.5 -177.5t-44.5 -237q0 -105 49 -168.5t131 -63.5q86 0 162 65.5
t121 176.5t45 238q0 106 -49.5 169.5t-131.5 63.5z" />
    <glyph glyph-name="ydieresis" unicode="&#xff;" horiz-adv-x="1138" 
d="M1204 1518l-53 -246h-225l53 246h225zM803 1518l-53 -246h-226l54 246h225zM1042 1106h295l-733 -1307q-38 -71 -54 -93q-115 -155 -384 -155q-49 0 -90 9l47 223q23 -4 57 -4q106 0 169 51.5t63 138.5q-27 218 -83.5 609t-74.5 528h315l74 -805z" />
    <glyph glyph-name="Amacron" unicode="&#x100;" horiz-adv-x="1478" 
d="M1409 1804l-35 -164h-614l35 164h614zM1090 301h-558l-165 -301h-314l834 1493h354l199 -1493h-314zM1061 557l-72 580l-315 -580h387z" />
    <glyph glyph-name="amacron" unicode="&#x101;" horiz-adv-x="1138" 
d="M1182 1479l-35 -164h-615l35 164h615zM791 1124q95 0 167.5 -16.5t114 -42t68 -60t35 -65t8.5 -63.5t-13 -93l-129 -614q-6 -32 -6 -43q0 -43 43 -92l-8 -35h-313q-15 34 -15 55q0 20 7 56q-93 -84 -173 -121t-169 -37q-137 0 -221.5 74t-84.5 194q0 31 8.5 70.5t36.5 95
t71 103t120.5 89t177.5 58.5l119 18q7 1 31 4t34.5 4.5t33.5 6t35 8t32 10.5t30.5 14t24 18t20.5 23t12 28.5t5 35.5q0 46 -36 67t-114 21q-99 0 -151 -35t-78 -119h-268q43 200 173.5 291.5t371.5 91.5zM819 444l17 78q-11 -6 -17 -9t-15 -6t-13.5 -4t-21.5 -3.5t-30 -5.5
l-135 -23q-100 -17 -154.5 -65.5t-54.5 -120.5q0 -103 150 -103q104 0 175 68t99 194z" />
    <glyph glyph-name="Abreve" unicode="&#x102;" horiz-adv-x="1478" 
d="M1325 1898h86q-22 -126 -115.5 -209t-214.5 -83q-97 0 -157 59t-60 154q0 31 13 79h86v-16q0 -56 39.5 -86.5t111.5 -30.5q158 0 211 133zM1090 301h-558l-165 -301h-314l834 1493h354l199 -1493h-314zM1061 557l-72 580l-315 -580h387z" />
    <glyph glyph-name="abreve" unicode="&#x103;" horiz-adv-x="1138" 
d="M1114 1538h86q-22 -126 -115.5 -209.5t-214.5 -83.5q-97 0 -157 59t-60 154q0 32 13 80h86v-16q0 -56 39.5 -86.5t111.5 -30.5q158 0 211 133zM791 1124q95 0 167.5 -16.5t114 -42t68 -60t35 -65t8.5 -63.5t-13 -93l-129 -614q-6 -32 -6 -43q0 -43 43 -92l-8 -35h-313
q-15 34 -15 55q0 20 7 56q-93 -84 -173 -121t-169 -37q-137 0 -221.5 74t-84.5 194q0 31 8.5 70.5t36.5 95t71 103t120.5 89t177.5 58.5l119 18q7 1 31 4t34.5 4.5t33.5 6t35 8t32 10.5t30.5 14t24 18t20.5 23t12 28.5t5 35.5q0 46 -36 67t-114 21q-99 0 -151 -35t-78 -119
h-268q43 200 173.5 291.5t371.5 91.5zM819 444l17 78q-11 -6 -17 -9t-15 -6t-13.5 -4t-21.5 -3.5t-30 -5.5l-135 -23q-100 -17 -154.5 -65.5t-54.5 -120.5q0 -103 150 -103q104 0 175 68t99 194z" />
    <glyph glyph-name="Aogonek" unicode="&#x104;" horiz-adv-x="1478" 
d="M961 -317q0 55 25.5 104t60 82t83 62t81.5 43t69 26h-154l-36 301h-558l-165 -301h-314l834 1493h354l199 -1493q-120 -49 -197.5 -130.5t-77.5 -156.5q0 -46 27 -67t86 -21q77 0 147 23l-22 -107q-81 -18 -164 -18q-133 0 -205.5 41.5t-72.5 118.5zM1061 557l-72 580
l-315 -580h387z" />
    <glyph glyph-name="aogonek" unicode="&#x105;" horiz-adv-x="1138" 
d="M791 1124q95 0 167.5 -16.5t114 -42t68 -60t35 -65t8.5 -63.5t-13 -93l-129 -614q-6 -24 -6 -43q0 -43 43 -92l-8 -35q-268 -143 -268 -287q0 -88 104 -88q86 0 156 23l-21 -107q-85 -18 -165 -18q-135 0 -206 41.5t-71 120.5q0 95 81 175t239 140h-162q-15 34 -15 55
q0 20 7 56q-93 -84 -173 -121t-169 -37q-137 0 -221.5 74t-84.5 194q0 31 8.5 70.5t36.5 95t71 103t120.5 89t177.5 58.5l119 18q7 1 31 4t34.5 4.5t33.5 6t35 8t32 10.5t30.5 14t24 18t20.5 23t12 28.5t5 35.5q0 46 -36 67t-114 21q-99 0 -151 -35t-78 -119h-268
q43 200 173.5 291.5t371.5 91.5zM819 444l17 78q-11 -6 -17 -9t-15 -6t-13.5 -4t-21.5 -3.5t-30 -5.5l-135 -23q-100 -17 -154.5 -65.5t-54.5 -120.5q0 -103 150 -103q104 0 175 68t99 194z" />
    <glyph glyph-name="Cacute" unicode="&#x106;" horiz-adv-x="1478" 
d="M1452 1919l-324 -307h-143l209 307h258zM219 481q0 214 66.5 405.5t182 330.5t278 220t346.5 81q238 0 385 -118.5t147 -309.5q0 -27 -8 -103h-289q0 127 -63 197.5t-207 70.5q-93 0 -172 -32.5t-132 -84t-95.5 -120t-66.5 -136t-40 -137.5t-21.5 -119t-5.5 -85
q0 -161 76 -243.5t225 -82.5q148 0 253 77t149 218h293q-67 -262 -262.5 -409.5t-475.5 -147.5q-262 0 -412.5 141t-150.5 387z" />
    <glyph glyph-name="cacute" unicode="&#x107;" horiz-adv-x="1138" 
d="M815 1124q186 0 297 -98.5t111 -245.5q0 -14 -9 -88h-274q-1 40 -3.5 66t-12.5 54.5t-27.5 45t-49 27t-75.5 10.5q-73 0 -131.5 -38t-93 -95t-57 -128t-31 -130.5t-8.5 -110.5q0 -211 182 -211q83 0 138.5 46t102.5 155h275q-64 -205 -208.5 -317.5t-342.5 -112.5
q-101 0 -180.5 26.5t-127 67.5t-78.5 96t-42.5 106t-11.5 103q0 45 7 101t27 132t50.5 148.5t82.5 144.5t118 125.5t162 87t210 33.5zM1204 1552l-323 -307h-144l209 307h258z" />
    <glyph glyph-name="Ccircumflex" unicode="&#x108;" horiz-adv-x="1478" 
d="M1075 1927h221l146 -301h-160l-125 199l-211 -199h-155zM219 481q0 214 66.5 405.5t182 330.5t278 220t346.5 81q238 0 385 -118.5t147 -309.5q0 -27 -8 -103h-289q0 127 -63 197.5t-207 70.5q-93 0 -172 -32.5t-132 -84t-95.5 -120t-66.5 -136t-40 -137.5t-21.5 -119
t-5.5 -85q0 -161 76 -243.5t225 -82.5q148 0 253 77t149 218h293q-67 -262 -262.5 -409.5t-475.5 -147.5q-262 0 -412.5 141t-150.5 387z" />
    <glyph glyph-name="ccircumflex" unicode="&#x109;" horiz-adv-x="1138" 
d="M813 1612h221l146 -301h-160l-125 198l-211 -198h-156zM815 1124q186 0 297 -98.5t111 -245.5q0 -14 -9 -88h-274q-1 40 -3.5 66t-12.5 54.5t-27.5 45t-49 27t-75.5 10.5q-73 0 -131.5 -38t-93 -95t-57 -128t-31 -130.5t-8.5 -110.5q0 -211 182 -211q83 0 138.5 46
t102.5 155h275q-64 -205 -208.5 -317.5t-342.5 -112.5q-101 0 -180.5 26.5t-127 67.5t-78.5 96t-42.5 106t-11.5 103q0 45 7 101t27 132t50.5 148.5t82.5 144.5t118 125.5t162 87t210 33.5z" />
    <glyph glyph-name="Cdotaccent" unicode="&#x10a;" horiz-adv-x="1478" 
d="M1290 1888l-53 -246h-225l53 246h225zM219 481q0 214 66.5 405.5t182 330.5t278 220t346.5 81q238 0 385 -118.5t147 -309.5q0 -27 -8 -103h-289q0 127 -63 197.5t-207 70.5q-93 0 -172 -32.5t-132 -84t-95.5 -120t-66.5 -136t-40 -137.5t-21.5 -119t-5.5 -85
q0 -161 76 -243.5t225 -82.5q148 0 253 77t149 218h293q-67 -262 -262.5 -409.5t-475.5 -147.5q-262 0 -412.5 141t-150.5 387z" />
    <glyph glyph-name="cdotaccent" unicode="&#x10b;" horiz-adv-x="1138" 
d="M1012 1520l-54 -246h-225l53 246h226zM815 1124q186 0 297 -98.5t111 -245.5q0 -14 -9 -88h-274q-1 40 -3.5 66t-12.5 54.5t-27.5 45t-49 27t-75.5 10.5q-73 0 -131.5 -38t-93 -95t-57 -128t-31 -130.5t-8.5 -110.5q0 -211 182 -211q83 0 138.5 46t102.5 155h275
q-64 -205 -208.5 -317.5t-342.5 -112.5q-101 0 -180.5 26.5t-127 67.5t-78.5 96t-42.5 106t-11.5 103q0 45 7 101t27 132t50.5 148.5t82.5 144.5t118 125.5t162 87t210 33.5z" />
    <glyph glyph-name="Ccaron" unicode="&#x10c;" horiz-adv-x="1478" 
d="M219 481q0 214 66.5 405.5t182 330.5t278 220t346.5 81q238 0 385 -118.5t147 -309.5q0 -27 -8 -103h-289q0 127 -63 197.5t-207 70.5q-93 0 -172 -32.5t-132 -84t-95.5 -120t-66.5 -136t-40 -137.5t-21.5 -119t-5.5 -85q0 -161 76 -243.5t225 -82.5q148 0 253 77
t149 218h293q-67 -262 -262.5 -409.5t-475.5 -147.5q-262 0 -412.5 141t-150.5 387zM1237 1606h-221l-146 301h160l125 -199l211 199h156z" />
    <glyph glyph-name="ccaron" unicode="&#x10d;" horiz-adv-x="1138" 
d="M938 1249h-221l-146 301h160l125 -198l211 198h156zM815 1124q186 0 297 -98.5t111 -245.5q0 -14 -9 -88h-274q-1 40 -3.5 66t-12.5 54.5t-27.5 45t-49 27t-75.5 10.5q-73 0 -131.5 -38t-93 -95t-57 -128t-31 -130.5t-8.5 -110.5q0 -211 182 -211q83 0 138.5 46
t102.5 155h275q-64 -205 -208.5 -317.5t-342.5 -112.5q-101 0 -180.5 26.5t-127 67.5t-78.5 96t-42.5 106t-11.5 103q0 45 7 101t27 132t50.5 148.5t82.5 144.5t118 125.5t162 87t210 33.5z" />
    <glyph glyph-name="Dcaron" unicode="&#x10e;" horiz-adv-x="1478" 
d="M158 0l317 1493h584q278 0 404 -121.5t126 -390.5q0 -59 -8 -129.5t-32 -168t-62 -188.5t-104.5 -183t-152 -159.5t-212 -110t-277.5 -42.5h-583zM520 256h275q89 0 163.5 31t124 80.5t87.5 116.5t59 132.5t34 136t17 119t4 89.5q0 276 -280 276h-277zM1130 1606h-221
l-145 301h160l125 -199l211 199h155z" />
    <glyph glyph-name="dcaron" unicode="&#x10f;" horiz-adv-x="1478" 
d="M829 0l25 113q-138 -160 -340 -160q-160 0 -256 116.5t-96 309.5q0 104 27.5 210t80.5 201.5t124.5 170.5t167 119t200.5 44t171 -39t101 -122l113 530h287l-318 -1493h-287zM778 895q-83 0 -158 -66t-120 -175.5t-45 -231.5q0 -110 48 -175t130 -65q85 0 160.5 65.5
t120 176.5t44.5 238q0 107 -48.5 170t-131.5 63zM1567 1501h250l-43 -196q-15 -120 -106 -210.5t-208 -99.5l21 95q68 12 116.5 62.5t57.5 119.5h-137z" />
    <glyph glyph-name="Dcroat" unicode="&#x110;" horiz-adv-x="1478" 
d="M307 698h-157l34 164h156l135 631h584q278 0 404 -121.5t126 -390.5q0 -181 -60 -362t-169 -332q-113 -155 -254.5 -221t-364.5 -66h-583zM614 698l-94 -442h275q134 0 217 48t149 163q53 91 88 232t35 262q0 276 -280 276h-277l-80 -375h357l-35 -164h-355z" />
    <glyph glyph-name="dcroat" unicode="&#x111;" horiz-adv-x="1251" 
d="M1118 1358l29 135h287l-29 -135h123l-29 -137h-123l-260 -1221h-287l25 113q-138 -160 -340 -160q-160 0 -256 116.5t-96 309.5q0 126 42.5 257.5t117.5 240.5q82 116 199 181.5t241 65.5q105 0 171 -39t101 -122l56 258h-287l28 137h287zM778 895q-83 0 -158 -66
t-120 -175.5t-45 -231.5q0 -110 48 -175t130 -65q85 0 160.5 65.5t120 176.5t44.5 238q0 106 -48.5 169.5t-131.5 63.5z" />
    <glyph glyph-name="Emacron" unicode="&#x112;" horiz-adv-x="1366" 
d="M606 643l-82 -387h809l-55 -256h-1116l317 1493h1082l-56 -256h-774l-72 -338h715l-53 -256h-715zM1407 1804l-35 -164h-614l35 164h614z" />
    <glyph glyph-name="emacron" unicode="&#x113;" horiz-adv-x="1138" 
d="M1188 1479l-35 -164h-614l34 164h615zM776 1124q195 0 314.5 -112.5t119.5 -292.5q0 -124 -36 -256h-744q-6 -57 -6 -92q0 -85 53 -137t141 -52q74 0 136.5 35.5t93.5 93.5h282q-85 -170 -233 -264t-334 -94q-192 0 -312 118t-120 308q0 41 6.5 93.5t25.5 125.5
t48.5 143.5t80.5 141t115.5 123t160 85.5t208.5 33zM741 895q-205 0 -274 -242h451q0 45 -2.5 75.5t-12.5 65t-28.5 54.5t-52 33.5t-81.5 13.5z" />
    <glyph glyph-name="Ebreve" unicode="&#x114;" horiz-adv-x="1366" 
d="M1325 1898h86q-22 -126 -115.5 -209t-214.5 -83q-97 0 -157 59t-60 154q0 31 13 79h86v-16q0 -56 39.5 -86.5t111.5 -30.5q158 0 211 133zM606 643l-82 -387h809l-55 -256h-1116l317 1493h1082l-56 -256h-774l-72 -338h715l-53 -256h-715z" />
    <glyph glyph-name="ebreve" unicode="&#x115;" horiz-adv-x="1138" 
d="M1073 1538h86q-22 -126 -115.5 -209.5t-214.5 -83.5q-97 0 -157 59t-60 154q0 32 13 80h86v-16q0 -56 39.5 -86.5t111.5 -30.5q158 0 211 133zM776 1124q195 0 314.5 -112.5t119.5 -292.5q0 -124 -36 -256h-744q-6 -57 -6 -92q0 -85 53 -137t141 -52q74 0 136.5 35.5
t93.5 93.5h282q-85 -170 -233 -264t-334 -94q-192 0 -312 118t-120 308q0 41 6.5 93.5t25.5 125.5t48.5 143.5t80.5 141t115.5 123t160 85.5t208.5 33zM741 895q-205 0 -274 -242h451q0 45 -2.5 75.5t-12.5 65t-28.5 54.5t-52 33.5t-81.5 13.5z" />
    <glyph glyph-name="Edotaccent" unicode="&#x116;" horiz-adv-x="1366" 
d="M1235 1888l-53 -246h-226l54 246h225zM606 643l-82 -387h809l-55 -256h-1116l317 1493h1082l-56 -256h-774l-72 -338h715l-53 -256h-715z" />
    <glyph glyph-name="edotaccent" unicode="&#x117;" horiz-adv-x="1138" 
d="M950 1520l-53 -246h-225l53 246h225zM776 1124q195 0 314.5 -112.5t119.5 -292.5q0 -124 -36 -256h-744q-6 -57 -6 -92q0 -85 53 -137t141 -52q74 0 136.5 35.5t93.5 93.5h282q-85 -170 -233 -264t-334 -94q-192 0 -312 118t-120 308q0 41 6.5 93.5t25.5 125.5
t48.5 143.5t80.5 141t115.5 123t160 85.5t208.5 33zM741 895q-205 0 -274 -242h451q0 45 -2.5 75.5t-12.5 65t-28.5 54.5t-52 33.5t-81.5 13.5z" />
    <glyph glyph-name="Eogonek" unicode="&#x118;" horiz-adv-x="1366" 
d="M809 -319q0 95 79.5 180t239.5 139h-966l317 1493h1082l-56 -256h-774l-72 -338h715l-53 -256h-715l-82 -387h809l-55 -256q-139 -78 -201.5 -147t-62.5 -146q0 -82 110 -82q80 0 150 23l-23 -107q-81 -18 -164 -18q-133 0 -205.5 41.5t-72.5 116.5z" />
    <glyph glyph-name="eogonek" unicode="&#x119;" horiz-adv-x="1138" 
d="M1130 311q-36 -74 -99 -145t-125 -124t-119.5 -105t-93.5 -109t-36 -115q0 -88 105 -88q78 0 145 23l-22 -107q-95 -18 -156 -18q-130 0 -202 44t-72 122t49.5 137.5t181.5 138.5q-77 -14 -121 -14q-193 0 -313.5 118.5t-120.5 307.5q0 41 6.5 93.5t25.5 126t48.5 144
t80.5 141t115.5 123.5t160 86t208.5 33q195 0 314.5 -112.5t119.5 -292.5q0 -124 -36 -256h-744q-6 -57 -6 -92q0 -85 53 -137t141 -52q74 0 136.5 35.5t93.5 93.5h282zM918 684q0 46 -8 81.5t-26.5 66t-54.5 47t-88 16.5q-205 0 -274 -242h451v31z" />
    <glyph glyph-name="Ecaron" unicode="&#x11a;" horiz-adv-x="1366" 
d="M606 643l-82 -387h809l-55 -256h-1116l317 1493h1082l-56 -256h-774l-72 -338h715l-53 -256h-715zM1153 1606h-221l-146 301h160l125 -199l211 199h156z" />
    <glyph glyph-name="ecaron" unicode="&#x11b;" horiz-adv-x="1138" 
d="M938 1249h-221l-146 301h160l125 -198l211 198h156zM776 1124q195 0 314.5 -112.5t119.5 -292.5q0 -124 -36 -256h-744q-6 -57 -6 -92q0 -85 53 -137t141 -52q74 0 136.5 35.5t93.5 93.5h282q-85 -170 -233 -264t-334 -94q-192 0 -312 118t-120 308q0 41 6.5 93.5
t25.5 125.5t48.5 143.5t80.5 141t115.5 123t160 85.5t208.5 33zM741 895q-205 0 -274 -242h451q0 45 -2.5 75.5t-12.5 65t-28.5 54.5t-52 33.5t-81.5 13.5z" />
    <glyph glyph-name="Gcircumflex" unicode="&#x11c;" horiz-adv-x="1593" 
d="M1090 1923h221l145 -301h-160l-125 199l-210 -199h-156zM1628 803l-172 -807h-184l14 184q-114 -122 -224.5 -174.5t-252.5 -52.5q-270 0 -430 158.5t-160 425.5q0 129 36.5 264.5t112 264t180 229t253.5 162t319 61.5q250 0 403.5 -120.5t153.5 -314.5q0 -9 -4 -67h-282
q-12 115 -97 177t-231 62q-89 0 -165.5 -27t-130.5 -71.5t-97 -104t-70 -122t-44.5 -128.5t-24.5 -120t-7 -100q0 -158 98.5 -262.5t249.5 -104.5q81 0 151.5 25.5t117.5 62t85 84.5t57.5 86.5t31.5 73.5h-340l55 256h598z" />
    <glyph glyph-name="gcircumflex" unicode="&#x11d;" horiz-adv-x="1251" 
d="M836 1612h221l145 -301h-160l-124 198l-211 -198h-156zM481 -446q-122 0 -210.5 23.5t-133.5 62t-64.5 79t-19.5 84.5q0 27 6 64h295q-2 -18 -2 -25q0 -44 50.5 -74t125.5 -30q112 0 194.5 62.5t104.5 162.5l33 150q-98 -91 -171.5 -125.5t-168.5 -34.5
q-155 0 -256.5 110t-101.5 279q0 109 27 220t80 211.5t125.5 179t171 125t208.5 46.5q179 0 260 -188l37 170h272l-243 -1143q-41 -194 -203 -301.5t-416 -107.5zM776 895q-82 0 -156.5 -67.5t-119.5 -179.5t-45 -236q0 -106 46.5 -168t125.5 -62q89 0 167.5 63t124.5 170
t46 230q0 114 -51.5 182t-137.5 68z" />
    <glyph glyph-name="Gbreve" unicode="&#x11e;" horiz-adv-x="1593" 
d="M1628 803l-172 -807h-184l14 184q-114 -122 -224.5 -174.5t-252.5 -52.5q-270 0 -430 158.5t-160 425.5q0 129 36.5 264.5t112 264t180 229t253.5 162t319 61.5q250 0 403.5 -120.5t153.5 -314.5q0 -9 -4 -67h-282q-12 115 -97 177t-231 62q-89 0 -165.5 -27
t-130.5 -71.5t-97 -104t-70 -122t-44.5 -128.5t-24.5 -120t-7 -100q0 -158 98.5 -262.5t249.5 -104.5q81 0 151.5 25.5t117.5 62t85 84.5t57.5 86.5t31.5 73.5h-340l55 256h598zM1407 1898h86q-22 -126 -115.5 -209t-214.5 -83q-97 0 -157 59t-60 154q0 35 12 79h86v-16
q0 -55 40 -86t112 -31q158 0 211 133z" />
    <glyph glyph-name="gbreve" unicode="&#x11f;" horiz-adv-x="1251" 
d="M481 -446q-122 0 -210.5 23.5t-133.5 62t-64.5 79t-19.5 84.5q0 27 6 64h295q-2 -18 -2 -25q0 -44 50.5 -74t125.5 -30q112 0 194.5 62.5t104.5 162.5l33 150q-98 -91 -171.5 -125.5t-168.5 -34.5q-155 0 -256.5 110t-101.5 279q0 109 27 220t80 211.5t125.5 179t171 125
t208.5 46.5q179 0 260 -188l37 170h272l-243 -1143q-41 -194 -203 -301.5t-416 -107.5zM776 895q-82 0 -156.5 -67.5t-119.5 -179.5t-45 -236q0 -106 46.5 -168t125.5 -62q89 0 167.5 63t124.5 170t46 230q0 114 -51.5 182t-137.5 68zM1114 1538h86q-22 -126 -115.5 -209.5
t-214.5 -83.5q-97 0 -157 59t-60 154q0 32 13 80h86v-16q0 -56 39.5 -86.5t111.5 -30.5q158 0 211 133z" />
    <glyph glyph-name="Gdotaccent" unicode="&#x120;" horiz-adv-x="1593" 
d="M1303 1888l-54 -246h-225l53 246h226zM1628 803l-172 -807h-184l14 184q-114 -122 -224.5 -174.5t-252.5 -52.5q-270 0 -430 158.5t-160 425.5q0 129 36.5 264.5t112 264t180 229t253.5 162t319 61.5q250 0 403.5 -120.5t153.5 -314.5q0 -9 -4 -67h-282q-12 115 -97 177
t-231 62q-89 0 -165.5 -27t-130.5 -71.5t-97 -104t-70 -122t-44.5 -128.5t-24.5 -120t-7 -100q0 -158 98.5 -262.5t249.5 -104.5q81 0 151.5 25.5t117.5 62t85 84.5t57.5 86.5t31.5 73.5h-340l55 256h598z" />
    <glyph glyph-name="gdotaccent" unicode="&#x121;" horiz-adv-x="1251" 
d="M1042 1520l-53 -246h-225l53 246h225zM481 -446q-122 0 -210.5 23.5t-133.5 62t-64.5 79t-19.5 84.5q0 27 6 64h295q-2 -18 -2 -25q0 -44 50.5 -74t125.5 -30q112 0 194.5 62.5t104.5 162.5l33 150q-98 -91 -171.5 -125.5t-168.5 -34.5q-155 0 -256.5 110t-101.5 279
q0 109 27 220t80 211.5t125.5 179t171 125t208.5 46.5q179 0 260 -188l37 170h272l-243 -1143q-41 -194 -203 -301.5t-416 -107.5zM776 895q-82 0 -156.5 -67.5t-119.5 -179.5t-45 -236q0 -106 46.5 -168t125.5 -62q89 0 167.5 63t124.5 170t46 230q0 114 -51.5 182
t-137.5 68z" />
    <glyph glyph-name="Gcommaaccent" unicode="&#x122;" horiz-adv-x="1593" 
d="M657 -150h250l-47 -208q-51 -232 -305 -256l20 94q71 13 118.5 54.5t56.5 107.5h-138zM1628 803l-172 -807h-184l14 184q-114 -122 -224.5 -174.5t-252.5 -52.5q-270 0 -430 158.5t-160 425.5q0 129 36.5 264.5t112 264t180 229t253.5 162t319 61.5q250 0 403.5 -120.5
t153.5 -314.5q0 -9 -4 -67h-282q-12 115 -97 177t-231 62q-89 0 -165.5 -27t-130.5 -71.5t-97 -104t-70 -122t-44.5 -128.5t-24.5 -120t-7 -100q0 -158 98.5 -262.5t249.5 -104.5q81 0 151.5 25.5t117.5 62t85 84.5t57.5 86.5t31.5 73.5h-340l55 256h598z" />
    <glyph glyph-name="gcommaaccent" unicode="&#x123;" horiz-adv-x="1251" 
d="M481 -446q-122 0 -210.5 23.5t-133.5 62t-64.5 79t-19.5 84.5q0 27 6 64h295q-2 -18 -2 -25q0 -44 50.5 -74t125.5 -30q112 0 194.5 62.5t104.5 162.5l33 150q-98 -91 -171.5 -125.5t-168.5 -34.5q-155 0 -256.5 110t-101.5 279q0 109 27 220t80 211.5t125.5 179t171 125
t208.5 46.5q179 0 260 -188l37 170h272l-243 -1143q-41 -194 -203 -301.5t-416 -107.5zM776 895q-82 0 -156.5 -67.5t-119.5 -179.5t-45 -236q0 -106 46.5 -168t125.5 -62q89 0 167.5 63t124.5 170t46 230q0 114 -51.5 182t-137.5 68zM967 1241h-250l47 209q51 232 305 256
l-20 -94q-71 -13 -118.5 -54.5t-56.5 -107.5h138z" />
    <glyph glyph-name="Hcircumflex" unicode="&#x124;" horiz-adv-x="1478" 
d="M1044 1942h222l145 -302h-160l-125 199l-211 -199h-155zM1182 678h-592l-144 -678h-307l318 1493h307l-119 -559h590l119 559h309l-317 -1493h-308z" />
    <glyph glyph-name="hcircumflex" unicode="&#x125;" horiz-adv-x="1251" 
d="M893 1909h221l146 -301h-160l-125 198l-211 -198h-156zM455 1493h286l-118 -555q82 97 170.5 141.5t197.5 44.5q134 0 215.5 -74.5t81.5 -195.5q0 -54 -12 -113l-158 -741h-287l138 641q12 64 12 98q0 75 -39 115.5t-111 40.5q-98 0 -173 -74t-101 -198l-133 -623h-287z
" />
    <glyph glyph-name="Hbar" unicode="&#x126;" horiz-adv-x="1478" 
d="M1448 1227h123l-29 -137h-123l-231 -1090h-307l143 678h-592l-143 -678h-307l231 1090h-123l29 137h123l55 266h307l-55 -266h590l55 266h309zM1110 1090h-590l-35 -156h590z" />
    <glyph glyph-name="hbar" unicode="&#x127;" horiz-adv-x="1251" 
d="M987 1124q40 0 78 -7t78 -25.5t69.5 -47t48.5 -75.5t19 -107q0 -58 -14 -121l-156 -741h-287l144 676q10 55 10 76q0 62 -39.5 95.5t-103.5 33.5q-97 0 -172 -61t-97 -156l-139 -664h-287l258 1221h-121l29 137h121l29 135h286l-28 -135h274l-29 -137h-274l-57 -275
q153 178 360 178z" />
    <glyph glyph-name="Itilde" unicode="&#x128;" horiz-adv-x="569" 
d="M1053 1886q-36 -129 -109.5 -189.5t-163.5 -60.5q-52 0 -104 23l-103 51q-64 29 -90 29q-53 0 -104 -99h-111q35 115 100 177.5t148 62.5q39 0 68 -7t78 -28l102 -43q31 -14 40 -17t27 -3q68 0 111 104h111zM754 1493l-318 -1493h-307l317 1493h308z" />
    <glyph glyph-name="itilde" unicode="&#x129;" horiz-adv-x="569" 
d="M979 1561q-36 -130 -109 -190t-163 -60q-55 0 -105 22l-102 51q-64 29 -90 29q-55 0 -105 -98h-110q35 115 99.5 177t147.5 62q40 0 69 -6.5t77 -27.5l102 -43q43 -20 57 -21h11q66 0 110 105h111zM659 1106l-235 -1106h-287l236 1106h286z" />
    <glyph glyph-name="Imacron" unicode="&#x12a;" horiz-adv-x="569" 
d="M975 1804l-35 -164h-614l34 164h615zM754 1493l-318 -1493h-307l317 1493h308z" />
    <glyph glyph-name="imacron" unicode="&#x12b;" horiz-adv-x="569" 
d="M659 1106l-235 -1106h-287l236 1106h286zM905 1479l-35 -164h-614l35 164h614z" />
    <glyph glyph-name="Ibreve" unicode="&#x12c;" horiz-adv-x="569" 
d="M883 1929h86q-22 -126 -115.5 -209.5t-214.5 -83.5q-97 0 -157 59t-60 154q0 36 12 80h86v-16q0 -55 40 -86t112 -31q158 0 211 133zM754 1493l-318 -1493h-307l317 1493h308z" />
    <glyph glyph-name="ibreve" unicode="&#x12d;" horiz-adv-x="569" 
d="M803 1604h86q-22 -126 -115.5 -209.5t-214.5 -83.5q-97 0 -157 59t-60 154q0 36 12 80h86v-17q0 -55 40 -86t112 -31q158 0 211 134zM659 1106l-235 -1106h-287l236 1106h286z" />
    <glyph glyph-name="Iogonek" unicode="&#x12e;" horiz-adv-x="569" 
d="M754 1493l-318 -1493q-92 -49 -157.5 -133t-65.5 -152q0 -43 25 -66.5t69 -23.5q52 0 123 23l-22 -107q-90 -18 -146 -18q-116 0 -182 42.5t-66 117.5q0 87 66 163.5t205 153.5h-156l317 1493h308z" />
    <glyph glyph-name="iogonek" unicode="&#x12f;" horiz-adv-x="548" 
d="M637 1106l-236 -1106q-98 -69 -151 -143.5t-53 -143.5q0 -86 96 -86q31 0 102 21l-22 -107q-84 -18 -129 -18q-114 0 -179 45.5t-65 124.5t60.5 150t203.5 157h-149l235 1106h287zM719 1493l-53 -256h-287l53 256h287z" />
    <glyph glyph-name="Idotaccent" unicode="&#x130;" horiz-adv-x="569" 
d="M807 1888l-53 -246h-226l54 246h225zM754 1493l-318 -1493h-307l317 1493h308z" />
    <glyph glyph-name="dotlessi" unicode="&#x131;" horiz-adv-x="569" 
d="M659 1106l-235 -1106h-287l236 1106h286z" />
    <glyph glyph-name="Jcircumflex" unicode="&#x134;" horiz-adv-x="1138" 
d="M842 1942h221l145 -302h-159l-125 199l-211 -199h-156zM1006 1493h307l-236 -1104q-8 -36 -16 -65.5t-28.5 -77t-46.5 -84t-70.5 -78t-99.5 -68.5t-135 -45t-175 -18q-180 0 -282.5 85t-102.5 234q0 71 14 134l31 147h307l-33 -158q-8 -36 -8 -69q0 -49 37.5 -80
t97.5 -31q165 0 203 174z" />
    <glyph glyph-name="jcircumflex" unicode="&#x135;" horiz-adv-x="569" 
d="M512 1548h221l146 -301h-160l-125 199l-211 -199h-156zM666 1106l-277 -1299q-28 -133 -119 -193t-266 -60q-56 0 -92 10l49 227q11 -8 51 -8q46 0 70.5 20.5t34.5 69.5l262 1233h287z" />
    <glyph glyph-name="Kcommaaccent" unicode="&#x136;" horiz-adv-x="1478" 
d="M618 -150h250l-47 -208q-51 -232 -305 -256l21 94q71 13 118 54.5t56 107.5h-138zM561 479l-102 -479h-307l317 1493h307l-139 -655l725 655h364l-739 -653l481 -840h-366l-354 643z" />
    <glyph glyph-name="kcommaaccent" unicode="&#x137;" horiz-adv-x="1138" 
d="M434 -150h250l-47 -208q-51 -232 -305 -256l20 94q71 13 118 54.5t56 107.5h-137zM725 1493l-174 -817l457 430h325l-475 -422l264 -684h-336l-161 489l-140 -127l-77 -362h-287l317 1493h287z" />
    <glyph glyph-name="kgreenlandic" unicode="&#x138;" horiz-adv-x="1083" 
d="M561 719l414 387h303l-545 -500l389 -606h-372l-256 406l-86 -406h-287l235 1106h287z" />
    <glyph glyph-name="Lacute" unicode="&#x139;" horiz-adv-x="1251" 
d="M1159 1919l-323 -307h-144l209 307h258zM788 1493l-262 -1237h715l-55 -256h-1022l317 1493h307z" />
    <glyph glyph-name="lacute" unicode="&#x13a;" horiz-adv-x="569" 
d="M741 1493l-317 -1493h-287l318 1493h286zM944 1919l-323 -307h-144l209 307h258z" />
    <glyph glyph-name="Lcommaaccent" unicode="&#x13b;" horiz-adv-x="1251" 
d="M532 -150h250l-47 -208q-51 -232 -305 -256l21 94q71 13 118 54.5t56 107.5h-138zM788 1493l-262 -1237h715l-55 -256h-1022l317 1493h307z" />
    <glyph glyph-name="lcommaaccent" unicode="&#x13c;" horiz-adv-x="569" 
d="M121 -150h250l-47 -208q-51 -232 -306 -256l21 94q71 13 118 54.5t56 107.5h-137zM741 1493l-317 -1493h-287l318 1493h286z" />
    <glyph glyph-name="Lcaron" unicode="&#x13d;" horiz-adv-x="1251" 
d="M788 1493l-262 -1237h715l-55 -256h-1022l317 1493h307zM1104 1495h250l-43 -197q-15 -120 -106 -210t-208 -99l21 94q68 12 116.5 63t57.5 120h-137z" />
    <glyph glyph-name="lcaron" unicode="&#x13e;" horiz-adv-x="909" 
d="M741 1493l-317 -1493h-287l318 1493h286zM903 1495h250l-43 -197q-15 -120 -105.5 -210t-207.5 -99l20 94q68 12 116.5 63t57.5 120h-137z" />
    <glyph glyph-name="Ldot" unicode="&#x13f;" horiz-adv-x="1251" 
d="M1133 848l-46 -205h-215l46 205h215zM788 1493l-262 -1237h715l-55 -256h-1022l317 1493h307z" />
    <glyph glyph-name="ldot" unicode="&#x140;" horiz-adv-x="1138" 
d="M1061 807l-45 -205h-215l45 205h215zM741 1493l-317 -1493h-287l318 1493h286z" />
    <glyph glyph-name="Lslash" unicode="&#x141;" horiz-adv-x="1251" 
d="M692 862l383 225l-41 -192l-383 -225l-88 -414h715l-55 -256h-1022l114 537l-204 -125l41 192l204 125l162 764h307z" />
    <glyph glyph-name="lslash" unicode="&#x142;" horiz-adv-x="569" 
d="M606 891l156 92l-35 -168l-156 -92l-153 -723h-287l127 602l-156 -98l35 170l156 96l156 723h286z" />
    <glyph glyph-name="Nacute" unicode="&#x143;" horiz-adv-x="1478" 
d="M1456 1919l-323 -307h-144l209 307h258zM1671 1493l-317 -1493h-303l-394 1071l-227 -1071h-291l318 1493h307l393 -1055l223 1055h291z" />
    <glyph glyph-name="nacute" unicode="&#x144;" horiz-adv-x="1251" 
d="M365 1106h286l-37 -168q83 98 171 142t202 44q137 0 219 -73.5t82 -196.5q0 -54 -12 -113l-158 -741h-287l138 641q12 67 12 100q0 74 -39.5 114t-112.5 40q-103 0 -177.5 -73t-102.5 -199l-133 -623h-287zM1229 1538l-324 -307h-143l209 307h258z" />
    <glyph glyph-name="Ncommaaccent" unicode="&#x145;" horiz-adv-x="1478" 
d="M657 -150h250l-47 -208q-51 -232 -305 -256l20 94q71 13 118.5 54.5t56.5 107.5h-138zM1671 1493l-317 -1493h-303l-394 1071l-227 -1071h-291l318 1493h307l393 -1055l223 1055h291z" />
    <glyph glyph-name="ncommaaccent" unicode="&#x146;" horiz-adv-x="1251" 
d="M451 -150h249l-47 -208q-51 -232 -305 -256l21 94q71 13 118 54.5t56 107.5h-137zM365 1106h286l-37 -168q83 98 171 142t202 44q137 0 219 -73.5t82 -196.5q0 -54 -12 -113l-158 -741h-287l138 641q12 67 12 100q0 74 -39.5 114t-112.5 40q-103 0 -177.5 -73
t-102.5 -199l-133 -623h-287z" />
    <glyph glyph-name="Ncaron" unicode="&#x147;" horiz-adv-x="1478" 
d="M1194 1606h-221l-146 301h160l125 -199l211 199h156zM1671 1493l-317 -1493h-303l-394 1071l-227 -1071h-291l318 1493h307l393 -1055l223 1055h291z" />
    <glyph glyph-name="ncaron" unicode="&#x148;" horiz-adv-x="1251" 
d="M365 1106h286l-37 -168q83 98 171 142t202 44q137 0 219 -73.5t82 -196.5q0 -54 -12 -113l-158 -741h-287l138 641q12 67 12 100q0 74 -39.5 114t-112.5 40q-103 0 -177.5 -73t-102.5 -199l-133 -623h-287zM938 1249h-221l-146 301h160l125 -198l211 198h156z" />
    <glyph glyph-name="napostrophe" unicode="&#x149;" horiz-adv-x="1343" 
d="M389 1618h250l-43 -197q-15 -120 -105.5 -210t-207.5 -99l20 94q68 12 116.5 63t57.5 120h-137zM457 1106h286l-36 -168q83 98 170.5 142t201.5 44q137 0 219 -73.5t82 -196.5q0 -54 -12 -113l-158 -741h-286l137 641q12 67 12 100q0 74 -39 114t-112 40q-103 0 -178 -73
t-103 -199l-133 -623h-287z" />
    <glyph glyph-name="Eng" unicode="&#x14a;" horiz-adv-x="1474" 
d="M870 223q103 0 202 132t156.5 311.5t57.5 328.5q0 54 -10.5 96.5t-26 70t-41 47.5t-47.5 30t-54.5 15.5t-53.5 6.5t-52 1q-135 0 -249.5 -101t-149.5 -262l-190 -899h-308l318 1493h307l-33 -158q90 106 185.5 144.5t226.5 38.5q57 0 121 -17t130.5 -56t119.5 -94.5
t86.5 -141.5t33.5 -189q0 -79 -16 -152q-51 -242 -131 -419.5t-178.5 -281t-207.5 -152t-232 -48.5q-44 0 -83.5 4.5t-60.5 10t-40.5 11.5t-22.5 7l53 252q6 0 70.5 -14.5t119.5 -14.5z" />
    <glyph glyph-name="eng" unicode="&#x14b;" horiz-adv-x="1251" 
d="M365 1106h286l-37 -168q83 98 171 142t202 44q137 0 219 -73.5t82 -196.5q0 -54 -12 -113l-201 -934q-29 -134 -119.5 -193.5t-265.5 -59.5q-56 0 -92 10l49 227q11 -8 51 -8q46 0 70.5 20.5t34.5 69.5l166 768q12 67 12 100q0 74 -39.5 114t-112.5 40q-103 0 -177.5 -73
t-102.5 -199l-133 -623h-287z" />
    <glyph glyph-name="Omacron" unicode="&#x14c;" horiz-adv-x="1593" 
d="M1464 1804l-34 -164h-615l35 164h614zM1102 1518q281 0 437.5 -154.5t156.5 -431.5q0 -89 -17.5 -183.5t-54.5 -190t-89.5 -184t-126.5 -165.5t-162 -134t-200.5 -89.5t-236.5 -32.5q-274 0 -433 156.5t-159 425.5q0 101 25 210.5t72 220t123 209.5t171 176t223 122
t271 45zM858 215q92 0 170.5 31t132 80t95.5 114.5t66.5 130t41 131t22 113t5.5 80.5q0 169 -87 264.5t-241 95.5q-93 0 -172 -30.5t-133 -79t-97 -113t-68.5 -128.5t-42 -130t-22.5 -113.5t-6 -82.5q0 -167 90.5 -265t245.5 -98z" />
    <glyph glyph-name="omacron" unicode="&#x14d;" horiz-adv-x="1251" 
d="M1219 1479l-35 -164h-615l35 164h615zM168 362q0 207 82 379.5t238.5 277.5t357.5 105q211 0 331.5 -109t120.5 -300q0 -157 -49.5 -296.5t-137 -242.5t-217 -163t-282.5 -60q-203 0 -323.5 111t-120.5 298zM664 182q65 0 120 27t91 71t62.5 95.5t41 107t21 98t6.5 74.5
q0 109 -55.5 174.5t-149.5 65.5q-138 0 -239 -140.5t-101 -334.5q0 -109 55.5 -173.5t147.5 -64.5z" />
    <glyph glyph-name="Obreve" unicode="&#x14e;" horiz-adv-x="1593" 
d="M1399 1931h86q-22 -126 -115.5 -209.5t-214.5 -83.5q-97 0 -157 59t-60 154q0 36 12 80h86v-16q0 -55 40 -86t112 -31q158 0 211 133zM1102 1518q281 0 437.5 -154.5t156.5 -431.5q0 -89 -17.5 -183.5t-54.5 -190t-89.5 -184t-126.5 -165.5t-162 -134t-200.5 -89.5
t-236.5 -32.5q-274 0 -433 156.5t-159 425.5q0 101 25 210.5t72 220t123 209.5t171 176t223 122t271 45zM858 215q92 0 170.5 31t132 80t95.5 114.5t66.5 130t41 131t22 113t5.5 80.5q0 169 -87 264.5t-241 95.5q-93 0 -172 -30.5t-133 -79t-97 -113t-68.5 -128.5t-42 -130
t-22.5 -113.5t-6 -82.5q0 -167 90.5 -265t245.5 -98z" />
    <glyph glyph-name="obreve" unicode="&#x14f;" horiz-adv-x="1251" 
d="M1114 1538h86q-22 -126 -115.5 -209.5t-214.5 -83.5q-97 0 -157 59t-60 154q0 32 13 80h86v-16q0 -56 39.5 -86.5t111.5 -30.5q158 0 211 133zM168 362q0 207 82 379.5t238.5 277.5t357.5 105q211 0 331.5 -109t120.5 -300q0 -157 -49.5 -296.5t-137 -242.5t-217 -163
t-282.5 -60q-203 0 -323.5 111t-120.5 298zM664 182q65 0 120 27t91 71t62.5 95.5t41 107t21 98t6.5 74.5q0 109 -55.5 174.5t-149.5 65.5q-138 0 -239 -140.5t-101 -334.5q0 -109 55.5 -173.5t147.5 -64.5z" />
    <glyph glyph-name="Ohungarumlaut" unicode="&#x150;" horiz-adv-x="1593" 
d="M1290 1882l-323 -301h-144l209 301h258zM1675 1882l-323 -301h-144l209 301h258zM1102 1518q281 0 437.5 -154.5t156.5 -431.5q0 -89 -17.5 -183.5t-54.5 -190t-89.5 -184t-126.5 -165.5t-162 -134t-200.5 -89.5t-236.5 -32.5q-274 0 -433 156.5t-159 425.5
q0 101 25 210.5t72 220t123 209.5t171 176t223 122t271 45zM858 215q92 0 170.5 31t132 80t95.5 114.5t66.5 130t41 131t22 113t5.5 80.5q0 169 -87 264.5t-241 95.5q-93 0 -172 -30.5t-133 -79t-97 -113t-68.5 -128.5t-42 -130t-22.5 -113.5t-6 -82.5q0 -167 90.5 -265
t245.5 -98z" />
    <glyph glyph-name="ohungarumlaut" unicode="&#x151;" horiz-adv-x="1251" 
d="M1055 1550l-324 -301h-143l209 301h258zM1440 1550l-324 -301h-143l209 301h258zM168 362q0 207 82 379.5t238.5 277.5t357.5 105q211 0 331.5 -109t120.5 -300q0 -157 -49.5 -296.5t-137 -242.5t-217 -163t-282.5 -60q-203 0 -323.5 111t-120.5 298zM664 182
q65 0 120 27t91 71t62.5 95.5t41 107t21 98t6.5 74.5q0 109 -55.5 174.5t-149.5 65.5q-138 0 -239 -140.5t-101 -334.5q0 -109 55.5 -173.5t147.5 -64.5z" />
    <glyph glyph-name="OE" unicode="&#x152;" horiz-adv-x="2048" 
d="M1417 643l-82 -387h707l-53 -256h-1004l25 121q-87 -93 -163.5 -130.5t-178.5 -37.5q-217 0 -350.5 151t-133.5 398q0 203 79 414t208 352q226 250 516 250q101 0 168.5 -30.5t124.5 -101.5l23 107h964l-55 -256h-668l-71 -338h610l-55 -256h-611zM987 1255
q-82 0 -152.5 -30t-120 -78.5t-90 -113t-65 -130.5t-41 -133t-23 -118.5t-6.5 -90.5q0 -163 78 -254.5t217 -91.5q82 0 144.5 35t122.5 115l157 741q-29 78 -82 113.5t-139 35.5z" />
    <glyph glyph-name="oe" unicode="&#x153;" horiz-adv-x="1970" 
d="M1616 1124q194 0 310 -115.5t116 -289.5q0 -120 -37 -256h-741q-15 -66 -15 -107q0 -77 55 -125.5t142 -48.5q75 0 138.5 35t94.5 94h283q-82 -164 -237.5 -261t-338.5 -97q-114 0 -207.5 40.5t-136.5 108.5q-80 -71 -193 -110t-237 -39q-206 0 -325 109t-119 298
q0 149 48 287t134 244t215.5 169.5t282.5 63.5q121 0 218.5 -39t150.5 -108q70 69 176.5 108t222.5 39zM664 182q65 0 120 27t91 71t62.5 95.5t41 107t21 98t6.5 74.5q0 109 -55.5 174.5t-149.5 65.5q-138 0 -239 -140.5t-101 -334.5q0 -107 55.5 -172.5t147.5 -65.5z
M1749 653v58q0 88 -45.5 136t-128.5 48q-98 0 -167 -62t-101 -180h442z" />
    <glyph glyph-name="Racute" unicode="&#x154;" horiz-adv-x="1478" 
d="M1360 1919l-324 -307h-143l209 307h258zM1044 84q0 69 39 216.5t39 178.5q0 113 -174 113h-352l-125 -592h-307l317 1493h772q81 0 145 -21.5t102.5 -54t63.5 -75t34.5 -81t9.5 -75.5q0 -61 -14.5 -117t-35.5 -96.5t-55 -79.5t-61.5 -62.5t-66.5 -48.5t-59 -35.5
t-50 -25.5q159 -53 159 -168q0 -71 -31.5 -232.5t-31.5 -195.5q0 -43 37 -70l-13 -55h-325q-17 55 -17 84zM1303 1094q0 55 -32 88t-79 44t-115 11h-344l-82 -389h371q66 0 117.5 18t81.5 44.5t49.5 61t26 64.5t6.5 58z" />
    <glyph glyph-name="racute" unicode="&#x155;" horiz-adv-x="796" 
d="M1055 1542l-324 -307h-143l209 307h258zM365 1106h286l-47 -217q72 112 166 173.5t193 61.5q18 0 34 -2l-61 -291q-56 9 -88 9q-254 0 -307 -252l-125 -588h-287z" />
    <glyph glyph-name="Rcommaaccent" unicode="&#x156;" horiz-adv-x="1478" 
d="M618 -150h250l-47 -208q-51 -232 -305 -256l21 94q71 13 118 54.5t56 107.5h-138zM1044 84q0 69 39 216.5t39 178.5q0 113 -174 113h-352l-125 -592h-307l317 1493h772q81 0 145 -21.5t102.5 -54t63.5 -75t34.5 -81t9.5 -75.5q0 -61 -14.5 -117t-35.5 -96.5t-55 -79.5
t-61.5 -62.5t-66.5 -48.5t-59 -35.5t-50 -25.5q159 -53 159 -168q0 -71 -31.5 -232.5t-31.5 -195.5q0 -43 37 -70l-13 -55h-325q-17 55 -17 84zM1303 1094q0 55 -32 88t-79 44t-115 11h-344l-82 -389h371q66 0 117.5 18t81.5 44.5t49.5 61t26 64.5t6.5 58z" />
    <glyph glyph-name="rcommaaccent" unicode="&#x157;" horiz-adv-x="796" 
d="M133 -150h250l-47 -208q-51 -232 -305 -256l20 94q71 13 118 54.5t56 107.5h-137zM365 1106h286l-47 -217q72 112 166 173.5t193 61.5q18 0 34 -2l-61 -291q-56 9 -88 9q-254 0 -307 -252l-125 -588h-287z" />
    <glyph glyph-name="Rcaron" unicode="&#x158;" horiz-adv-x="1478" 
d="M1044 84q0 69 39 216.5t39 178.5q0 113 -174 113h-352l-125 -592h-307l317 1493h772q81 0 145 -21.5t102.5 -54t63.5 -75t34.5 -81t9.5 -75.5q0 -61 -14.5 -117t-35.5 -96.5t-55 -79.5t-61.5 -62.5t-66.5 -48.5t-59 -35.5t-50 -25.5q159 -53 159 -168q0 -71 -31.5 -232.5
t-31.5 -195.5q0 -43 37 -70l-13 -55h-325q-17 55 -17 84zM1303 1094q0 55 -32 88t-79 44t-115 11h-344l-82 -389h371q66 0 117.5 18t81.5 44.5t49.5 61t26 64.5t6.5 58zM1120 1606h-221l-145 301h159l125 -199l211 199h156z" />
    <glyph glyph-name="rcaron" unicode="&#x159;" horiz-adv-x="796" 
d="M365 1106h286l-47 -217q72 112 166 173.5t193 61.5q18 0 34 -2l-61 -291q-56 9 -88 9q-254 0 -307 -252l-125 -588h-287zM809 1249h-221l-146 301h160l125 -198l211 198h156z" />
    <glyph glyph-name="Sacute" unicode="&#x15a;" horiz-adv-x="1366" 
d="M1362 1903l-324 -308h-143l209 308h258zM309 967q0 114 46.5 214.5t130 175.5t209 118t274.5 43q244 0 380 -93.5t136 -259.5q0 -46 -17 -127h-286q4 36 4 47q0 83 -70 126.5t-201 43.5q-139 0 -220 -57.5t-81 -155.5q0 -58 51.5 -89t196.5 -60l223 -45
q157 -31 239.5 -109t82.5 -196q0 -50 -9 -102.5t-32 -111t-57.5 -111.5t-90.5 -102t-126.5 -84.5t-169.5 -57t-215 -21.5q-106 0 -193 17.5t-145.5 48.5t-101.5 70t-66.5 85.5t-34 91t-10.5 90.5q0 35 8 90h299q-4 -36 -4 -47q0 -88 76.5 -136t216.5 -48q159 0 254.5 62
t95.5 165q0 72 -53 109t-193 65l-201 41q-183 37 -264.5 110t-81.5 200z" />
    <glyph glyph-name="sacute" unicode="&#x15b;" horiz-adv-x="1138" 
d="M260 707q0 179 148.5 298t384.5 119q193 0 303 -79.5t110 -217.5q0 -31 -10 -77h-276q6 27 6 38q0 50 -48 78.5t-133 28.5q-82 0 -131 -29.5t-49 -79.5q0 -31 27.5 -50t105.5 -42l197 -57q128 -38 189 -100t61 -154q0 -197 -154.5 -313.5t-415.5 -116.5q-104 0 -185.5 21
t-130.5 53.5t-81 75t-43.5 81t-11.5 76.5q0 21 8 62h281q2 -42 23.5 -71.5t56 -43.5t67.5 -19.5t70 -5.5q94 0 153.5 31.5t59.5 81.5q0 35 -29.5 55t-126.5 51l-162 52q-135 44 -199.5 106t-64.5 148zM1153 1550l-324 -307h-143l209 307h258z" />
    <glyph glyph-name="Scircumflex" unicode="&#x15c;" horiz-adv-x="1366" 
d="M958 1909h222l145 -301h-160l-125 198l-211 -198h-155zM309 967q0 114 46.5 214.5t130 175.5t209 118t274.5 43q244 0 380 -93.5t136 -259.5q0 -46 -17 -127h-286q4 36 4 47q0 83 -70 126.5t-201 43.5q-139 0 -220 -57.5t-81 -155.5q0 -58 51.5 -89t196.5 -60l223 -45
q157 -31 239.5 -109t82.5 -196q0 -50 -9 -102.5t-32 -111t-57.5 -111.5t-90.5 -102t-126.5 -84.5t-169.5 -57t-215 -21.5q-106 0 -193 17.5t-145.5 48.5t-101.5 70t-66.5 85.5t-34 91t-10.5 90.5q0 35 8 90h299q-4 -36 -4 -47q0 -88 76.5 -136t216.5 -48q159 0 254.5 62
t95.5 165q0 72 -53 109t-193 65l-201 41q-183 37 -264.5 110t-81.5 200z" />
    <glyph glyph-name="scircumflex" unicode="&#x15d;" horiz-adv-x="1138" 
d="M801 1612h221l145 -301h-159l-125 198l-211 -198h-156zM260 707q0 179 148.5 298t384.5 119q193 0 303 -79.5t110 -217.5q0 -31 -10 -77h-276q6 27 6 38q0 50 -48 78.5t-133 28.5q-82 0 -131 -29.5t-49 -79.5q0 -31 27.5 -50t105.5 -42l197 -57q128 -38 189 -100t61 -154
q0 -197 -154.5 -313.5t-415.5 -116.5q-104 0 -185.5 21t-130.5 53.5t-81 75t-43.5 81t-11.5 76.5q0 21 8 62h281q2 -42 23.5 -71.5t56 -43.5t67.5 -19.5t70 -5.5q94 0 153.5 31.5t59.5 81.5q0 35 -29.5 55t-126.5 51l-162 52q-135 44 -199.5 106t-64.5 148z" />
    <glyph glyph-name="Scedilla" unicode="&#x15e;" horiz-adv-x="1366" 
d="M309 967q0 114 46.5 214.5t130 175.5t209 118t274.5 43q243 0 379.5 -93.5t136.5 -259.5q0 -46 -17 -127h-286q4 36 4 47q0 83 -70 126.5t-201 43.5q-139 0 -220 -57.5t-81 -155.5q0 -58 51.5 -89t196.5 -60l223 -45q157 -31 239.5 -109t82.5 -196q0 -75 -17.5 -149
t-66.5 -155t-124 -142t-201 -101.5t-287 -42.5l-56 -80q46 12 90 12q60 0 94.5 -30.5t34.5 -85.5q0 -100 -84.5 -160t-222.5 -60q-68 0 -126.5 13t-145.5 47l61 104q72 -35 115 -48t88 -13q57 0 97 26.5t40 63.5q0 31 -25 49.5t-65 18.5q-42 0 -108 -27l112 172
q-230 35 -342 129t-112 272q0 35 8 90h299q-4 -36 -4 -45q0 -89 76.5 -137.5t216.5 -48.5q159 0 254.5 62t95.5 165q0 71 -53.5 108.5t-192.5 65.5l-201 41q-183 37 -264.5 110t-81.5 200z" />
    <glyph glyph-name="scedilla" unicode="&#x15f;" horiz-adv-x="1138" 
d="M260 707q0 179 148.5 298t384.5 119q193 0 303 -79.5t110 -217.5q0 -31 -10 -77h-276q6 27 6 38q0 50 -48 78.5t-133 28.5q-82 0 -131 -29.5t-49 -79.5q0 -31 27.5 -50t105.5 -42l197 -57q128 -38 189 -100t61 -154q0 -195 -150.5 -311.5t-404.5 -116.5l-53 -82
q47 12 88 12q60 0 94.5 -30.5t34.5 -85.5q0 -99 -85 -159.5t-223 -60.5q-68 0 -125.5 13t-146.5 47l62 104q72 -35 114.5 -48t85.5 -13q58 0 98.5 26.5t40.5 63.5q0 31 -25 49.5t-65 18.5q-42 0 -108 -27l110 174q-25 0 -66 9.5t-94 32.5t-97.5 56t-75.5 87t-31 118
q0 23 8 62h281q2 -42 23.5 -71.5t56 -43.5t67.5 -19.5t70 -5.5q94 0 153.5 31.5t59.5 81.5q0 35 -29.5 55t-126.5 51l-162 52q-135 44 -199.5 106t-64.5 148z" />
    <glyph glyph-name="Scaron" unicode="&#x160;" horiz-adv-x="1366" 
d="M1094 1606h-222l-145 301h160l125 -199l211 199h155zM309 967q0 114 46.5 214.5t130 175.5t209 118t274.5 43q244 0 380 -93.5t136 -259.5q0 -46 -17 -127h-286q4 36 4 47q0 83 -70 126.5t-201 43.5q-139 0 -220 -57.5t-81 -155.5q0 -58 51.5 -89t196.5 -60l223 -45
q157 -31 239.5 -109t82.5 -196q0 -50 -9 -102.5t-32 -111t-57.5 -111.5t-90.5 -102t-126.5 -84.5t-169.5 -57t-215 -21.5q-106 0 -193 17.5t-145.5 48.5t-101.5 70t-66.5 85.5t-34 91t-10.5 90.5q0 35 8 90h299q-4 -36 -4 -47q0 -88 76.5 -136t216.5 -48q159 0 254.5 62
t95.5 165q0 72 -53 109t-193 65l-201 41q-183 37 -264.5 110t-81.5 200z" />
    <glyph glyph-name="scaron" unicode="&#x161;" horiz-adv-x="1138" 
d="M260 707q0 179 148.5 298t384.5 119q193 0 303 -79.5t110 -217.5q0 -31 -10 -77h-276q6 27 6 38q0 50 -48 78.5t-133 28.5q-82 0 -131 -29.5t-49 -79.5q0 -31 27.5 -50t105.5 -42l197 -57q128 -38 189 -100t61 -154q0 -197 -154.5 -313.5t-415.5 -116.5q-104 0 -185.5 21
t-130.5 53.5t-81 75t-43.5 81t-11.5 76.5q0 21 8 62h281q2 -42 23.5 -71.5t56 -43.5t67.5 -19.5t70 -5.5q94 0 153.5 31.5t59.5 81.5q0 35 -29.5 55t-126.5 51l-162 52q-135 44 -199.5 106t-64.5 148zM938 1249h-221l-146 301h160l125 -198l211 198h156z" />
    <glyph glyph-name="Tcedilla" unicode="&#x162;" horiz-adv-x="1251" 
d="M1053 1237l-265 -1237h-75l-82 -125q50 12 88 12q62 0 96.5 -30.5t34.5 -85.5q0 -100 -84.5 -160t-222.5 -60q-69 0 -127.5 13t-145.5 47l62 104q72 -35 114.5 -48t85.5 -13q58 0 99 26.5t41 63.5q0 31 -25 49.5t-65 18.5q-43 0 -109 -27l138 215h-130l264 1237h-454
l55 256h1196l-55 -256h-434z" />
    <glyph glyph-name="tcedilla" unicode="&#x163;" horiz-adv-x="681" 
d="M848 1083l-41 -190h-160l-127 -602q-12 -52 -12 -70q0 -23 21.5 -37t56.5 -14q24 0 67 6l-41 -201q-78 -22 -174 -22h-18l-64 -96q50 12 88 12q62 0 96.5 -31t34.5 -86q0 -99 -84.5 -159t-222.5 -60q-69 0 -127.5 12.5t-144.5 46.5l61 105q72 -35 115 -48.5t86 -13.5
q58 0 98.5 27t40.5 64q0 30 -25 48.5t-65 18.5q-44 0 -108 -26l129 201q-121 38 -121 161q0 36 10 84l143 680h-141l41 190h141l64 297h287l-64 -297h160z" />
    <glyph glyph-name="Tcaron" unicode="&#x164;" horiz-adv-x="1251" 
d="M1053 1237l-265 -1237h-307l264 1237h-454l55 256h1196l-55 -256h-434zM1085 1587h-221l-145 301h160l125 -198l210 198h156z" />
    <glyph glyph-name="tcaron" unicode="&#x165;" horiz-adv-x="909" 
d="M979 1618h250l-43 -197q-15 -120 -106 -210t-208 -99l21 94q68 12 116.5 63t57.5 120h-137zM848 1083l-41 -190h-160l-127 -602q-12 -52 -12 -70q0 -23 21.5 -37t56.5 -14q24 0 67 6l-41 -201q-78 -22 -174 -22q-112 0 -171.5 45.5t-59.5 130.5q0 36 10 84l143 680h-141
l41 190h141l64 297h287l-64 -297h160z" />
    <glyph glyph-name="Tbar" unicode="&#x166;" horiz-adv-x="1251" 
d="M1094 731l-35 -164h-149l-122 -567h-307l121 567h-158l35 164h158l108 506h-454l55 256h1196l-55 -256h-434l-108 -506h149z" />
    <glyph glyph-name="tbar" unicode="&#x167;" horiz-adv-x="827" 
d="M799 731l-35 -164h-186l-58 -276q-12 -52 -12 -70q0 -23 21.5 -37t56.5 -14q24 0 67 6l-41 -201q-78 -22 -174 -22q-112 0 -171.5 45.5t-59.5 130.5q0 36 10 84l75 354h-142l34 164h142l34 162h-141l41 190h141l64 297h287l-64 -297h160l-41 -190h-160l-34 -162h186z" />
    <glyph glyph-name="Utilde" unicode="&#x168;" horiz-adv-x="1478" 
d="M1528 1888q-36 -129 -109.5 -189.5t-163.5 -60.5q-52 0 -104 23l-102 51q-64 29 -91 29q-53 0 -104 -99h-111q35 115 100 177.5t148 62.5q39 0 68 -7t78 -28l102 -43q30 -14 40 -17t28 -3q67 0 110 104h111zM1350 1493h307l-215 -1012q-24 -113 -75.5 -204t-117.5 -150.5
t-149.5 -99.5t-170 -57t-179.5 -17q-232 0 -369 105.5t-137 283.5q0 73 22 180l207 971h307l-215 -1012q-10 -55 -10 -92q0 -82 66 -128t186 -46q140 0 219.5 64t108.5 202z" />
    <glyph glyph-name="utilde" unicode="&#x169;" horiz-adv-x="1251" 
d="M1313 1561q-36 -129 -109.5 -189.5t-163.5 -60.5q-54 0 -104 22l-102 51q-64 29 -91 29q-54 0 -104 -98h-111q35 115 99.5 177t148.5 62q40 0 69 -6.5t77 -27.5l102 -43q43 -20 57 -21h11q66 0 110 105h111zM1108 0h-287l31 139q-83 -98 -171 -142t-202 -44
q-135 0 -217 73.5t-82 196.5q0 50 13 113l163 770h287l-143 -670q-13 -76 -13 -100q0 -75 40 -114.5t116 -39.5q100 0 174.5 74t100.5 199l139 651h286z" />
    <glyph glyph-name="Umacron" unicode="&#x16a;" horiz-adv-x="1478" 
d="M1436 1804l-35 -164h-615l35 164h615zM1350 1493h307l-215 -1012q-24 -113 -75.5 -204t-117.5 -150.5t-149.5 -99.5t-170 -57t-179.5 -17q-232 0 -369 105.5t-137 283.5q0 73 22 180l207 971h307l-215 -1012q-10 -55 -10 -92q0 -82 66 -128t186 -46q140 0 219.5 64
t108.5 202z" />
    <glyph glyph-name="umacron" unicode="&#x16b;" horiz-adv-x="1251" 
d="M1227 1479l-35 -164h-614l34 164h615zM1108 0h-287l31 139q-83 -98 -171 -142t-202 -44q-135 0 -217 73.5t-82 196.5q0 50 13 113l163 770h287l-143 -670q-13 -76 -13 -100q0 -75 40 -114.5t116 -39.5q100 0 174.5 74t100.5 199l139 651h286z" />
    <glyph glyph-name="Ubreve" unicode="&#x16c;" horiz-adv-x="1478" 
d="M1335 1901h86q-22 -126 -115 -209.5t-214 -83.5q-97 0 -157.5 59t-60.5 154q0 32 13 80h86v-17q0 -56 39.5 -86.5t111.5 -30.5q158 0 211 134zM1350 1493h307l-215 -1012q-24 -113 -75.5 -204t-117.5 -150.5t-149.5 -99.5t-170 -57t-179.5 -17q-232 0 -369 105.5
t-137 283.5q0 73 22 180l207 971h307l-215 -1012q-10 -55 -10 -92q0 -82 66 -128t186 -46q140 0 219.5 64t108.5 202z" />
    <glyph glyph-name="ubreve" unicode="&#x16d;" horiz-adv-x="1251" 
d="M1114 1538h86q-22 -126 -115.5 -209.5t-214.5 -83.5q-97 0 -157 59t-60 154q0 32 13 80h86v-16q0 -56 39.5 -86.5t111.5 -30.5q158 0 211 133zM1108 0h-287l31 139q-83 -98 -171 -142t-202 -44q-135 0 -217 73.5t-82 196.5q0 50 13 113l163 770h287l-143 -670
q-13 -76 -13 -100q0 -75 40 -114.5t116 -39.5q100 0 174.5 74t100.5 199l139 651h286z" />
    <glyph glyph-name="Uring" unicode="&#x16e;" horiz-adv-x="1478" 
d="M1155 1952q64 0 106 -41.5t42 -104.5q0 -87 -70 -155t-160 -68q-64 0 -105.5 41.5t-41.5 104.5q0 88 70 155.5t159 67.5zM1135 1849q-42 0 -75.5 -30t-33.5 -68q0 -28 19.5 -46.5t50.5 -18.5q41 0 73.5 31t32.5 69q0 28 -19 45.5t-48 17.5zM1350 1493h307l-215 -1012
q-24 -113 -75.5 -204t-117.5 -150.5t-149.5 -99.5t-170 -57t-179.5 -17q-232 0 -369 105.5t-137 283.5q0 73 22 180l207 971h307l-215 -1012q-10 -55 -10 -92q0 -82 66 -128t186 -46q140 0 219.5 64t108.5 202z" />
    <glyph glyph-name="uring" unicode="&#x16f;" horiz-adv-x="1251" 
d="M948 1554q64 0 106 -41t42 -104q0 -87 -70 -155t-160 -68q-64 0 -105.5 41t-41.5 104q0 88 70 155.5t159 67.5zM928 1452q-42 0 -75.5 -30t-33.5 -68q0 -28 20 -47t50 -19q41 0 73.5 31.5t32.5 69.5q0 28 -19 45.5t-48 17.5zM1108 0h-287l31 139q-83 -98 -171 -142
t-202 -44q-135 0 -217 73.5t-82 196.5q0 50 13 113l163 770h287l-143 -670q-13 -76 -13 -100q0 -75 40 -114.5t116 -39.5q100 0 174.5 74t100.5 199l139 651h286z" />
    <glyph glyph-name="Uhungarumlaut" unicode="&#x170;" horiz-adv-x="1478" 
d="M1350 1493h307l-215 -1012q-24 -113 -75.5 -204t-117.5 -150.5t-149.5 -99.5t-170 -57t-179.5 -17q-232 0 -369 105.5t-137 283.5q0 73 22 180l207 971h307l-215 -1012q-10 -55 -10 -92q0 -82 66 -128t186 -46q140 0 219.5 64t108.5 202zM1296 1880l-323 -301h-144
l209 301h258zM1681 1880l-323 -301h-144l209 301h258z" />
    <glyph glyph-name="uhungarumlaut" unicode="&#x171;" horiz-adv-x="1251" 
d="M1108 0h-287l31 139q-83 -98 -171 -142t-202 -44q-135 0 -217 73.5t-82 196.5q0 50 13 113l163 770h287l-143 -670q-13 -76 -13 -100q0 -75 40 -114.5t116 -39.5q100 0 174.5 74t100.5 199l139 651h286zM1071 1550l-323 -301h-144l209 301h258zM1456 1550l-323 -301h-144
l209 301h258z" />
    <glyph glyph-name="Uogonek" unicode="&#x172;" horiz-adv-x="1478" 
d="M1165 -352l-22 -107q-92 -18 -156 -18q-136 0 -211.5 40.5t-75.5 114.5q0 43 13.5 82t39.5 69.5t51 53.5t61.5 44t56 30.5t47.5 22.5q-138 -27 -215 -27q-235 0 -372.5 104.5t-137.5 284.5q0 73 22 180l207 971h307l-215 -1012q-10 -55 -10 -92q0 -82 66 -128t186 -46
q140 0 219.5 64t108.5 202l215 1012h307l-215 -1012q-22 -96 -56 -170t-70.5 -118t-83 -85t-87.5 -70t-89.5 -73.5t-84.5 -93.5q-66 -89 -66 -156q0 -90 115 -90q74 0 145 23z" />
    <glyph glyph-name="uogonek" unicode="&#x173;" horiz-adv-x="1251" 
d="M1343 1106l-235 -1106q-123 -63 -189.5 -138.5t-66.5 -152.5q0 -84 109 -84q65 0 139 23l-23 -107q-65 -13 -84 -15.5t-59 -2.5q-285 0 -285 162q0 92 74.5 169t230.5 146h-133l31 139q-83 -98 -171 -142t-202 -44q-135 0 -217 73.5t-82 196.5q0 50 13 113l163 770h287
l-143 -670q-13 -76 -13 -100q0 -75 40 -114.5t116 -39.5q100 0 174.5 74t100.5 199l139 651h286z" />
    <glyph glyph-name="Wcircumflex" unicode="&#x174;" horiz-adv-x="1933" 
d="M1272 1921h221l145 -301h-159l-125 199l-211 -199h-156zM1495 0h-276l-9 1137l-485 -1137h-276l-105 1493h326l-6 -1118l458 1118h324l-6 -1122l461 1122h325z" />
    <glyph glyph-name="wcircumflex" unicode="&#x175;" horiz-adv-x="1593" 
d="M1028 1612h221l146 -301h-160l-125 198l-211 -198h-156zM1264 0h-297l-11 778l-340 -778h-294l-76 1106h297l10 -774l326 774h295v-774l333 774h297z" />
    <glyph glyph-name="Ycircumflex" unicode="&#x176;" horiz-adv-x="1366" 
d="M991 1903h221l146 -301h-160l-125 198l-211 -198h-155zM977 553l-119 -553h-307l119 553l-297 940h342l168 -645l424 645h342z" />
    <glyph glyph-name="ycircumflex" unicode="&#x177;" horiz-adv-x="1138" 
d="M799 1612h221l145 -301h-159l-125 198l-211 -198h-156zM1042 1106h295l-733 -1307q-38 -71 -54 -93q-115 -155 -384 -155q-49 0 -90 9l47 223q23 -4 57 -4q106 0 169 51.5t63 138.5q-27 218 -83.5 609t-74.5 528h315l74 -805z" />
    <glyph glyph-name="Ydieresis" unicode="&#x178;" horiz-adv-x="1366" 
d="M1409 1886l-53 -246h-226l54 246h225zM1008 1886l-54 -246h-225l53 246h226zM977 553l-119 -553h-307l119 553l-297 940h342l168 -645l424 645h342z" />
    <glyph glyph-name="Zacute" unicode="&#x179;" horiz-adv-x="1251" 
d="M1264 1919l-324 -307h-143l209 307h258zM1501 1493l-55 -256l-971 -981h764l-55 -256h-1123l56 256l970 981h-763l55 256h1122z" />
    <glyph glyph-name="zacute" unicode="&#x17a;" horiz-adv-x="1024" 
d="M1135 1542l-324 -307h-143l209 307h258zM1178 1106l-50 -232l-679 -643h561l-49 -231h-918l49 231l684 643h-510l49 232h863z" />
    <glyph glyph-name="Zdotaccent" unicode="&#x17b;" horiz-adv-x="1251" 
d="M1501 1493l-55 -256l-971 -981h764l-55 -256h-1123l56 256l970 981h-763l55 256h1122zM1126 1888l-53 -246h-225l53 246h225z" />
    <glyph glyph-name="zdotaccent" unicode="&#x17c;" horiz-adv-x="1024" 
d="M950 1520l-53 -246h-225l53 246h225zM1178 1106l-50 -232l-679 -643h561l-49 -231h-918l49 231l684 643h-510l49 232h863z" />
    <glyph glyph-name="Zcaron" unicode="&#x17d;" horiz-adv-x="1251" 
d="M1501 1493l-55 -256l-971 -981h764l-55 -256h-1123l56 256l970 981h-763l55 256h1122zM1028 1606h-221l-145 301h159l125 -199l211 199h156z" />
    <glyph glyph-name="zcaron" unicode="&#x17e;" horiz-adv-x="1024" 
d="M887 1243h-221l-146 301h160l125 -198l211 198h155zM1178 1106l-50 -232l-679 -643h561l-49 -231h-918l49 231l684 643h-510l49 232h863z" />
    <glyph glyph-name="longs" unicode="&#x17f;" horiz-adv-x="681" 
d="M471 0h-287l191 893h-158l41 190h156l28 134q31 143 115.5 209.5t235.5 66.5q28 0 157 -6l-45 -215q-73 8 -86 8q-76 0 -94 -88z" />
    <glyph glyph-name="uni0180" unicode="&#x180;" horiz-adv-x="1251" 
d="M537 193q75 0 139 45.5t103.5 115t62 148t22.5 149.5q0 107 -48 170.5t-132 63.5q-74 0 -133.5 -38.5t-94.5 -94.5t-59 -123.5t-32.5 -119t-8.5 -87.5q0 -107 47.5 -168t133.5 -61zM1157 707q0 -99 -27.5 -205t-82 -203.5t-126.5 -175t-169 -124t-203 -46.5
q-204 0 -270 160l-25 -113h-287l260 1221h-123l29 137h123l29 135h286l-28 -135h272l-29 -137h-272l-55 -258q133 161 340 161q163 0 260.5 -113.5t97.5 -303.5z" />
    <glyph glyph-name="uni0181" unicode="&#x181;" horiz-adv-x="1972" 
d="M1231 256q63 0 113 16.5t79.5 42t48.5 59.5t26 65t7 63q0 141 -192 141h-367l-82 -387h367zM1335 899q73 0 126 20.5t80.5 54t39.5 67.5t12 69q0 62 -47.5 94.5t-138.5 32.5h-334l-72 -338h334zM1485 1493q100 0 176.5 -22t120 -55.5t70.5 -79t35.5 -85t8.5 -82.5
q0 -45 -11.5 -87.5t-27.5 -74.5t-43 -63.5t-48 -50.5t-52.5 -41.5t-46.5 -31.5t-40 -23q-2 -1 -3.5 -2t-3.5 -2q178 -118 178 -285q0 -106 -62.5 -218t-160.5 -181q-79 -57 -174.5 -83t-224.5 -26h-672l252 1186h-135q-110 0 -156.5 -44t-46.5 -102q0 -45 41 -65.5
t131 -20.5l-64 -307q-381 0 -381 311q0 148 66 269t190 193.5t283 72.5h801z" />
    <glyph glyph-name="uni0182" unicode="&#x182;" horiz-adv-x="1478" 
d="M999 899q109 0 194 -25t135 -63.5t81.5 -91t43 -101.5t11.5 -102q0 -115 -64 -227t-161 -180q-79 -57 -174.5 -83t-224.5 -26h-672l317 1493h1049l-55 -256h-742l-71 -338h333zM897 256q63 0 113 16.5t79.5 42t48.5 59.5t26 65t7 63q0 141 -192 141h-367l-82 -387h367z
" />
    <glyph glyph-name="uni0183" unicode="&#x183;" horiz-adv-x="1251" 
d="M684 885q-74 0 -133.5 -38t-94.5 -93t-59 -122t-32.5 -119.5t-8.5 -90.5q0 -107 47.5 -168t133.5 -61q75 0 139 45.5t103.5 115t62 148t22.5 149.5q0 107 -48 170.5t-132 63.5zM1155 700q0 -129 -37.5 -247.5t-99.5 -207.5t-140.5 -156t-163.5 -101.5t-165 -34.5
q-204 0 -270 160l-25 -113h-287l318 1493h776l-55 -256h-490l-57 -274q133 161 340 161q49 0 95.5 -11t95 -40.5t84 -75.5t58.5 -122.5t23 -174.5z" />
    <glyph glyph-name="uni0184" unicode="&#x184;" horiz-adv-x="1406" 
d="M1251 604q0 -270 -163.5 -437t-430.5 -167h-659l203 958l-166 154l586 381l-113 -532h383q171 0 265.5 -95t94.5 -262zM645 256q69 0 123 19.5t86 49.5t52.5 70.5t28 79t7.5 78.5q0 152 -201 152h-286l-97 -449h287z" />
    <glyph glyph-name="uni0185" unicode="&#x185;" horiz-adv-x="1251" 
d="M537 193q75 0 139 45.5t103.5 115t62 148t22.5 149.5q0 107 -48 170.5t-132 63.5q-74 0 -133.5 -38.5t-94.5 -94.5t-59 -123.5t-32.5 -119t-8.5 -87.5q0 -107 47.5 -168t133.5 -61zM1157 707q0 -99 -27.5 -205t-82 -203.5t-126.5 -175t-169 -124t-203 -46.5
q-204 0 -270 160l-25 -113h-287l215 1010l-164 166l553 317l-112 -530q133 161 340 161q163 0 260.5 -113.5t97.5 -303.5z" />
    <glyph glyph-name="uni0186" unicode="&#x186;" horiz-adv-x="1478" 
d="M1540 989q0 -214 -66.5 -405.5t-181.5 -330t-277.5 -219.5t-346.5 -81q-238 0 -385.5 118.5t-147.5 309.5q0 26 8 102h289q0 -127 63 -197.5t207 -70.5q93 0 172 32.5t132 84t95.5 120t66.5 136.5t40 138t21.5 119t5.5 85q0 325 -301 325q-148 0 -253 -76.5t-149 -217.5
h-292q67 262 262 409.5t475 147.5q262 0 412.5 -141.5t150.5 -387.5z" />
    <glyph glyph-name="uni0187" unicode="&#x187;" horiz-adv-x="1540" 
d="M893 1255q-90 0 -167 -32.5t-129 -85t-93 -121.5t-65 -137t-39.5 -137t-21 -117.5t-5.5 -81.5q0 -159 74.5 -245.5t214.5 -86.5q146 0 254.5 79.5t138.5 219.5h299q-36 -168 -145 -295t-267.5 -194.5t-343.5 -67.5q-255 0 -396 144.5t-141 400.5q0 109 27 235
q77 362 305.5 573.5t544.5 211.5q204 0 340 -91q34 55 89.5 80t143.5 25q76 0 168 -10l-49 -230q-6 2 -9.5 4t-4.5 2.5t-4.5 1t-9.5 0.5q-46 0 -70.5 -19.5t-34.5 -66.5l-49 -227h-293q0 268 -262 268z" />
    <glyph glyph-name="uni0188" unicode="&#x188;" horiz-adv-x="1150" 
d="M45 352q0 119 29.5 232.5t87.5 211t138 171t187 115.5t228 42q144 0 235 -55q74 74 221 74q61 0 156 -10l-49 -230q-24 8 -49 8q-46 0 -70 -19.5t-33 -66.5l-26 -133h-275q-2 109 -38 155t-123 46q-78 0 -139.5 -44t-95 -105t-55.5 -135t-29 -125t-7 -83q0 -103 45 -160
t129 -57q83 0 140 46t108 153h274q-63 -198 -217.5 -314t-355.5 -116t-308.5 103.5t-107.5 295.5z" />
    <glyph glyph-name="uni0189" unicode="&#x189;" horiz-adv-x="1478" 
d="M307 698h-157l34 164h156l135 631h584q278 0 404 -121.5t126 -390.5q0 -181 -60 -362t-169 -332q-113 -155 -254.5 -221t-364.5 -66h-583zM614 698l-94 -442h275q134 0 217 48t149 163q53 91 88 232t35 262q0 276 -280 276h-277l-80 -375h357l-35 -164h-355z" />
    <glyph glyph-name="uni018A" unicode="&#x18a;" horiz-adv-x="1982" 
d="M1141 256q83 0 153 30.5t117.5 79t85 114t59.5 130.5t36 133t19 117.5t5 87.5q0 289 -266 289h-277l-209 -981h277zM1403 1493q96 0 171 -13.5t143 -49t112 -92.5t70 -147.5t26 -211.5q0 -227 -92 -447t-238 -358q-95 -91 -216.5 -132.5t-291.5 -41.5h-583l252 1186h-135
q-110 0 -156.5 -44t-46.5 -102q0 -45 41 -65.5t131 -20.5l-64 -307q-381 0 -381 311q0 148 66 269t190 193.5t283 72.5h719z" />
    <glyph glyph-name="uni018B" unicode="&#x18b;" horiz-adv-x="1478" 
d="M782 899h333l72 338h-741l54 256h1048l-317 -1493h-672q-441 0 -441 344q0 68 24 142t78 148t129 132.5t188 95.5t245 37zM611 256h366l83 387h-367q-69 0 -122 -20t-81 -48t-45.5 -64.5t-22.5 -63t-5 -49.5q0 -63 45 -102.5t149 -39.5z" />
    <glyph glyph-name="uni018C" unicode="&#x18c;" horiz-adv-x="1251" 
d="M732 885q-88 0 -164 -68t-119.5 -173.5t-43.5 -218.5q0 -102 44.5 -167t136.5 -65q72 0 135 43.5t104 113t64.5 153.5t23.5 166q0 45 -9 81.5t-28.5 68t-56 49t-87.5 17.5zM720 1124q206 0 271 -161l59 274h-489l53 256h776l-317 -1493h-287l24 113q-134 -160 -338 -160
q-151 0 -256 117t-105 308q0 90 26 191t78.5 199.5t124 178t171 128.5t209.5 49z" />
    <glyph glyph-name="uni018d" unicode="&#x18d;" horiz-adv-x="1247" 
d="M731 872q-93 0 -166.5 -35t-113.5 -84t-66.5 -110t-34.5 -106t-8 -78q0 -91 53.5 -140t161.5 -49q69 0 127.5 24.5t97 64.5t67.5 87t44.5 96.5t23 87.5t7.5 66q0 176 -193 176zM1227 774q0 -83 -21.5 -171.5t-68 -178t-112 -164t-162.5 -130t-210 -75.5l269 -215
l-56 -209h-927l63 232h449l-191 155q-3 3 -26 22t-33.5 29t-34 33.5t-36.5 42t-31 48t-28 58t-17 66t-7 76.5q0 45 7.5 99t29.5 126.5t56.5 140.5t94 135.5t135 117.5t187 81t244.5 31q103 0 182 -23.5t124 -59.5t73 -85t37.5 -92.5t9.5 -89.5z" />
    <glyph glyph-name="uni018E" unicode="&#x18e;" horiz-adv-x="1366" 
d="M1056 643h-715l56 256h714l72 338h-774l54 256h1081l-317 -1493h-1116l53 256h809z" />
    <glyph glyph-name="uni018F" unicode="&#x18f;" horiz-adv-x="1593" 
d="M432 600q0 -96 21.5 -168.5t53.5 -112.5t77.5 -64.5t84.5 -32t83 -7.5q156 0 285.5 104.5t197.5 280.5h-803zM121 537q0 156 55 319h1114q0 38 -1.5 66.5t-8.5 72.5t-19 77t-35.5 69.5t-56 59.5t-83 38.5t-113.5 15.5q-117 0 -219.5 -58t-178.5 -165h-321q20 37 43 72.5
t63 86t84.5 93.5t108 87.5t132 75.5t157.5 51t184 20q133 0 236.5 -36.5t166 -93.5t103 -136t55.5 -156t15 -160q0 -107 -26.5 -219.5t-77 -222.5t-129 -207.5t-176 -172t-226 -118t-271.5 -43.5q-132 0 -235.5 37t-166 95t-103 137.5t-55.5 156t-15 158.5z" />
    <glyph glyph-name="uni0190" unicode="&#x190;" horiz-adv-x="1376" 
d="M291 365q0 -78 70 -122t196 -44q156 0 254.5 63.5t130.5 183.5h299q-62 -239 -245.5 -366t-469.5 -127q-254 0 -391 99.5t-137 281.5q0 36 4.5 73.5t20.5 91t42.5 100t75 94t113.5 79.5q-82 73 -82 193q0 247 182.5 400t481.5 153q98 0 178 -15.5t133.5 -43t92.5 -61.5
t60.5 -76t31 -81.5t9.5 -81.5q0 -53 -12 -121h-287q2 12 2 37q0 97 -68.5 147t-201.5 50q-134 0 -216.5 -63.5t-82.5 -170.5q0 -161 246 -161h156l-48 -246h-208q-148 0 -239 -75.5t-91 -190.5z" />
    <glyph glyph-name="uni0191" unicode="&#x191;" horiz-adv-x="1251" 
d="M539 899h653l-55 -256h-652l-176 -836q-29 -135 -101 -194t-206 -59q-73 0 -168 10l49 229q5 -2 8.5 -3.5t4.5 -2t2.5 -1.5t4 -1h7.5q46 0 69.5 19.5t32.5 66.5l346 1622h1049l-55 -256h-742z" />
    <glyph glyph-name="florin" unicode="&#x192;" horiz-adv-x="681" 
d="M871 1083l-40 -190h-170l-231 -1086q-28 -135 -100 -194t-206 -59q-75 0 -168 10l49 229q25 -8 50 -8q46 0 69 19.5t33 66.5l217 1022h-156l41 190h156l28 134q59 276 341 276q85 0 163 -6l-46 -215q-36 6 -80 6q-79 0 -97 -86l-23 -109h170z" />
    <glyph glyph-name="uni0193" unicode="&#x193;" horiz-adv-x="1593" 
d="M920 1255q-94 0 -174 -30t-134.5 -78t-97.5 -111.5t-68 -126.5t-41.5 -128t-22 -111t-5.5 -80q0 -170 88.5 -272.5t241.5 -102.5q83 0 163 31.5t138 80.5t97.5 107t51.5 113h-340l53 256h598l-170 -803h-184l4 193q-114 -126 -233 -183t-269 -57q-253 0 -404 160.5
t-151 421.5q0 85 23 200q75 349 321 566t568 217q217 0 362 -93q34 56 90.5 81.5t145.5 25.5q76 0 168 -10l-49 -230q-7 2 -11 4.5t-7 3t-11 0.5q-46 0 -70.5 -19.5t-34.5 -66.5l-43 -198h-288q-33 239 -305 239z" />
    <glyph glyph-name="uni0194" unicode="&#x194;" horiz-adv-x="1366" 
d="M762 279q-58 -48 -58 -84q0 -14 9 -22.5t24 -8.5q22 0 37 15.5t15 42.5q0 24 -27 57zM976 553q74 -179 74 -329q0 -61 -25.5 -109t-63.5 -76.5t-88 -47t-94 -25.5t-85 -7q-127 0 -197.5 45.5t-70.5 123.5q0 66 67 181t175 244l-295 940h342l165 -659l424 659h345z" />
    <glyph glyph-name="uni0195" unicode="&#x195;" horiz-adv-x="1925" 
d="M965 676q10 45 10 74q0 131 -141 131q-97 0 -173 -61t-96 -156l-141 -664h-287l318 1493h286l-116 -547q156 178 362 178q55 0 103.5 -12.5t93 -41t70.5 -83t26 -129.5q0 -57 -14 -117l-54 -254q-18 -79 -18 -137q0 -70 36 -102.5t124 -32.5q59 0 101.5 18t71.5 57t47 88
t34 122l129 606h282l-143 -672q-21 -103 -63.5 -185t-110 -147t-168.5 -100t-229 -35q-117 0 -198.5 21t-127.5 62t-66 93t-20 121q0 68 20 170z" />
    <glyph glyph-name="uni0196" unicode="&#x196;" horiz-adv-x="569" 
d="M399 199q-5 -30 -5 -34q0 -7 6 -9t32 -2q46 0 70 6l68 18l-54 -254l-43 -7q-83 -15 -152 -15q-105 0 -161 44t-56 123q0 25 6 54l302 1421h273z" />
    <glyph glyph-name="uni0197" unicode="&#x197;" horiz-adv-x="808" 
d="M219 600h-250l51 256h253l135 637h307l-135 -637h245l-53 -256h-246l-127 -600h-307z" />
    <glyph glyph-name="uni0198" unicode="&#x198;" horiz-adv-x="1593" 
d="M1430 1163q0 24 -20 54t-64 30q-42 0 -91 -30l-428 -367l480 -850h-367l-350 659l-187 -159l-106 -500h-307l317 1493h307l-139 -655l567 508q205 180 361 180q114 0 201.5 -87.5t87.5 -178.5q0 -228 -234 -431l-145 168q117 102 117 166z" />
    <glyph glyph-name="uni0199" unicode="&#x199;" horiz-adv-x="1138" 
d="M551 676l453 430h325l-465 -418l258 -688h-336l-161 487l-142 -125l-75 -362h-287l262 1239q29 135 100.5 194.5t204.5 59.5q76 0 168 -10l-47 -230q-30 9 -51 9q-46 0 -69 -19.5t-32 -66.5z" />
    <glyph glyph-name="uni019a" unicode="&#x19a;" horiz-adv-x="681" 
d="M339 643h-254l51 240h254l141 661h274l-140 -661h256l-51 -240h-256l-148 -694h-274z" />
    <glyph glyph-name="uni019b" unicode="&#x19b;" horiz-adv-x="1269" 
d="M725 684l-396 -688h-295l567 949l-337 -185l39 182l353 194q-12 71 -37 92t-71 21q-32 0 -75.5 -9t-90.5 -13l83 250q105 36 164 36q63 0 110.5 -18.5t78 -54t49 -76.5t31.5 -96l320 176l-38 -180l-255 -141l5 -33l130 -797q7 -40 11 -51t12 -11q22 0 108 43l19 -229
q-154 -72 -235 -72q-38 0 -66 10t-44.5 24.5t-28 41.5t-16.5 49t-11 58q-81 505 -84 528z" />
    <glyph glyph-name="uni019C" unicode="&#x19c;" horiz-adv-x="1820" 
d="M1550 0h-305l31 137q-89 -85 -165 -120t-171 -35q-103 0 -173 42.5t-93 120.5q-83 -86 -168.5 -124.5t-190.5 -38.5q-144 0 -227.5 68t-83.5 190q0 32 10 84l248 1169h307l-233 -1104q-4 -24 -4 -37q0 -50 34 -78t95 -28q91 0 150 57t83 160l217 1030h308l-234 -1104
q-4 -14 -4 -41q0 -48 30 -75t89 -27q92 0 156 57.5t87 159.5l218 1030h307z" />
    <glyph glyph-name="uni019D" unicode="&#x19d;" horiz-adv-x="1478" 
d="M350 1493h312l374 -1016l217 1016h308l-318 -1493h-307l-381 1028l-258 -1221q-29 -135 -101 -194t-206 -59q-73 0 -168 10l49 229q6 -2 10.5 -4t6 -2.5t5 -1t9.5 -0.5q46 0 69.5 19.5t32.5 66.5z" />
    <glyph glyph-name="uni019E" unicode="&#x19e;" horiz-adv-x="1251" 
d="M289 1106h286l-34 -160q82 93 170 135.5t200 42.5q147 0 224 -69.5t77 -200.5q0 -52 -12 -113l-246 -1153h-286l233 1094q8 50 8 66q0 133 -151 133q-104 0 -180.5 -59.5t-96.5 -157.5l-141 -664h-287z" />
    <glyph glyph-name="uni019F" unicode="&#x19f;" horiz-adv-x="1593" 
d="M965 1518q133 0 236 -36.5t165.5 -93.5t103 -136t55.5 -156t15 -160q0 -115 -28.5 -232t-81 -226.5t-132.5 -205t-178 -166.5t-223 -112t-262 -41q-96 0 -176.5 19.5t-139 52t-104 79t-74.5 97.5t-48 110t-26.5 114t-7.5 112q0 86 18.5 179.5t56.5 189t92 184.5t130 167
t165.5 136t204 91.5t239.5 33.5zM371 600v-27q0 -167 84 -262.5t235 -95.5q156 0 286 104.5t198 280.5h-803zM1229 856q0 7 1 21.5t1 21.5q0 168 -83.5 262t-236.5 94q-160 0 -290.5 -107.5t-196.5 -291.5h805z" />
    <glyph glyph-name="Ohorn" unicode="&#x1a0;" horiz-adv-x="1654" 
d="M1063 1255q-89 0 -166 -29.5t-130.5 -77t-97.5 -111t-70.5 -128t-44.5 -130.5t-25 -117t-7 -89q0 -167 84.5 -262.5t235.5 -95.5q153 0 278.5 99.5t192.5 255t67 329.5q0 168 -83 262t-234 94zM1116 1518q307 0 461 -198q70 87 78 243h291q-5 -59 -31.5 -112t-61 -89
t-78 -67t-76 -47.5t-62.5 -27.5q55 -122 55 -278q0 -194 -69.5 -374.5t-189 -316t-289.5 -217t-360 -81.5q-271 0 -423 156t-152 417q0 113 28 229.5t79.5 227t131.5 207.5t178 170t224.5 115.5t265.5 42.5z" />
    <glyph glyph-name="ohorn" unicode="&#x1a1;" horiz-adv-x="1378" 
d="M809 893q-100 0 -181.5 -72.5t-124 -179t-42.5 -217.5t51.5 -175.5t144.5 -64.5q92 0 172.5 64t128.5 173t48 234q0 111 -51.5 174.5t-145.5 63.5zM1591 1198q-6 -67 -39 -127t-75 -97.5t-87 -65.5t-74.5 -40t-36.5 -12q19 -64 19 -147q0 -106 -26.5 -212t-83 -204
t-136 -173.5t-194.5 -121t-250 -45.5q-211 0 -325.5 109t-114.5 307q0 84 18.5 170.5t54 171.5t93.5 159t132 131t174.5 90t215.5 33q262 0 373 -160q63 86 71 234h291z" />
    <glyph glyph-name="uni01A2" unicode="&#x1a2;" horiz-adv-x="2275" 
d="M948 1255q-89 0 -165.5 -29.5t-130.5 -77t-97.5 -111t-70 -128t-44.5 -130.5t-25 -117t-7 -89q0 -167 84 -262.5t235 -95.5q184 0 327 141.5t193 370.5q19 97 19 172q0 168 -83 262t-235 94zM119 735q36 169 118 314t196 248.5t261 162t307 58.5q284 0 426 -158
q169 180 435 180q194 0 296.5 -82.5t102.5 -236.5q0 -55 -12 -117l-322 -1514h-307l322 1514q6 27 6 53q0 59 -35 90t-101 31q-88 0 -136 -46t-70 -149l-29 -135v-18q0 -87 -23 -205q-34 -160 -115 -301t-194.5 -245.5t-262.5 -165t-312 -60.5q-271 0 -422.5 157t-151.5 418
q0 104 23 207z" />
    <glyph glyph-name="uni01a3" unicode="&#x1a3;" horiz-adv-x="1478" 
d="M749 895q-118 0 -207.5 -96.5t-126.5 -270.5q-15 -68 -15 -136q0 -112 50 -171t143 -59q117 0 207 95t126 265q16 74 16 143q0 103 -45 166.5t-148 63.5zM1588 756l-258 -1217h-275l267 1258q10 53 10 67q0 2 -0.5 6t-0.5 6q-2 30 -31 34q-3 1 -17 1q-48 0 -79 -10
q26 -80 26 -177q0 -94 -24 -204q-61 -285 -241 -451.5t-427 -166.5q-205 0 -315 113t-110 319q0 91 22 194q62 292 241 459.5t427 167.5q168 0 272 -74q144 74 272 74q138 0 200 -58.5t62 -175.5q0 -65 -21 -165z" />
    <glyph glyph-name="uni01A4" unicode="&#x1a4;" horiz-adv-x="1871" 
d="M1264 788q85 0 146 28t92.5 74.5t45 94t13.5 98.5q0 154 -201 154h-287l-96 -449h287zM145 958q0 148 66 269t190 193.5t283 72.5h795q196 0 297.5 -84t101.5 -246q0 -55 -16 -133q-47 -227 -198 -362.5t-357 -135.5h-383l-113 -532h-307l252 1186h-135
q-110 0 -156.5 -44t-46.5 -102q0 -45 41 -65.5t131 -20.5l-64 -307q-381 0 -381 311z" />
    <glyph glyph-name="uni01A5" unicode="&#x1a5;" horiz-adv-x="1251" 
d="M760 885q-72 0 -131.5 -38.5t-95 -94.5t-59.5 -123.5t-33 -120t-9 -88.5q0 -106 48 -168t132 -62q74 0 134.5 39t95.5 95t59 123.5t32.5 119.5t8.5 88q0 107 -47.5 168.5t-134.5 61.5zM1212 528q-52 -248 -219 -412.5t-364 -164.5q-104 0 -170.5 44t-100.5 136l-122 -577
h-287l330 1552h286l-35 -164q142 182 347 182q113 0 204 -59q73 82 230 82q73 0 168 -10l-49 -230q-27 8 -50 8q-46 0 -69.5 -19.5t-32.5 -66.5z" />
    <glyph glyph-name="uni01a6" unicode="&#x1a6;" horiz-adv-x="1325" 
d="M559 608h250q85 0 129.5 30t59.5 99q5 25 5 42q0 102 -136 102h-250zM511 383l-81 -383h-307l317 1493h307l-82 -387h309q91 0 157.5 -23t101 -62.5t50 -83t15.5 -93.5q0 -38 -8 -76q-18 -86 -66 -162t-105 -119q104 -50 104 -195q0 -60 -16 -134l-74 -346q-7 -34 -7 -61
q0 -25 8 -43.5t15.5 -25t22.5 -16.5l-12 -55h-329q-18 54 -18 97q0 45 16 118l76 356q4 16 4 36q0 72 -57 118.5t-136 46.5h-205z" />
    <glyph glyph-name="uni01A7" unicode="&#x1a7;" horiz-adv-x="1366" 
d="M986 657l-218 -41q-125 -22 -187 -50q-149 -66 -149 -197q0 -72 71 -113t199 -41q93 0 166 22t111 49t65.5 66t33 55.5t10.5 35.5l1 3h299q-29 -105 -89 -192.5t-151.5 -155.5t-223 -106.5t-289.5 -38.5q-113 0 -201 20.5t-143.5 54t-91 80.5t-50 97t-14.5 108
q0 31 3 62.5t15.5 79.5t33 91.5t58.5 92t89 87.5t129 72t174 50l242 45q55 10 91.5 18.5t78 21.5t67.5 29t48.5 38t33 51.5t10.5 66.5q0 65 -59 101t-169 36q-295 0 -356 -211q-1 -4 -2 -6h-287q27 130 96.5 226t167 150t206.5 79t233 25q227 0 349 -95t122 -253
q0 -291 -263 -430q-105 -55 -260 -83z" />
    <glyph glyph-name="uni01A8" unicode="&#x1a8;" horiz-adv-x="1138" 
d="M809 453l-184 -52q-114 -32 -149 -52q-58 -32 -58 -82q0 -38 46 -61.5t125 -23.5q37 0 72.5 5.5t76 19.5t74.5 43.5t54 71.5h280q-16 -73 -64.5 -139t-123 -117.5t-181.5 -82t-232 -30.5q-203 0 -313 72t-110 200q0 39 7 76.5t32 88.5t65.5 94t115.5 84.5t175 68.5
l221 57q44 12 69 20.5t54 23t42.5 34.5t13.5 47q0 35 -37.5 55.5t-103.5 20.5q-64 0 -111.5 -15t-70 -36t-36 -42.5t-16.5 -36.5l-2 -15h-277q24 120 108.5 206t201 127t253.5 41q184 0 285.5 -74.5t101.5 -198.5q0 -69 -24 -127.5t-61 -99.5t-92.5 -75t-108.5 -55.5
t-118 -40.5z" />
    <glyph glyph-name="uni01A9" unicode="&#x1a9;" horiz-adv-x="1409" 
d="M1260 -51h-1262l61 252l617 590l-277 489l60 242h1151l-68 -275h-754l259 -456l-598 -568h878z" />
    <glyph glyph-name="uni01aa" unicode="&#x1aa;" horiz-adv-x="903" 
d="M649 1286q-33 0 -62.5 -25.5t-29.5 -60.5q0 -25 17.5 -42t43.5 -17q34 0 64.5 26.5t30.5 61.5q0 26 -18 41.5t-46 15.5zM571 911q-108 0 -176.5 69t-68.5 173q0 137 114 250t258 113q117 0 182.5 -61t65.5 -167q0 -20 -8 -78l-279 -1304q-6 -42 -6 -49q0 -21 15 -31
t63 -10q6 0 39 2l53 4l-51 -242l-43 -10q-41 -6 -67 -6q-144 0 -219.5 53.5t-75.5 155.5q0 30 6 65l229 1075q-10 -2 -31 -2z" />
    <glyph glyph-name="uni01AB" unicode="&#x1ab;" horiz-adv-x="681" 
d="M748 1083l-41 -190h-160l-127 -602q-10 -45 -10 -66q0 -32 17.5 -43.5t59.5 -11.5q21 0 68 6l-78 -369q-29 -135 -101 -194t-206 -59q-73 0 -168 10l49 229q24 -8 49 -8q46 0 70 19.5t33 66.5l20 98q-117 37 -117 164q0 27 11 80l143 680h-141l41 190h141l64 297h286
l-63 -297h160z" />
    <glyph glyph-name="uni01AC" unicode="&#x1ac;" horiz-adv-x="1519" 
d="M688 1493h963l-54 -256h-436l-262 -1237h-307l262 1237h-219q-61 0 -106 -16t-65.5 -40t-29 -42.5t-8.5 -32.5q0 -43 45.5 -71.5t134.5 -28.5l-55 -256q-113 0 -187 23t-126 87q-39 49 -57.5 90t-18.5 94q0 23 6 54.5t22 75.5t40.5 86.5t66 85t94.5 75t130 52.5t167 20z
" />
    <glyph glyph-name="uni01AD" unicode="&#x1ad;" horiz-adv-x="681" 
d="M692 1083l-39 -190h-159l-129 -602q-9 -41 -9 -66q0 -31 18 -43t60 -12q22 0 66 6l-43 -201q-73 -22 -170 -22q-234 0 -234 180q0 41 8 80l146 680h-141l38 190h142l35 156q28 135 99.5 194.5t205.5 59.5q73 0 168 -10l-49 -230q-27 9 -50 9q-46 0 -68.5 -19.5
t-33.5 -66.5l-21 -93h160z" />
    <glyph glyph-name="uni01AE" unicode="&#x1ae;" horiz-adv-x="1251" 
d="M330 -193l303 1430h-453l56 256h1196l-56 -256h-436l-291 -1366q-2 -12 -2 -31q0 -55 53 -55q16 0 48 8l-50 -229q-95 -10 -172 -10q-108 0 -158.5 38t-50.5 123q0 35 13 92z" />
    <glyph glyph-name="Uhorn" unicode="&#x1af;" horiz-adv-x="1615" 
d="M737 -47q-71 0 -136.5 10.5t-132 38.5t-115 70.5t-79 112.5t-30.5 159q0 68 14 137l215 1012h307l-215 -1012q-10 -52 -10 -84q0 -182 240 -182q144 0 227.5 65.5t112.5 200.5l215 1012h50q255 25 273 340h291q-5 -59 -31.5 -112t-60.5 -89t-78 -67t-76 -47t-62 -27
l-214 -1010q-26 -121 -84 -216t-130 -152.5t-160.5 -94.5t-168.5 -51t-162 -14z" />
    <glyph glyph-name="uhorn" unicode="&#x1b0;" horiz-adv-x="1400" 
d="M1108 0h-287l29 131q-82 -93 -170.5 -135.5t-200.5 -42.5q-146 0 -223.5 69.5t-77.5 200.5q0 51 12 113l164 770h287l-152 -711q-8 -50 -8 -67q0 -131 152 -131q104 0 179.5 59.5t96.5 157.5l148 692q73 0 128 22t86.5 54.5t51.5 81t27 90.5t10 94h291q-5 -59 -31.5 -112
t-60.5 -89t-78 -67t-76 -47t-62 -27z" />
    <glyph glyph-name="uni01B1" unicode="&#x1b1;" horiz-adv-x="1597" 
d="M106 489q0 231 109 435.5t301 330.5h-242l64 258h663l-61 -247q-38 -14 -78 -33.5t-95 -54t-103.5 -75t-98 -98.5t-85 -123.5t-57.5 -152t-22 -180.5q0 -48 9 -94t33 -95.5t61 -86t98.5 -60t140.5 -23.5q100 0 192 42.5t161 113t121 159.5t79 186t27 188q0 272 -236 385
l62 249h643l-63 -258h-250q129 -143 129 -348q0 -86 -22 -180t-64.5 -188.5t-102 -183.5t-139 -165.5t-170 -134t-200.5 -90.5t-226 -33q-133 0 -236.5 34.5t-166.5 89t-103.5 130t-56 149t-15.5 154.5z" />
    <glyph glyph-name="uni01b2" unicode="&#x1b2;" horiz-adv-x="1478" 
d="M229 498l212 999h293l-230 -1081q-3 -17 -3 -32q0 -65 54 -101.5t120 -36.5q63 0 122 9.5t128 38.5t124 75t101.5 127t69.5 187l1 5q25 121 25 218q0 120 -33.5 226t-114.5 286l-35 79h342l11 -20q133 -249 133 -502q0 -127 -30 -266q-80 -376 -296.5 -555t-543.5 -179
q-469 0 -469 363q0 74 19 160z" />
    <glyph glyph-name="uni01B3" unicode="&#x1b3;" horiz-adv-x="1560" 
d="M1456 1141q0 31 -20 50.5t-38 24.5t-32 5q-76 0 -156 -115l-393 -553l-117 -553h-307l117 553l-297 940h342l166 -659l256 397q88 129 194 195.5t220 66.5q154 0 260 -92t106 -240q0 -75 -31 -148t-94 -163l-248 133q72 107 72 158z" />
    <glyph glyph-name="uni01B4" unicode="&#x1b4;" horiz-adv-x="1445" 
d="M1239 1147q23 0 50.5 -4t65 -13.5t71 -29.5t62.5 -47t46.5 -70.5t17.5 -97.5q0 -107 -61 -226l-29 -57l-213 72q51 105 51 155q0 72 -94 72q-42 0 -76 -40t-77 -128l-523 -936q-28 -49 -49.5 -79.5t-57 -66t-75.5 -55t-101 -32.5t-138 -13q-39 0 -101 9l45 215
q45 -13 74 -13q73 0 136.5 51.5t82.5 141.5l-166 1151h316l71 -805l279 559q69 139 170 213t223 74z" />
    <glyph glyph-name="uni01b5" unicode="&#x1b5;" horiz-adv-x="1251" 
d="M1501 1493l-54 -256l-415 -420h219l-29 -137h-326l-420 -424h762l-54 -256h-1123l55 256l420 424h-211l29 137h317l417 420h-764l55 256h1122z" />
    <glyph glyph-name="uni01b6" unicode="&#x1b6;" horiz-adv-x="1024" 
d="M1175 1106l-49 -232l-246 -233h104l-29 -137h-221l-287 -273h561l-50 -231h-915l49 231l290 273h-109l29 137h225l249 233h-510l49 232h860z" />
    <glyph glyph-name="Yogh" unicode="&#x1b7;" horiz-adv-x="1138" 
d="M444 199q60 0 108.5 22.5t77 55t48 72t26.5 70t7 52.5q0 61 -30.5 104t-86.5 60q-36 9 -64 11.5t-102 2.5l41 193l305 395h-522l55 256h821l-55 -256l-325 -432q22 -6 34.5 -10t42 -17t49 -26.5t45.5 -38.5t42 -54t27 -71.5t11 -91.5q0 -42 -8 -78q-44 -212 -209 -338.5
t-397 -126.5q-190 0 -295.5 94t-105.5 260q0 55 12 119h278q-4 -23 -4 -61q0 -166 174 -166z" />
    <glyph glyph-name="uni01B8" unicode="&#x1b8;" horiz-adv-x="1138" 
d="M-18 305q0 77 23.5 151.5t72 144t133 123.5t195.5 81l-146 432l55 256h822l-56 -256h-522l137 -395l-41 -193q-111 0 -170 -14q-97 -25 -153 -102.5t-56 -165.5q0 -76 47 -122t128 -46q205 0 264 227h278q-47 -218 -207 -345.5t-383 -127.5q-198 0 -309.5 94t-111.5 258z
" />
    <glyph glyph-name="uni01b9" unicode="&#x1b9;" horiz-adv-x="1320" 
d="M553 600l-208 271l43 202h1005l-53 -252h-606l227 -229l-48 -223h-176q-108 0 -180.5 -27t-108 -72t-49.5 -112q-4 -19 -4 -39q0 -74 67.5 -112t190.5 -38q142 0 225 47.5t118 165.5l24 97h290l-25 -103q-70 -240 -236 -354.5t-445 -114.5q-246 0 -377.5 95.5
t-131.5 260.5q0 44 11 97q37 176 151.5 287.5t295.5 152.5z" />
    <glyph glyph-name="uni01ba" unicode="&#x1ba;" horiz-adv-x="1165" 
d="M532 -195q-33 0 -115.5 22t-102.5 22q-18 0 -18 -8q0 -37 46 -73t111 -36q166 0 376 74l54 19l29 -239l-50 -17q-2 -1 -30 -10t-35.5 -11.5t-36 -11.5t-42 -12.5t-43 -11t-49.5 -10.5t-50.5 -8.5t-56 -7.5t-57.5 -4t-63 -2q-185 0 -279 88.5t-94 223.5q0 54 14 102.5
t46 94.5t94 73.5t148 27.5q64 0 155 -16.5t103 -16.5q31 0 74.5 9.5t91.5 29t81.5 56t33.5 83.5q0 61 -65 97.5t-171 36.5h-149l47 223l294 280h-539l53 252h903l-47 -221l-312 -302q130 -31 195 -104.5t65 -182.5q0 -100 -45 -192.5t-123.5 -162.5t-193.5 -112t-247 -42z
" />
    <glyph glyph-name="uni01bb" unicode="&#x1bb;" horiz-adv-x="1185" 
d="M930 1516q195 0 311 -101.5t116 -269.5q0 -51 -12 -107q-50 -238 -296 -402l112 -51l-57 -268l-357 159l-67 -32q-148 -71 -186 -98q-46 -33 -72 -76h750l-57 -268h-1072l14 54q39 146 91 240.5t124.5 161.5t196.5 142l-82 35l57 268l326 -144l65 33q191 98 222 242
q6 26 6 48q0 77 -53 125t-141 48q-58 0 -105 -18t-78 -45.5t-56 -69.5t-39 -79.5t-27 -85.5l-13 -48h-281l12 53q20 84 50 157.5t83 148.5t121.5 128t170 86.5t223.5 33.5z" />
    <glyph glyph-name="uni01be" unicode="&#x1be;" horiz-adv-x="1251" 
d="M6 512h278q-12 -57 -12 -101q0 -99 49 -147.5t125 -48.5q109 0 190 91t81 197q0 36 -13 66.5t-33.5 54t-45.5 46t-50 49t-45.5 57t-33.5 75.5t-13 100q0 62 15 130l8 37h-180l40 191h181l39 184h254l-39 -184h178l-41 -191h-178l-8 -37q-14 -64 -14 -96q0 -34 20.5 -66.5
t50.5 -57.5t66 -57t66 -64.5t50.5 -81.5t20.5 -106q0 -80 -26 -161.5t-79 -156t-126 -133t-175 -93.5t-217 -35q-47 0 -90 6t-90.5 20t-86 41t-70.5 65.5t-49.5 98t-17.5 134.5q0 76 21 174z" />
    <glyph glyph-name="wynn" unicode="&#x1bf;" horiz-adv-x="1245" 
d="M535 696l-116 -548q68 40 114 68t113.5 72.5t114 81t100.5 85.5t90 94.5t64.5 100t40.5 108.5q3 15 3 28q0 48 -36.5 68t-89.5 20q-72 0 -175.5 -40t-222.5 -138zM353 -159l-53 -251h-274l321 1514h275l-22 -101q113 78 213.5 106t243.5 28q130 0 210 -80.5t80 -217.5
q0 -49 -12 -106q-19 -91 -68.5 -180.5t-113.5 -162.5t-148 -144.5t-162 -125t-167.5 -106.5t-153.5 -86.5t-129 -66.5z" />
    <glyph glyph-name="uni01c0" unicode="&#x1c0;" horiz-adv-x="528" 
d="M713 1638l-385 -1685h-164l385 1685h164z" />
    <glyph glyph-name="uni01c1" unicode="&#x1c1;" horiz-adv-x="907" 
d="M1081 1638l-385 -1685h-164l386 1685h163zM713 1638l-385 -1685h-164l385 1685h164z" />
    <glyph glyph-name="uni01c2" unicode="&#x1c2;" horiz-adv-x="1196" 
d="M842 1640h143l-121 -548h439l-35 -164h-439l-40 -189h439l-35 -164h-438l-134 -626h-143l133 626h-430l35 164h430l40 189h-430l35 164h430z" />
    <glyph glyph-name="uni01c3" unicode="&#x1c3;" horiz-adv-x="569" 
d="M854 1487l-92 -430l-219 -633h-137l49 633l92 430h307zM600 299l-63 -299h-308l64 299h307z" />
    <glyph glyph-name="uni01C4" unicode="&#x1c4;" horiz-adv-x="2729" 
d="M158 0l317 1493h584q278 0 404 -121.5t126 -390.5q0 -59 -8 -129.5t-32 -168t-62 -188.5t-104.5 -183t-152 -159.5t-212 -110t-277.5 -42.5h-583zM520 256h275q89 0 163.5 31t124 80.5t87.5 116.5t59 132.5t34 136t17 119t4 89.5q0 276 -280 276h-277zM2980 1493
l-55 -256l-971 -981h764l-56 -256h-1122l55 256l971 981h-764l56 256h1122zM2507 1606h-221l-146 301h160l125 -199l211 199h155z" />
    <glyph glyph-name="uni01C5" unicode="&#x1c5;" horiz-adv-x="2502" 
d="M158 0l317 1493h584q278 0 404 -121.5t126 -390.5q0 -59 -8 -129.5t-32 -168t-62 -188.5t-104.5 -183t-152 -159.5t-212 -110t-277.5 -42.5h-583zM520 256h275q89 0 163.5 31t124 80.5t87.5 116.5t59 132.5t34 136t17 119t4 89.5q0 276 -280 276h-277zM2365 1243h-221
l-145 301h160l125 -198l210 198h156zM2656 1106l-49 -232l-680 -643h561l-49 -231h-917l49 231l684 643h-510l49 232h862z" />
    <glyph glyph-name="uni01C6" unicode="&#x1c6;" horiz-adv-x="2275" 
d="M829 0l25 113q-138 -160 -340 -160q-160 0 -256 116.5t-96 309.5q0 104 27.5 210t80.5 201.5t124.5 170.5t167 119t200.5 44t171 -39t101 -122l113 530h287l-318 -1493h-287zM778 895q-83 0 -158 -66t-120 -175.5t-45 -231.5q0 -110 48 -175t130 -65q85 0 160.5 65.5
t120 176.5t44.5 238q0 107 -48.5 170t-131.5 63zM2138 1243h-221l-145 301h159l125 -198l211 198h156zM2429 1106l-49 -232l-680 -643h561l-49 -231h-918l49 231l685 643h-510l49 232h862z" />
    <glyph glyph-name="uni01C7" unicode="&#x1c7;" horiz-adv-x="2390" 
d="M788 1493l-262 -1237h715l-55 -256h-1022l317 1493h307zM2257 1493h307l-235 -1104q-7 -36 -15.5 -65.5t-29 -76.5t-46.5 -84t-71 -78t-99.5 -68.5t-135 -45.5t-175.5 -18q-180 0 -282.5 85t-102.5 234q0 71 14 134l31 147h307l-32 -158q-9 -40 -9 -69q0 -49 38 -80
t98 -31q164 0 202 174z" />
    <glyph glyph-name="uni01C8" unicode="&#x1c8;" horiz-adv-x="1820" 
d="M788 1493l-262 -1237h715l-55 -256h-1022l317 1493h307zM1917 1106l-277 -1299q-28 -133 -119 -193t-266 -60q-56 0 -92 10l49 227q11 -8 52 -8q46 0 70 20.5t34 69.5l262 1233h287zM1999 1493l-55 -256h-287l55 256h287z" />
    <glyph glyph-name="uni01C9" unicode="&#x1c9;" horiz-adv-x="1138" 
d="M741 1493l-317 -1493h-287l318 1493h286zM1235 1106l-277 -1299q-28 -133 -119 -193t-266 -60q-56 0 -92 10l49 227q11 -8 52 -8q46 0 70 20.5t34 69.5l262 1233h287zM1317 1493l-55 -256h-287l55 256h287z" />
    <glyph glyph-name="uni01CA" unicode="&#x1ca;" horiz-adv-x="2617" 
d="M1671 1493l-317 -1493h-303l-394 1071l-227 -1071h-291l318 1493h307l393 -1055l223 1055h291zM2484 1493h307l-235 -1104q-8 -36 -16 -65.5t-28.5 -77t-46.5 -84t-70.5 -78t-99.5 -68.5t-135 -45t-175 -18q-180 0 -283 85t-103 234q0 66 15 134l31 147h307l-33 -158
q-8 -36 -8 -69q0 -49 37.5 -80t97.5 -31q165 0 203 174z" />
    <glyph glyph-name="uni01CB" unicode="&#x1cb;" horiz-adv-x="2048" 
d="M1671 1493l-317 -1493h-303l-394 1071l-227 -1071h-291l318 1493h307l393 -1055l223 1055h291zM2144 1106l-276 -1299q-28 -133 -119 -193t-266 -60q-56 0 -92 10l49 227q11 -8 51 -8q46 0 70 20.5t34 69.5l263 1233h286zM2226 1493l-55 -256h-287l55 256h287z" />
    <glyph glyph-name="uni01CC" unicode="&#x1cc;" horiz-adv-x="1820" 
d="M365 1106h286l-37 -168q83 98 171 142t202 44q137 0 219 -73.5t82 -196.5q0 -54 -12 -113l-158 -741h-287l138 641q12 67 12 100q0 74 -39.5 114t-112.5 40q-103 0 -177.5 -73t-102.5 -199l-133 -623h-287zM1917 1106l-277 -1299q-28 -133 -119 -193t-266 -60
q-56 0 -92 10l49 227q11 -8 52 -8q46 0 70 20.5t34 69.5l262 1233h287zM1999 1493l-55 -256h-287l55 256h287z" />
    <glyph glyph-name="uni01CD" unicode="&#x1cd;" horiz-adv-x="1478" 
d="M1194 1608h-221l-146 301h160l125 -199l211 199h156zM1090 301h-558l-165 -301h-314l834 1493h354l199 -1493h-314zM1061 557l-72 580l-315 -580h387z" />
    <glyph glyph-name="uni01CE" unicode="&#x1ce;" horiz-adv-x="1138" 
d="M922 1247h-222l-145 301h160l125 -198l211 198h155zM791 1124q95 0 167.5 -16.5t114 -42t68 -60t35 -65t8.5 -63.5t-13 -93l-129 -614q-6 -32 -6 -43q0 -43 43 -92l-8 -35h-313q-15 34 -15 55q0 20 7 56q-93 -84 -173 -121t-169 -37q-137 0 -221.5 74t-84.5 194
q0 31 8.5 70.5t36.5 95t71 103t120.5 89t177.5 58.5l119 18q7 1 31 4t34.5 4.5t33.5 6t35 8t32 10.5t30.5 14t24 18t20.5 23t12 28.5t5 35.5q0 46 -36 67t-114 21q-99 0 -151 -35t-78 -119h-268q43 200 173.5 291.5t371.5 91.5zM819 444l17 78q-11 -6 -17 -9t-15 -6
t-13.5 -4t-21.5 -3.5t-30 -5.5l-135 -23q-100 -17 -154.5 -65.5t-54.5 -120.5q0 -103 150 -103q104 0 175 68t99 194z" />
    <glyph glyph-name="uni01CF" unicode="&#x1cf;" horiz-adv-x="569" 
d="M723 1602h-221l-146 301h160l125 -199l211 199h156zM754 1493l-318 -1493h-307l317 1493h308z" />
    <glyph glyph-name="uni01D0" unicode="&#x1d0;" horiz-adv-x="569" 
d="M651 1247h-221l-145 301h159l125 -198l211 198h156zM659 1106l-235 -1106h-287l236 1106h286z" />
    <glyph glyph-name="uni01D1" unicode="&#x1d1;" horiz-adv-x="1593" 
d="M1223 1606h-222l-145 301h160l125 -199l211 199h155zM1102 1518q281 0 437.5 -154.5t156.5 -431.5q0 -89 -17.5 -183.5t-54.5 -190t-89.5 -184t-126.5 -165.5t-162 -134t-200.5 -89.5t-236.5 -32.5q-274 0 -433 156.5t-159 425.5q0 101 25 210.5t72 220t123 209.5
t171 176t223 122t271 45zM858 215q92 0 170.5 31t132 80t95.5 114.5t66.5 130t41 131t22 113t5.5 80.5q0 169 -87 264.5t-241 95.5q-93 0 -172 -30.5t-133 -79t-97 -113t-68.5 -128.5t-42 -130t-22.5 -113.5t-6 -82.5q0 -167 90.5 -265t245.5 -98z" />
    <glyph glyph-name="uni01D2" unicode="&#x1d2;" horiz-adv-x="1251" 
d="M977 1247h-221l-146 301h160l125 -198l211 198h156zM168 362q0 207 82 379.5t238.5 277.5t357.5 105q211 0 331.5 -109t120.5 -300q0 -157 -49.5 -296.5t-137 -242.5t-217 -163t-282.5 -60q-203 0 -323.5 111t-120.5 298zM664 182q65 0 120 27t91 71t62.5 95.5t41 107
t21 98t6.5 74.5q0 109 -55.5 174.5t-149.5 65.5q-138 0 -239 -140.5t-101 -334.5q0 -109 55.5 -173.5t147.5 -64.5z" />
    <glyph glyph-name="uni01D3" unicode="&#x1d3;" horiz-adv-x="1478" 
d="M1186 1604h-221l-146 301h160l125 -199l211 199h155zM1350 1493h307l-215 -1012q-24 -113 -75.5 -204t-117.5 -150.5t-149.5 -99.5t-170 -57t-179.5 -17q-232 0 -369 105.5t-137 283.5q0 73 22 180l207 971h307l-215 -1012q-10 -55 -10 -92q0 -82 66 -128t186 -46
q140 0 219.5 64t108.5 202z" />
    <glyph glyph-name="uni01D4" unicode="&#x1d4;" horiz-adv-x="1251" 
d="M985 1247h-221l-146 301h160l125 -198l211 198h156zM1108 0h-287l31 139q-83 -98 -171 -142t-202 -44q-135 0 -217 73.5t-82 196.5q0 50 13 113l163 770h287l-143 -670q-13 -76 -13 -100q0 -75 40 -114.5t116 -39.5q100 0 174.5 74t100.5 199l139 651h286z" />
    <glyph glyph-name="uni01d5" unicode="&#x1d5;" horiz-adv-x="1478" 
d="M1350 1493h307l-215 -1012q-24 -113 -75.5 -204t-117.5 -150.5t-149.5 -99.5t-170 -57t-179.5 -17q-232 0 -369 105.5t-137 283.5q0 73 22 180l207 971h307l-215 -1012q-10 -55 -10 -92q0 -82 66 -128t186 -46q140 0 219.5 64t108.5 202zM1460 1831l-53 -246h-225l53 246
h225zM1059 1831l-53 -246h-226l54 246h225zM1501 2048l-35 -164h-614l35 164h614z" />
    <glyph glyph-name="uni01d6" unicode="&#x1d6;" horiz-adv-x="1251" 
d="M1251 1513l-53 -245h-225l53 245h225zM850 1513l-53 -245h-226l54 245h225zM1108 0h-287l31 139q-83 -98 -171 -142t-202 -44q-135 0 -217 73.5t-82 196.5q0 50 13 113l163 770h287l-143 -670q-13 -76 -13 -100q0 -75 40 -114.5t116 -39.5q100 0 174.5 74t100.5 199
l139 651h286zM1315 1812l-35 -163h-614l34 163h615z" />
    <glyph glyph-name="uni01d7" unicode="&#x1d7;" horiz-adv-x="1478" 
d="M1350 1493h307l-215 -1012q-24 -113 -75.5 -204t-117.5 -150.5t-149.5 -99.5t-170 -57t-179.5 -17q-232 0 -369 105.5t-137 283.5q0 73 22 180l207 971h307l-215 -1012q-10 -55 -10 -92q0 -82 66 -128t186 -46q140 0 219.5 64t108.5 202zM1462 1835l-53 -246h-225l53 246
h225zM1061 1835l-53 -246h-226l54 246h225zM1487 2198l-324 -308h-143l209 308h258z" />
    <glyph glyph-name="uni01d8" unicode="&#x1d8;" horiz-adv-x="1251" 
d="M1251 1513l-53 -245h-225l53 245h225zM850 1513l-53 -245h-226l54 245h225zM1108 0h-287l31 139q-83 -98 -171 -142t-202 -44q-135 0 -217 73.5t-82 196.5q0 50 13 113l163 770h287l-143 -670q-13 -76 -13 -100q0 -75 40 -114.5t116 -39.5q100 0 174.5 74t100.5 199
l139 651h286zM1319 1952l-324 -307h-143l209 307h258z" />
    <glyph glyph-name="uni01d9" unicode="&#x1d9;" horiz-adv-x="1478" 
d="M1350 1493h307l-215 -1012q-24 -113 -75.5 -204t-117.5 -150.5t-149.5 -99.5t-170 -57t-179.5 -17q-232 0 -369 105.5t-137 283.5q0 73 22 180l207 971h307l-215 -1012q-10 -55 -10 -92q0 -82 66 -128t186 -46q140 0 219.5 64t108.5 202zM1462 1827l-53 -246h-225l53 246
h225zM1061 1827l-53 -246h-226l54 246h225zM1247 1876h-221l-145 301h159l125 -199l211 199h156z" />
    <glyph glyph-name="uni01da" unicode="&#x1da;" horiz-adv-x="1251" 
d="M1251 1513l-53 -245h-225l53 245h225zM850 1513l-53 -245h-226l54 245h225zM1108 0h-287l31 139q-83 -98 -171 -142t-202 -44q-135 0 -217 73.5t-82 196.5q0 50 13 113l163 770h287l-143 -670q-13 -76 -13 -100q0 -75 40 -114.5t116 -39.5q100 0 174.5 74t100.5 199
l139 651h286zM1042 1640h-221l-145 302h160l125 -199l210 199h156z" />
    <glyph glyph-name="uni01db" unicode="&#x1db;" horiz-adv-x="1478" 
d="M1350 1493h307l-215 -1012q-24 -113 -75.5 -204t-117.5 -150.5t-149.5 -99.5t-170 -57t-179.5 -17q-232 0 -369 105.5t-137 283.5q0 73 22 180l207 971h307l-215 -1012q-10 -55 -10 -92q0 -82 66 -128t186 -46q140 0 219.5 64t108.5 202zM1462 1827l-53 -246h-225l53 246
h225zM1061 1827l-53 -246h-226l54 246h225zM913 2177h244l92 -307h-129z" />
    <glyph glyph-name="uni01dc" unicode="&#x1dc;" horiz-adv-x="1251" 
d="M1251 1513l-53 -245h-225l53 245h225zM850 1513l-53 -245h-226l54 245h225zM1108 0h-287l31 139q-83 -98 -171 -142t-202 -44q-135 0 -217 73.5t-82 196.5q0 50 13 113l163 770h287l-143 -670q-13 -76 -13 -100q0 -75 40 -114.5t116 -39.5q100 0 174.5 74t100.5 199
l139 651h286zM723 1933h244l92 -307h-129z" />
    <glyph glyph-name="uni01DD" unicode="&#x1dd;" horiz-adv-x="1138" 
d="M549 -47q-195 0 -314.5 112.5t-119.5 292.5q0 120 37 256h743q6 57 6 93q0 85 -53 136.5t-141 51.5q-74 0 -136.5 -35.5t-93.5 -93.5h-282q85 170 233 264t334 94q192 0 312 -118t120 -308q0 -41 -6.5 -93.5t-25.5 -125.5t-48.5 -143.5t-80.5 -141t-115.5 -123
t-160 -85.5t-208.5 -33zM584 182q205 0 274 242h-450q0 -45 2.5 -75.5t12.5 -65t28 -54.5t51.5 -33.5t81.5 -13.5z" />
    <glyph glyph-name="uni01de" unicode="&#x1de;" horiz-adv-x="1478" 
d="M1090 301h-558l-165 -301h-314l834 1493h354l199 -1493h-314zM1061 557l-72 580l-315 -580h387zM1462 1831l-53 -246h-225l53 246h225zM1061 1831l-53 -246h-226l54 246h225zM1507 2048l-34 -164h-615l35 164h614z" />
    <glyph glyph-name="uni01df" unicode="&#x1df;" horiz-adv-x="1138" 
d="M1204 1513l-53 -245h-225l53 245h225zM803 1513l-53 -245h-226l54 245h225zM791 1124q95 0 167.5 -16.5t114 -42t68 -60t35 -65t8.5 -63.5t-13 -93l-129 -614q-6 -32 -6 -43q0 -43 43 -92l-8 -35h-313q-15 34 -15 55q0 20 7 56q-93 -84 -173 -121t-169 -37
q-137 0 -221.5 74t-84.5 194q0 31 8.5 70.5t36.5 95t71 103t120.5 89t177.5 58.5l119 18q7 1 31 4t34.5 4.5t33.5 6t35 8t32 10.5t30.5 14t24 18t20.5 23t12 28.5t5 35.5q0 46 -36 67t-114 21q-99 0 -151 -35t-78 -119h-268q43 200 173.5 291.5t371.5 91.5zM819 444l17 78
q-11 -6 -17 -9t-15 -6t-13.5 -4t-21.5 -3.5t-30 -5.5l-135 -23q-100 -17 -154.5 -65.5t-54.5 -120.5q0 -103 150 -103q104 0 175 68t99 194zM1251 1812l-34 -163h-615l35 163h614z" />
    <glyph glyph-name="uni01e0" unicode="&#x1e0;" horiz-adv-x="1478" 
d="M1090 301h-558l-165 -301h-314l834 1493h354l199 -1493h-314zM1061 557l-72 580l-315 -580h387zM1262 1823l-54 -246h-225l53 246h226zM1499 2048l-35 -164h-614l35 164h614z" />
    <glyph glyph-name="uni01e1" unicode="&#x1e1;" horiz-adv-x="1138" 
d="M983 1493l-53 -246h-225l53 246h225zM791 1124q95 0 167.5 -16.5t114 -42t68 -60t35 -65t8.5 -63.5t-13 -93l-129 -614q-6 -32 -6 -43q0 -43 43 -92l-8 -35h-313q-15 34 -15 55q0 20 7 56q-93 -84 -173 -121t-169 -37q-137 0 -221.5 74t-84.5 194q0 31 8.5 70.5t36.5 95
t71 103t120.5 89t177.5 58.5l119 18q7 1 31 4t34.5 4.5t33.5 6t35 8t32 10.5t30.5 14t24 18t20.5 23t12 28.5t5 35.5q0 46 -36 67t-114 21q-99 0 -151 -35t-78 -119h-268q43 200 173.5 291.5t371.5 91.5zM819 444l17 78q-11 -6 -17 -9t-15 -6t-13.5 -4t-21.5 -3.5t-30 -5.5
l-135 -23q-100 -17 -154.5 -65.5t-54.5 -120.5q0 -103 150 -103q104 0 175 68t99 194zM1249 1788l-35 -164h-614l35 164h614z" />
    <glyph glyph-name="uni01E2" unicode="&#x1e2;" horiz-adv-x="2048" 
d="M1935 1804l-34 -164h-615l35 164h614zM950 311h-448l-174 -311h-326l860 1493h1399l-53 -256h-752l-74 -338h695l-54 -256h-694l-82 -387h791l-56 -256h-1097zM1006 567l143 670h-135l-379 -670h371z" />
    <glyph glyph-name="uni01E3" unicode="&#x1e3;" horiz-adv-x="1826" 
d="M1505 1452l-35 -164h-614l35 164h614zM1470 1124q195 0 311.5 -115.5t116.5 -289.5q0 -124 -36 -256h-742q-14 -62 -14 -105q0 -78 54.5 -127t142.5 -49q75 0 138.5 35t94.5 94h283q-82 -164 -238 -261t-340 -97q-135 0 -231.5 53.5t-139.5 151.5q-107 -115 -204 -160
t-238 -45q-149 0 -233 70t-84 194q0 32 6 68.5t31.5 94t67 105.5t121.5 91t187 61l117 18q7 1 31.5 4t35 4.5t34 6t35.5 8t32 10.5t30.5 14t24 18t20.5 23t12 28.5t5 35.5q0 46 -35.5 67t-113.5 21q-99 0 -151.5 -35t-78.5 -119h-268q20 97 49 155.5t80 102.5
q140 125 420 125q233 0 330 -100q149 100 337 100zM827 442l17 78q-28 -14 -53 -20q-4 0 -18.5 -2.5t-24.5 -3.5l-136 -23q-100 -17 -154.5 -65.5t-54.5 -120.5q0 -103 146 -103q107 0 178.5 67t99.5 193zM1606 653v56q0 89 -45.5 137.5t-128.5 48.5q-99 0 -168 -62
t-101 -180h443z" />
    <glyph glyph-name="uni01e4" unicode="&#x1e4;" horiz-adv-x="1660" 
d="M923 305l35 164h326q16 35 30 78h-340l55 256h598l-71 -334h174l-35 -164h-174l-66 -309h-184l5 197q-112 -126 -231.5 -183t-270.5 -57q-254 0 -404 159.5t-150 421.5q0 112 28 228t80 225.5t132.5 206t179 168.5t225.5 114t267 42q253 0 398 -120.5t145 -327.5
q0 -26 -3 -54h-289q-7 58 -20 89.5t-40 59.5q-84 90 -245 90q-110 0 -203.5 -45t-155 -116t-104.5 -160.5t-62 -177t-19 -166.5q0 -171 89 -273t242 -102q142 0 271 90h-213z" />
    <glyph glyph-name="uni01e5" unicode="&#x1e5;" horiz-adv-x="1312" 
d="M778 885q-69 0 -131 -45t-103 -114.5t-64.5 -152t-23.5 -158.5q0 -103 45.5 -162.5t125.5 -59.5q97 0 176.5 69t120.5 171t41 208q0 110 -50.5 177t-136.5 67zM1071 1106h272l-243 -1143q-5 -23 -16 -59h190l-29 -137h-234q-79 -103 -213 -158t-311 -55q-199 0 -313.5 70
t-114.5 192q0 21 5 51h297q8 -129 175 -129q69 0 133 29h-106l29 137h216q15 31 20 59l32 150q-99 -90 -175 -125t-173 -35q-165 0 -257.5 106t-92.5 290q0 109 29.5 221t85.5 210.5t129.5 176t167.5 122.5t193 45q96 0 160.5 -45t107.5 -143z" />
    <glyph glyph-name="Gcaron" unicode="&#x1e6;" horiz-adv-x="1593" 
d="M1251 1593h-221l-145 301h159l125 -198l211 198h156zM1628 803l-172 -807h-184l14 184q-114 -122 -224.5 -174.5t-252.5 -52.5q-270 0 -430 158.5t-160 425.5q0 129 36.5 264.5t112 264t180 229t253.5 162t319 61.5q250 0 403.5 -120.5t153.5 -314.5q0 -9 -4 -67h-282
q-12 115 -97 177t-231 62q-89 0 -165.5 -27t-130.5 -71.5t-97 -104t-70 -122t-44.5 -128.5t-24.5 -120t-7 -100q0 -158 98.5 -262.5t249.5 -104.5q81 0 151.5 25.5t117.5 62t85 84.5t57.5 86.5t31.5 73.5h-340l55 256h598z" />
    <glyph glyph-name="gcaron" unicode="&#x1e7;" horiz-adv-x="1251" 
d="M905 1247h-221l-145 301h159l125 -198l211 198h156zM481 -446q-122 0 -210.5 23.5t-133.5 62t-64.5 79t-19.5 84.5q0 27 6 64h295q-2 -18 -2 -25q0 -44 50.5 -74t125.5 -30q112 0 194.5 62.5t104.5 162.5l33 150q-98 -91 -171.5 -125.5t-168.5 -34.5q-155 0 -256.5 110
t-101.5 279q0 109 27 220t80 211.5t125.5 179t171 125t208.5 46.5q179 0 260 -188l37 170h272l-243 -1143q-41 -194 -203 -301.5t-416 -107.5zM776 895q-82 0 -156.5 -67.5t-119.5 -179.5t-45 -236q0 -106 46.5 -168t125.5 -62q89 0 167.5 63t124.5 170t46 230
q0 114 -51.5 182t-137.5 68z" />
    <glyph glyph-name="uni01E8" unicode="&#x1e8;" horiz-adv-x="1478" 
d="M1198 1595h-221l-146 301h160l125 -198l211 198h156zM561 479l-102 -479h-307l317 1493h307l-139 -655l725 655h364l-739 -653l481 -840h-366l-354 643z" />
    <glyph glyph-name="uni01E9" unicode="&#x1e9;" horiz-adv-x="1138" 
d="M1028 1516h-221l-145 301h159l125 -199l211 199h156zM725 1493l-174 -817l457 430h325l-475 -422l264 -684h-336l-161 489l-140 -127l-77 -362h-287l317 1493h287z" />
    <glyph glyph-name="Oogonek" unicode="&#x1ea;" horiz-adv-x="1593" 
d="M330 -352q0 102 75.5 178.5t233.5 142.5h8q-203 44 -316.5 192.5t-113.5 373.5q0 177 68 359t188 323q249 301 629 301q281 0 437.5 -154.5t156.5 -431.5q0 -181 -66.5 -359.5t-185.5 -318.5q-133 -156 -286 -228.5t-349 -72.5q-30 0 -45 1q-229 -133 -229 -278
q0 -82 102 -82q78 0 145 23l-20 -106q-105 -19 -158 -19q-127 0 -200.5 42t-73.5 114zM858 215q92 0 170.5 31t132 80t95.5 114.5t66.5 130t41 131t22 113t5.5 80.5q0 169 -87 264.5t-241 95.5q-93 0 -172 -30.5t-133 -79t-97 -113t-68.5 -128.5t-42 -130t-22.5 -113.5
t-6 -82.5q0 -167 90.5 -265t245.5 -98z" />
    <glyph glyph-name="oogonek" unicode="&#x1eb;" horiz-adv-x="1251" 
d="M664 182q65 0 120 27t91 71t62.5 95.5t41 107t21 98t6.5 74.5q0 109 -55.5 174.5t-149.5 65.5q-138 0 -239 -140.5t-101 -334.5q0 -109 55.5 -173.5t147.5 -64.5zM168 362q0 207 82 379.5t238.5 277.5t357.5 105q211 0 331.5 -109t120.5 -300q0 -184 -64.5 -340.5
t-186.5 -263.5t-284 -142q-113 -66 -167 -117q-87 -86 -88 -176q0 -82 102 -82q79 0 146 23l-21 -106q-105 -19 -157 -19q-127 0 -201 42t-74 114q0 97 67 170t207 136q-188 11 -298.5 120t-110.5 288z" />
    <glyph glyph-name="uni01EC" unicode="&#x1ec;" horiz-adv-x="1593" 
d="M1470 1804l-34 -164h-615l35 164h614zM330 -352q0 102 75.5 178.5t233.5 142.5h8q-203 44 -316.5 192.5t-113.5 373.5q0 177 68 359t188 323q249 301 629 301q281 0 437.5 -154.5t156.5 -431.5q0 -181 -66.5 -359.5t-185.5 -318.5q-133 -156 -286 -228.5t-349 -72.5
q-30 0 -45 1q-229 -133 -229 -278q0 -82 102 -82q78 0 145 23l-20 -106q-105 -19 -158 -19q-127 0 -200.5 42t-73.5 114zM858 215q92 0 170.5 31t132 80t95.5 114.5t66.5 130t41 131t22 113t5.5 80.5q0 169 -87 264.5t-241 95.5q-93 0 -172 -30.5t-133 -79t-97 -113
t-68.5 -128.5t-42 -130t-22.5 -113.5t-6 -82.5q0 -167 90.5 -265t245.5 -98z" />
    <glyph glyph-name="uni01ED" unicode="&#x1ed;" horiz-adv-x="1251" 
d="M1214 1411l-34 -164h-615l35 164h614zM664 182q65 0 120 27t91 71t62.5 95.5t41 107t21 98t6.5 74.5q0 109 -55.5 174.5t-149.5 65.5q-138 0 -239 -140.5t-101 -334.5q0 -109 55.5 -173.5t147.5 -64.5zM168 362q0 207 82 379.5t238.5 277.5t357.5 105q211 0 331.5 -109
t120.5 -300q0 -184 -64.5 -340.5t-186.5 -263.5t-284 -142q-113 -66 -167 -117q-87 -86 -88 -176q0 -82 102 -82q79 0 146 23l-21 -106q-105 -19 -157 -19q-127 0 -201 42t-74 114q0 97 67 170t207 136q-188 11 -298.5 120t-110.5 288z" />
    <glyph glyph-name="uni01ee" unicode="&#x1ee;" horiz-adv-x="1138" 
d="M444 199q60 0 108.5 22.5t77 55t48 72t26.5 70t7 52.5q0 61 -30.5 104t-86.5 60q-36 9 -64 11.5t-102 2.5l41 193l305 395h-522l55 256h821l-55 -256l-325 -432q22 -6 34.5 -10t42 -17t49 -26.5t45.5 -38.5t42 -54t27 -71.5t11 -91.5q0 -42 -8 -78q-44 -212 -209 -338.5
t-397 -126.5q-190 0 -295.5 94t-105.5 260q0 55 12 119h278q-4 -23 -4 -61q0 -166 174 -166zM885 1647h-221l-146 301h160l125 -199l211 199h155z" />
    <glyph glyph-name="uni01ef" unicode="&#x1ef;" horiz-adv-x="1138" 
d="M563 -47q60 0 109 22.5t77.5 55t48 72t26.5 70t7 52.5q0 62 -30.5 104.5t-87.5 59.5q-36 9 -63 11.5t-101 2.5l41 193l295 278h-510l49 232h860l-49 -232l-340 -317q98 -32 162.5 -103.5t64.5 -187.5q0 -28 -6.5 -66.5t-24.5 -93.5t-46 -108t-77 -106.5t-111 -93.5
t-153.5 -65.5t-199.5 -25.5q-190 0 -296 94t-106 260q0 54 15 119h278q-6 -35 -6 -61q0 -166 174 -166zM920 1253h-222l-145 301h160l125 -198l211 198h155z" />
    <glyph glyph-name="uni01F0" unicode="&#x1f0;" horiz-adv-x="569" 
d="M666 1106l-277 -1299q-28 -133 -119 -193t-266 -60q-56 0 -92 10l49 227q11 -8 51 -8q46 0 70.5 20.5t34.5 69.5l262 1233h287zM653 1229h-221l-145 301h159l125 -199l211 199h156z" />
    <glyph glyph-name="uni01F1" unicode="&#x1f1;" horiz-adv-x="2729" 
d="M158 0l317 1493h584q278 0 404 -121.5t126 -390.5q0 -59 -8 -129.5t-32 -168t-62 -188.5t-104.5 -183t-152 -159.5t-212 -110t-277.5 -42.5h-583zM520 256h275q89 0 163.5 31t124 80.5t87.5 116.5t59 132.5t34 136t17 119t4 89.5q0 276 -280 276h-277zM2980 1493
l-55 -256l-971 -981h764l-56 -256h-1122l55 256l971 981h-764l56 256h1122z" />
    <glyph glyph-name="uni01F2" unicode="&#x1f2;" horiz-adv-x="2502" 
d="M158 0l317 1493h584q278 0 404 -121.5t126 -390.5q0 -59 -8 -129.5t-32 -168t-62 -188.5t-104.5 -183t-152 -159.5t-212 -110t-277.5 -42.5h-583zM520 256h275q89 0 163.5 31t124 80.5t87.5 116.5t59 132.5t34 136t17 119t4 89.5q0 276 -280 276h-277zM2656 1106
l-49 -232l-680 -643h561l-49 -231h-917l49 231l684 643h-510l49 232h862z" />
    <glyph glyph-name="uni01F3" unicode="&#x1f3;" horiz-adv-x="2275" 
d="M829 0l25 113q-138 -160 -340 -160q-160 0 -256 116.5t-96 309.5q0 104 27.5 210t80.5 201.5t124.5 170.5t167 119t200.5 44t171 -39t101 -122l113 530h287l-318 -1493h-287zM778 895q-83 0 -158 -66t-120 -175.5t-45 -231.5q0 -110 48 -175t130 -65q85 0 160.5 65.5
t120 176.5t44.5 238q0 107 -48.5 170t-131.5 63zM2429 1106l-49 -232l-680 -643h561l-49 -231h-918l49 231l685 643h-510l49 232h862z" />
    <glyph glyph-name="uni01F4" unicode="&#x1f4;" horiz-adv-x="1593" 
d="M1456 1919l-323 -307h-144l209 307h258zM1628 803l-172 -807h-184l14 184q-114 -122 -224.5 -174.5t-252.5 -52.5q-270 0 -430 158.5t-160 425.5q0 129 36.5 264.5t112 264t180 229t253.5 162t319 61.5q250 0 403.5 -120.5t153.5 -314.5q0 -9 -4 -67h-282
q-12 115 -97 177t-231 62q-89 0 -165.5 -27t-130.5 -71.5t-97 -104t-70 -122t-44.5 -128.5t-24.5 -120t-7 -100q0 -158 98.5 -262.5t249.5 -104.5q81 0 151.5 25.5t117.5 62t85 84.5t57.5 86.5t31.5 73.5h-340l55 256h598z" />
    <glyph glyph-name="uni01F5" unicode="&#x1f5;" horiz-adv-x="1251" 
d="M1196 1554l-324 -307h-143l209 307h258zM481 -446q-122 0 -210.5 23.5t-133.5 62t-64.5 79t-19.5 84.5q0 27 6 64h295q-2 -18 -2 -25q0 -44 50.5 -74t125.5 -30q112 0 194.5 62.5t104.5 162.5l33 150q-98 -91 -171.5 -125.5t-168.5 -34.5q-155 0 -256.5 110t-101.5 279
q0 109 27 220t80 211.5t125.5 179t171 125t208.5 46.5q179 0 260 -188l37 170h272l-243 -1143q-41 -194 -203 -301.5t-416 -107.5zM776 895q-82 0 -156.5 -67.5t-119.5 -179.5t-45 -236q0 -106 46.5 -168t125.5 -62q89 0 167.5 63t124.5 170t46 230q0 114 -51.5 182
t-137.5 68z" />
    <glyph glyph-name="Wynn" unicode="&#x1f7;" horiz-adv-x="1290" 
d="M658 1065l-117 -552q149 87 265.5 173t185.5 154t114 131.5t61.5 107t16.5 78.5q0 38 -39.5 63t-87.5 25q-71 0 -175.5 -41t-223.5 -139zM472 190l-39 -188h-297l316 1487h297l-22 -101q113 78 213.5 106t243.5 28q133 0 218.5 -82t85.5 -222q0 -86 -32 -174t-81 -163
t-124 -153t-145 -137.5t-160 -122.5t-152.5 -102t-140.5 -82t-106 -57t-65 -32q-9 -4 -10 -5z" />
    <glyph glyph-name="uni01F8" unicode="&#x1f8;" horiz-adv-x="1478" 
d="M856 1909h244l92 -307h-129zM1671 1493l-317 -1493h-303l-394 1071l-227 -1071h-291l318 1493h307l393 -1055l223 1055h291z" />
    <glyph glyph-name="uni01F9" unicode="&#x1f9;" horiz-adv-x="1251" 
d="M618 1554h244l92 -307h-129zM365 1106h286l-37 -168q83 98 171 142t202 44q137 0 219 -73.5t82 -196.5q0 -54 -12 -113l-158 -741h-287l138 641q12 67 12 100q0 74 -39.5 114t-112.5 40q-103 0 -177.5 -73t-102.5 -199l-133 -623h-287z" />
    <glyph glyph-name="Aringacute" unicode="&#x1fa;" horiz-adv-x="1478" 
d="M1090 226h-558l-165 -226h-314l834 1120h354l199 -1120h-314zM1061 418l-72 434l-315 -434h387zM1155 1556q64 0 106 -41t42 -104q0 -87 -70 -155t-160 -68q-64 0 -105.5 41t-41.5 104q0 88 70 155.5t159 67.5zM1135 1454q-42 0 -75.5 -30t-33.5 -68q0 -28 20 -47t50 -19
q41 0 73.5 31.5t32.5 69.5q0 28 -19 45.5t-48 17.5zM1526 1931l-324 -307h-143l209 307h258z" />
    <glyph glyph-name="aringacute" unicode="&#x1fb;" horiz-adv-x="1138" 
d="M1235 1982l-324 -307h-143l209 307h258zM903 1585q64 0 106 -41t42 -104q0 -87 -70 -155t-160 -68q-64 0 -105.5 41t-41.5 104q0 88 70 155.5t159 67.5zM883 1483q-41 0 -75 -30.5t-34 -68.5q0 -28 19.5 -46.5t50.5 -18.5q41 0 73.5 31t32.5 69q0 28 -19 46t-48 18z
M791 1124q95 0 167.5 -16.5t114 -42t68 -60t35 -65t8.5 -63.5t-13 -93l-129 -614q-6 -32 -6 -43q0 -43 43 -92l-8 -35h-313q-15 34 -15 55q0 20 7 56q-93 -84 -173 -121t-169 -37q-137 0 -221.5 74t-84.5 194q0 31 8.5 70.5t36.5 95t71 103t120.5 89t177.5 58.5l119 18
q7 1 31 4t34.5 4.5t33.5 6t35 8t32 10.5t30.5 14t24 18t20.5 23t12 28.5t5 35.5q0 46 -36 67t-114 21q-99 0 -151 -35t-78 -119h-268q43 200 173.5 291.5t371.5 91.5zM819 444l17 78q-11 -6 -17 -9t-15 -6t-13.5 -4t-21.5 -3.5t-30 -5.5l-135 -23q-100 -17 -154.5 -65.5
t-54.5 -120.5q0 -103 150 -103q104 0 175 68t99 194z" />
    <glyph glyph-name="AEacute" unicode="&#x1fc;" horiz-adv-x="2048" 
d="M1911 1911l-324 -307h-143l209 307h258zM950 311h-448l-174 -311h-326l860 1493h1399l-53 -256h-752l-74 -338h695l-54 -256h-694l-82 -387h791l-56 -256h-1097zM1006 567l143 670h-135l-379 -670h371z" />
    <glyph glyph-name="aeacute" unicode="&#x1fd;" horiz-adv-x="1826" 
d="M1559 1554l-324 -307h-143l208 307h259zM1470 1124q195 0 311.5 -115.5t116.5 -289.5q0 -124 -36 -256h-742q-14 -62 -14 -105q0 -78 54.5 -127t142.5 -49q75 0 138.5 35t94.5 94h283q-82 -164 -238 -261t-340 -97q-135 0 -231.5 53.5t-139.5 151.5q-107 -115 -204 -160
t-238 -45q-149 0 -233 70t-84 194q0 32 6 68.5t31.5 94t67 105.5t121.5 91t187 61l117 18q7 1 31.5 4t35 4.5t34 6t35.5 8t32 10.5t30.5 14t24 18t20.5 23t12 28.5t5 35.5q0 46 -35.5 67t-113.5 21q-99 0 -151.5 -35t-78.5 -119h-268q20 97 49 155.5t80 102.5
q140 125 420 125q233 0 330 -100q149 100 337 100zM827 442l17 78q-28 -14 -53 -20q-4 0 -18.5 -2.5t-24.5 -3.5l-136 -23q-100 -17 -154.5 -65.5t-54.5 -120.5q0 -103 146 -103q107 0 178.5 67t99.5 193zM1606 653v56q0 89 -45.5 137.5t-128.5 48.5q-99 0 -168 -62
t-101 -180h443z" />
    <glyph glyph-name="Oslashacute" unicode="&#x1fe;" horiz-adv-x="1593" 
d="M1446 1915l-324 -307h-143l209 307h258zM371 115l-217 -195l-84 94l227 203q-74 142 -74 322q0 175 68.5 357t187.5 323q255 299 641 299q291 0 443 -168l206 184l86 -92l-221 -199q70 -143 70 -317t-68 -353.5t-188 -320.5q-255 -299 -639 -299q-291 0 -438 162z
M1389 1024l-787 -702q90 -107 260 -107q236 0 389 215q69 94 108.5 219t39.5 250q0 69 -10 125zM1067 1255q-92 0 -171 -30.5t-132.5 -79.5t-96.5 -113.5t-68.5 -129.5t-42 -131t-22.5 -113.5t-6 -82.5q0 -66 13 -139l790 705q-91 114 -264 114z" />
    <glyph glyph-name="oslashacute" unicode="&#x1ff;" horiz-adv-x="1251" 
d="M1204 1571l-323 -307h-144l209 307h258zM1303 705q0 -148 -49 -284t-136 -240t-216 -166t-279 -62q-220 0 -347 121l-182 -152l-69 82l190 160q-43 90 -43 201q0 147 47.5 283.5t133 242.5t216 169.5t285.5 63.5q231 0 354 -129l174 146l70 -84l-186 -156q37 -87 37 -196
zM672 182q65 0 119.5 27t90 71.5t62 96.5t41 107t21 98t6.5 75q0 17 -2 31l-506 -424q26 -38 71 -60t97 -22zM809 895q-56 0 -105 -20.5t-83 -53.5t-62 -76.5t-45 -88t-28.5 -90t-16 -80t-4.5 -60.5q0 -28 2 -51l512 428q-58 92 -170 92z" />
    <glyph glyph-name="uni0200" unicode="&#x200;" horiz-adv-x="1478" 
d="M981 1911h244l92 -307h-129zM596 1911h244l92 -307h-129zM1090 301h-558l-165 -301h-314l834 1493h354l199 -1493h-314zM1061 557l-72 580l-315 -580h387z" />
    <glyph glyph-name="uni0201" unicode="&#x201;" horiz-adv-x="1138" 
d="M737 1554h244l92 -307h-129zM352 1554h244l92 -307h-129zM791 1124q95 0 167.5 -16.5t114 -42t68 -60t35 -65t8.5 -63.5t-13 -93l-129 -614q-6 -32 -6 -43q0 -43 43 -92l-8 -35h-313q-15 34 -15 55q0 20 7 56q-93 -84 -173 -121t-169 -37q-137 0 -221.5 74t-84.5 194
q0 31 8.5 70.5t36.5 95t71 103t120.5 89t177.5 58.5l119 18q7 1 31 4t34.5 4.5t33.5 6t35 8t32 10.5t30.5 14t24 18t20.5 23t12 28.5t5 35.5q0 46 -36 67t-114 21q-99 0 -151 -35t-78 -119h-268q43 200 173.5 291.5t371.5 91.5zM819 444l17 78q-11 -6 -17 -9t-15 -6
t-13.5 -4t-21.5 -3.5t-30 -5.5l-135 -23q-100 -17 -154.5 -65.5t-54.5 -120.5q0 -103 150 -103q104 0 175 68t99 194z" />
    <glyph glyph-name="uni0202" unicode="&#x202;" horiz-adv-x="1478" 
d="M903 1595h-86q22 126 115.5 209.5t214.5 83.5q97 0 157 -59t60 -154q0 -36 -12 -80h-86v17q0 55 -40 86t-112 31q-158 0 -211 -134zM1090 301h-558l-165 -301h-314l834 1493h354l199 -1493h-314zM1061 557l-72 580l-315 -580h387z" />
    <glyph glyph-name="uni0203" unicode="&#x203;" horiz-adv-x="1138" 
d="M635 1247h-86q22 126 115.5 209.5t214.5 83.5q97 0 157 -59t60 -154q0 -32 -13 -80h-86v17q0 55 -39.5 85.5t-111.5 30.5q-158 0 -211 -133zM791 1124q95 0 167.5 -16.5t114 -42t68 -60t35 -65t8.5 -63.5t-13 -93l-129 -614q-6 -32 -6 -43q0 -43 43 -92l-8 -35h-313
q-15 34 -15 55q0 20 7 56q-93 -84 -173 -121t-169 -37q-137 0 -221.5 74t-84.5 194q0 31 8.5 70.5t36.5 95t71 103t120.5 89t177.5 58.5l119 18q7 1 31 4t34.5 4.5t33.5 6t35 8t32 10.5t30.5 14t24 18t20.5 23t12 28.5t5 35.5q0 46 -36 67t-114 21q-99 0 -151 -35t-78 -119
h-268q43 200 173.5 291.5t371.5 91.5zM819 444l17 78q-11 -6 -17 -9t-15 -6t-13.5 -4t-21.5 -3.5t-30 -5.5l-135 -23q-100 -17 -154.5 -65.5t-54.5 -120.5q0 -103 150 -103q104 0 175 68t99 194z" />
    <glyph glyph-name="uni0204" unicode="&#x204;" horiz-adv-x="1366" 
d="M973 1919h244l92 -307h-129zM588 1919h243l93 -307h-129zM606 643l-82 -387h809l-55 -256h-1116l317 1493h1082l-56 -256h-774l-72 -338h715l-53 -256h-715z" />
    <glyph glyph-name="uni0205" unicode="&#x205;" horiz-adv-x="1138" 
d="M723 1554h244l92 -307h-129zM338 1554h244l92 -307h-129zM776 1124q195 0 314.5 -112.5t119.5 -292.5q0 -124 -36 -256h-744q-6 -57 -6 -92q0 -85 53 -137t141 -52q74 0 136.5 35.5t93.5 93.5h282q-85 -170 -233 -264t-334 -94q-192 0 -312 118t-120 308q0 41 6.5 93.5
t25.5 125.5t48.5 143.5t80.5 141t115.5 123t160 85.5t208.5 33zM741 895q-205 0 -274 -242h451q0 45 -2.5 75.5t-12.5 65t-28.5 54.5t-52 33.5t-81.5 13.5z" />
    <glyph glyph-name="uni0206" unicode="&#x206;" horiz-adv-x="1366" 
d="M870 1616h-86q22 126 115.5 209.5t214.5 83.5q97 0 157 -59t60 -154q0 -36 -12 -80h-86v16q0 55 -40 86t-112 31q-158 0 -211 -133zM606 643l-82 -387h809l-55 -256h-1116l317 1493h1082l-56 -256h-774l-72 -338h715l-53 -256h-715z" />
    <glyph glyph-name="uni0207" unicode="&#x207;" horiz-adv-x="1138" 
d="M621 1247h-86q22 126 115 209.5t214 83.5q97 0 157 -59t60 -154q0 -36 -12 -80h-86v17q0 55 -40 85.5t-112 30.5q-157 0 -210 -133zM776 1124q195 0 314.5 -112.5t119.5 -292.5q0 -124 -36 -256h-744q-6 -57 -6 -92q0 -85 53 -137t141 -52q74 0 136.5 35.5t93.5 93.5h282
q-85 -170 -233 -264t-334 -94q-192 0 -312 118t-120 308q0 41 6.5 93.5t25.5 125.5t48.5 143.5t80.5 141t115.5 123t160 85.5t208.5 33zM741 895q-205 0 -274 -242h451q0 45 -2.5 75.5t-12.5 65t-28.5 54.5t-52 33.5t-81.5 13.5z" />
    <glyph glyph-name="uni0208" unicode="&#x208;" horiz-adv-x="569" 
d="M553 1911h244l92 -307h-129zM168 1911h244l92 -307h-129zM754 1493l-318 -1493h-307l317 1493h308z" />
    <glyph glyph-name="uni0209" unicode="&#x209;" horiz-adv-x="569" 
d="M467 1554h244l92 -307h-129zM82 1554h244l92 -307h-129zM659 1106l-235 -1106h-287l236 1106h286z" />
    <glyph glyph-name="uni020A" unicode="&#x20a;" horiz-adv-x="569" 
d="M449 1608h-87q22 126 115.5 209.5t214.5 83.5q97 0 157 -59t60 -154q0 -36 -12 -80h-86v16q0 55 -40 86t-112 31q-157 0 -210 -133zM754 1493l-318 -1493h-307l317 1493h308z" />
    <glyph glyph-name="uni020B" unicode="&#x20b;" horiz-adv-x="569" 
d="M365 1247h-86q22 126 115 209.5t214 83.5q97 0 157 -59t60 -154q0 -36 -12 -80h-86v17q0 55 -40 85.5t-112 30.5q-157 0 -210 -133zM659 1106l-235 -1106h-287l236 1106h286z" />
    <glyph glyph-name="uni020C" unicode="&#x20c;" horiz-adv-x="1593" 
d="M1049 1923h243l92 -307h-129zM664 1923h243l92 -307h-129zM1102 1518q281 0 437.5 -154.5t156.5 -431.5q0 -89 -17.5 -183.5t-54.5 -190t-89.5 -184t-126.5 -165.5t-162 -134t-200.5 -89.5t-236.5 -32.5q-274 0 -433 156.5t-159 425.5q0 101 25 210.5t72 220t123 209.5
t171 176t223 122t271 45zM858 215q92 0 170.5 31t132 80t95.5 114.5t66.5 130t41 131t22 113t5.5 80.5q0 169 -87 264.5t-241 95.5q-93 0 -172 -30.5t-133 -79t-97 -113t-68.5 -128.5t-42 -130t-22.5 -113.5t-6 -82.5q0 -167 90.5 -265t245.5 -98z" />
    <glyph glyph-name="uni020D" unicode="&#x20d;" horiz-adv-x="1251" 
d="M780 1554h244l92 -307h-129zM395 1554h244l92 -307h-129zM168 362q0 207 82 379.5t238.5 277.5t357.5 105q211 0 331.5 -109t120.5 -300q0 -157 -49.5 -296.5t-137 -242.5t-217 -163t-282.5 -60q-203 0 -323.5 111t-120.5 298zM664 182q65 0 120 27t91 71t62.5 95.5
t41 107t21 98t6.5 74.5q0 109 -55.5 174.5t-149.5 65.5q-138 0 -239 -140.5t-101 -334.5q0 -109 55.5 -173.5t147.5 -64.5z" />
    <glyph glyph-name="uni020E" unicode="&#x20e;" horiz-adv-x="1593" 
d="M944 1618h-86q22 126 115.5 209.5t214.5 83.5q97 0 157 -59t60 -154q0 -36 -12 -80h-86v16q0 55 -40 86t-112 31q-158 0 -211 -133zM1102 1518q281 0 437.5 -154.5t156.5 -431.5q0 -89 -17.5 -183.5t-54.5 -190t-89.5 -184t-126.5 -165.5t-162 -134t-200.5 -89.5
t-236.5 -32.5q-274 0 -433 156.5t-159 425.5q0 101 25 210.5t72 220t123 209.5t171 176t223 122t271 45zM858 215q92 0 170.5 31t132 80t95.5 114.5t66.5 130t41 131t22 113t5.5 80.5q0 169 -87 264.5t-241 95.5q-93 0 -172 -30.5t-133 -79t-97 -113t-68.5 -128.5t-42 -130
t-22.5 -113.5t-6 -82.5q0 -167 90.5 -265t245.5 -98z" />
    <glyph glyph-name="uni020F" unicode="&#x20f;" horiz-adv-x="1251" 
d="M690 1247h-86q22 126 115.5 209.5t214.5 83.5q97 0 157 -59t60 -154q0 -36 -12 -80h-86v17q0 55 -40 85.5t-112 30.5q-158 0 -211 -133zM168 362q0 207 82 379.5t238.5 277.5t357.5 105q211 0 331.5 -109t120.5 -300q0 -157 -49.5 -296.5t-137 -242.5t-217 -163
t-282.5 -60q-203 0 -323.5 111t-120.5 298zM664 182q65 0 120 27t91 71t62.5 95.5t41 107t21 98t6.5 74.5q0 109 -55.5 174.5t-149.5 65.5q-138 0 -239 -140.5t-101 -334.5q0 -109 55.5 -173.5t147.5 -64.5z" />
    <glyph glyph-name="uni0210" unicode="&#x210;" horiz-adv-x="1478" 
d="M965 1917h243l92 -307h-129zM580 1917h243l92 -307h-129zM1044 84q0 69 39 216.5t39 178.5q0 113 -174 113h-352l-125 -592h-307l317 1493h772q81 0 145 -21.5t102.5 -54t63.5 -75t34.5 -81t9.5 -75.5q0 -61 -14.5 -117t-35.5 -96.5t-55 -79.5t-61.5 -62.5t-66.5 -48.5
t-59 -35.5t-50 -25.5q159 -53 159 -168q0 -71 -31.5 -232.5t-31.5 -195.5q0 -43 37 -70l-13 -55h-325q-17 55 -17 84zM1303 1094q0 55 -32 88t-79 44t-115 11h-344l-82 -389h371q66 0 117.5 18t81.5 44.5t49.5 61t26 64.5t6.5 58z" />
    <glyph glyph-name="uni0211" unicode="&#x211;" horiz-adv-x="796" 
d="M631 1554h243l93 -307h-129zM246 1554h243l93 -307h-129zM365 1106h286l-47 -217q72 112 166 173.5t193 61.5q18 0 34 -2l-61 -291q-56 9 -88 9q-254 0 -307 -252l-125 -588h-287z" />
    <glyph glyph-name="uni0212" unicode="&#x212;" horiz-adv-x="1478" 
d="M831 1597h-86q22 126 115.5 209.5t214.5 83.5q97 0 157 -59t60 -154q0 -36 -12 -80h-86v17q0 55 -40 86t-112 31q-158 0 -211 -134zM1044 84q0 69 39 216.5t39 178.5q0 113 -174 113h-352l-125 -592h-307l317 1493h772q81 0 145 -21.5t102.5 -54t63.5 -75t34.5 -81
t9.5 -75.5q0 -61 -14.5 -117t-35.5 -96.5t-55 -79.5t-61.5 -62.5t-66.5 -48.5t-59 -35.5t-50 -25.5q159 -53 159 -168q0 -71 -31.5 -232.5t-31.5 -195.5q0 -43 37 -70l-13 -55h-325q-17 55 -17 84zM1303 1094q0 55 -32 88t-79 44t-115 11h-344l-82 -389h371q66 0 117.5 18
t81.5 44.5t49.5 61t26 64.5t6.5 58z" />
    <glyph glyph-name="uni0213" unicode="&#x213;" horiz-adv-x="796" 
d="M528 1247h-86q22 126 115.5 209.5t214.5 83.5q97 0 157 -59t60 -154q0 -36 -12 -80h-86v17q0 55 -40 85.5t-112 30.5q-158 0 -211 -133zM365 1106h286l-47 -217q72 112 166 173.5t193 61.5q18 0 34 -2l-61 -291q-56 9 -88 9q-254 0 -307 -252l-125 -588h-287z" />
    <glyph glyph-name="uni0214" unicode="&#x214;" horiz-adv-x="1478" 
d="M1018 1909h244l92 -307h-129zM633 1909h244l92 -307h-129zM1350 1493h307l-215 -1012q-24 -113 -75.5 -204t-117.5 -150.5t-149.5 -99.5t-170 -57t-179.5 -17q-232 0 -369 105.5t-137 283.5q0 73 22 180l207 971h307l-215 -1012q-10 -55 -10 -92q0 -82 66 -128t186 -46
q140 0 219.5 64t108.5 202z" />
    <glyph glyph-name="uni0215" unicode="&#x215;" horiz-adv-x="1251" 
d="M801 1554h243l93 -307h-129zM416 1554h243l93 -307h-129zM1108 0h-287l31 139q-83 -98 -171 -142t-202 -44q-135 0 -217 73.5t-82 196.5q0 50 13 113l163 770h287l-143 -670q-13 -76 -13 -100q0 -75 40 -114.5t116 -39.5q100 0 174.5 74t100.5 199l139 651h286z" />
    <glyph glyph-name="uni0216" unicode="&#x216;" horiz-adv-x="1478" 
d="M901 1604h-86q22 126 115.5 209t214.5 83q97 0 157 -59t60 -154q0 -35 -12 -79h-86v16q0 55 -40 86t-112 31q-158 0 -211 -133zM1350 1493h307l-215 -1012q-24 -113 -75.5 -204t-117.5 -150.5t-149.5 -99.5t-170 -57t-179.5 -17q-232 0 -369 105.5t-137 283.5
q0 73 22 180l207 971h307l-215 -1012q-10 -55 -10 -92q0 -82 66 -128t186 -46q140 0 219.5 64t108.5 202z" />
    <glyph glyph-name="uni0217" unicode="&#x217;" horiz-adv-x="1251" 
d="M698 1247h-86q22 126 115.5 209.5t214.5 83.5q97 0 157 -59t60 -154q0 -36 -12 -80h-86v17q0 55 -40 85.5t-112 30.5q-158 0 -211 -133zM1108 0h-287l31 139q-83 -98 -171 -142t-202 -44q-135 0 -217 73.5t-82 196.5q0 50 13 113l163 770h287l-143 -670q-13 -76 -13 -100
q0 -75 40 -114.5t116 -39.5q100 0 174.5 74t100.5 199l139 651h286z" />
    <glyph glyph-name="Scommaaccent" unicode="&#x218;" horiz-adv-x="1366" 
d="M309 967q0 114 46.5 214.5t130 175.5t209 118t274.5 43q244 0 380 -93.5t136 -259.5q0 -46 -17 -127h-286q4 36 4 47q0 83 -70 126.5t-201 43.5q-139 0 -220 -57.5t-81 -155.5q0 -58 51.5 -89t196.5 -60l223 -45q157 -31 239.5 -109t82.5 -196q0 -50 -9 -102.5t-32 -111
t-57.5 -111.5t-90.5 -102t-126.5 -84.5t-169.5 -57t-215 -21.5q-106 0 -193 17.5t-145.5 48.5t-101.5 70t-66.5 85.5t-34 91t-10.5 90.5q0 35 8 90h299q-4 -36 -4 -47q0 -88 76.5 -136t216.5 -48q159 0 254.5 62t95.5 165q0 72 -53 109t-193 65l-201 41q-183 37 -264.5 110
t-81.5 200zM559 -135h250l-47 -209q-51 -232 -305 -256l20 94q71 13 118 54.5t56 107.5h-137z" />
    <glyph glyph-name="scommaaccent" unicode="&#x219;" horiz-adv-x="1138" 
d="M260 707q0 179 148.5 298t384.5 119q193 0 303 -79.5t110 -217.5q0 -31 -10 -77h-276q6 27 6 38q0 50 -48 78.5t-133 28.5q-82 0 -131 -29.5t-49 -79.5q0 -31 27.5 -50t105.5 -42l197 -57q128 -38 189 -100t61 -154q0 -197 -154.5 -313.5t-415.5 -116.5q-104 0 -185.5 21
t-130.5 53.5t-81 75t-43.5 81t-11.5 76.5q0 21 8 62h281q2 -42 23.5 -71.5t56 -43.5t67.5 -19.5t70 -5.5q94 0 153.5 31.5t59.5 81.5q0 35 -29.5 55t-126.5 51l-162 52q-135 44 -199.5 106t-64.5 148zM442 -135h250l-47 -209q-51 -232 -305 -256l20 94q71 13 118.5 54.5
t56.5 107.5h-138z" />
    <glyph glyph-name="uni021A" unicode="&#x21a;" horiz-adv-x="1251" 
d="M477 -135h250l-47 -209q-51 -232 -305 -256l20 94q71 13 118 54.5t56 107.5h-137zM1053 1237l-265 -1237h-307l264 1237h-454l55 256h1196l-55 -256h-434z" />
    <glyph glyph-name="uni021B" unicode="&#x21b;" horiz-adv-x="681" 
d="M236 -135h249l-47 -209q-51 -232 -305 -256l21 94q71 13 118 54.5t56 107.5h-138zM848 1083l-41 -190h-160l-127 -602q-12 -52 -12 -70q0 -23 21.5 -37t56.5 -14q24 0 67 6l-41 -201q-78 -22 -174 -22q-112 0 -171.5 45.5t-59.5 130.5q0 36 10 84l143 680h-141l41 190
h141l64 297h287l-64 -297h160z" />
    <glyph glyph-name="uni021c" unicode="&#x21c;" horiz-adv-x="1165" 
d="M549 995l-10 -49h-283l12 51q59 257 218.5 389t398.5 132q196 0 302.5 -90t106.5 -248q0 -127 -55.5 -230t-138.5 -172q100 -85 100 -239q0 -79 -22.5 -151t-55.5 -129.5t-94 -112.5t-114 -95t-141.5 -83t-150 -70t-166.5 -63t-165 -54.5t-168 -50.5l-55 -17l-13 299
l68 -4q16 4 44.5 11.5t110 33.5t156 54t165 72t156 89t110 103.5t44.5 117.5q0 49 -20 71.5t-64 43.5q-138 -64 -329 -119l-56 -14l-12 248l45 16q65 25 102.5 39.5t89 35.5t80.5 34.5t67 32.5t58.5 34t45.5 34t37.5 37t24.5 39.5t16.5 45t4.5 49.5q0 70 -43.5 105.5
t-124.5 35.5q-119 0 -183.5 -60t-98.5 -202z" />
    <glyph glyph-name="uni021d" unicode="&#x21d;" horiz-adv-x="995" 
d="M490 705l-11 -52h-279l11 52q39 185 179.5 304t324.5 119q151 0 242 -80t91 -210q0 -93 -39.5 -171.5t-93.5 -128.5q63 -63 63 -170q0 -78 -27 -146t-62.5 -117.5t-110.5 -99t-127.5 -78.5t-161.5 -68.5t-165 -57t-181 -54.5q-2 -1 -3 -1l-57 -16v251q25 8 80.5 23.5
t96.5 27t99.5 31.5t101 37.5t89 42.5t76 50.5t48.5 57.5t19 66q0 32 -32 60q-121 -56 -247 -86l-63 -15l1 236l44 17q76 28 118.5 45t90.5 39t71.5 38.5t45.5 38.5t30 46t8 54q0 76 -99 76q-59 0 -107 -42.5t-64 -118.5z" />
    <glyph glyph-name="uni021E" unicode="&#x21e;" horiz-adv-x="1478" 
d="M1171 1606h-221l-145 301h160l125 -199l210 199h156zM1182 678h-592l-144 -678h-307l318 1493h307l-119 -559h590l119 559h309l-317 -1493h-308z" />
    <glyph glyph-name="uni021F" unicode="&#x21f;" horiz-adv-x="1251" 
d="M1075 1499h-221l-145 301h159l125 -198l211 198h156zM455 1493h286l-118 -555q82 97 170.5 141.5t197.5 44.5q134 0 215.5 -74.5t81.5 -195.5q0 -54 -12 -113l-158 -741h-287l138 641q12 64 12 98q0 75 -39 115.5t-111 40.5q-98 0 -173 -74t-101 -198l-133 -623h-287z
" />
    <glyph glyph-name="uni0224" unicode="&#x224;" horiz-adv-x="1320" 
d="M1593 1493l-51 -241l-1051 -1004h842l-88 -414q-8 -37 -23 -71t-46 -72.5t-74 -66t-111 -46t-151 -18.5q-31 0 -66 7l-39 8l51 242l54 -3q32 -2 37 -2q49 0 66 9t27 32q10 25 15 49l21 100h-938l50 237l1056 1008h-784l52 246h1151z" />
    <glyph glyph-name="uni0225" unicode="&#x225;" horiz-adv-x="1024" 
d="M709 0h-666l47 223l715 656h-532l49 229h872l-47 -221l-711 -658h596l-85 -397q-10 -47 -33 -90t-67 -87t-122.5 -70.5t-181.5 -26.5q-31 0 -66 7l-39 8l51 242l54 -4q16 -1 37 -1q49 0 66 9t27 32q9 21 14 49z" />
    <glyph glyph-name="uni0226" unicode="&#x226;" horiz-adv-x="1478" 
d="M1090 301h-558l-165 -301h-314l834 1493h354l199 -1493h-314zM1061 557l-72 580l-315 -580h387zM1262 1886l-54 -246h-225l53 246h226z" />
    <glyph glyph-name="uni0227" unicode="&#x227;" horiz-adv-x="1138" 
d="M983 1493l-53 -246h-225l53 246h225zM791 1124q95 0 167.5 -16.5t114 -42t68 -60t35 -65t8.5 -63.5t-13 -93l-129 -614q-6 -32 -6 -43q0 -43 43 -92l-8 -35h-313q-15 34 -15 55q0 20 7 56q-93 -84 -173 -121t-169 -37q-137 0 -221.5 74t-84.5 194q0 31 8.5 70.5t36.5 95
t71 103t120.5 89t177.5 58.5l119 18q7 1 31 4t34.5 4.5t33.5 6t35 8t32 10.5t30.5 14t24 18t20.5 23t12 28.5t5 35.5q0 46 -36 67t-114 21q-99 0 -151 -35t-78 -119h-268q43 200 173.5 291.5t371.5 91.5zM819 444l17 78q-11 -6 -17 -9t-15 -6t-13.5 -4t-21.5 -3.5t-30 -5.5
l-135 -23q-100 -17 -154.5 -65.5t-54.5 -120.5q0 -103 150 -103q104 0 175 68t99 194z" />
    <glyph glyph-name="uni0228" unicode="&#x228;" horiz-adv-x="1366" 
d="M606 643l-82 -387h809l-55 -256h-605l-75 -113q54 13 88 13q62 0 96.5 -31t34.5 -86q0 -99 -84.5 -159t-222.5 -60q-69 0 -127.5 12.5t-144.5 46.5l61 105q72 -35 115 -48.5t86 -13.5q58 0 98.5 26.5t40.5 63.5q0 31 -25 49.5t-65 18.5q-43 0 -109 -27l130 203h-408
l317 1493h1082l-56 -256h-774l-72 -338h715l-53 -256h-715z" />
    <glyph glyph-name="uni0229" unicode="&#x229;" horiz-adv-x="1138" 
d="M918 684q0 46 -8 81.5t-26.5 66t-54.5 47t-88 16.5q-205 0 -274 -242h451v31zM776 1124q195 0 314.5 -112.5t119.5 -292.5q0 -124 -36 -256h-744q-6 -57 -6 -92q0 -85 53 -137t141 -52q74 0 136.5 35.5t93.5 93.5h282q-79 -161 -216 -253.5t-310 -103.5l-76 -114
q54 13 88 13q62 0 97 -31t35 -86q0 -99 -84.5 -159t-223.5 -60q-69 0 -127.5 12.5t-144.5 46.5l61 105q72 -35 115 -48.5t86 -13.5q58 0 98.5 26.5t40.5 63.5q0 31 -25 49.5t-65 18.5q-42 0 -108 -27l132 206q-168 19 -270 134t-102 289q0 41 6.5 93.5t25.5 125.5
t48.5 143.5t80.5 141t115.5 123t160 85.5t208.5 33z" />
    <glyph glyph-name="uni022a" unicode="&#x22a;" horiz-adv-x="1593" 
d="M1102 1518q281 0 437.5 -154.5t156.5 -431.5q0 -89 -17.5 -183.5t-54.5 -190t-89.5 -184t-126.5 -165.5t-162 -134t-200.5 -89.5t-236.5 -32.5q-274 0 -433 156.5t-159 425.5q0 101 25 210.5t72 220t123 209.5t171 176t223 122t271 45zM858 215q92 0 170.5 31t132 80
t95.5 114.5t66.5 130t41 131t22 113t5.5 80.5q0 169 -87 264.5t-241 95.5q-93 0 -172 -30.5t-133 -79t-97 -113t-68.5 -128.5t-42 -130t-22.5 -113.5t-6 -82.5q0 -167 90.5 -265t245.5 -98zM1518 1829l-54 -246h-225l53 246h226zM1116 1829l-53 -246h-225l53 246h225z
M1565 2044l-35 -164h-615l35 164h615z" />
    <glyph glyph-name="uni022b" unicode="&#x22b;" horiz-adv-x="1251" 
d="M1251 1513l-53 -245h-225l53 245h225zM850 1513l-53 -245h-226l54 245h225zM168 362q0 207 82 379.5t238.5 277.5t357.5 105q211 0 331.5 -109t120.5 -300q0 -157 -49.5 -296.5t-137 -242.5t-217 -163t-282.5 -60q-203 0 -323.5 111t-120.5 298zM664 182q65 0 120 27
t91 71t62.5 95.5t41 107t21 98t6.5 74.5q0 109 -55.5 174.5t-149.5 65.5q-138 0 -239 -140.5t-101 -334.5q0 -109 55.5 -173.5t147.5 -64.5zM1300 1812l-34 -163h-615l35 163h614z" />
    <glyph glyph-name="uni022c" unicode="&#x22c;" horiz-adv-x="1593" 
d="M1102 1518q281 0 437.5 -154.5t156.5 -431.5q0 -89 -17.5 -183.5t-54.5 -190t-89.5 -184t-126.5 -165.5t-162 -134t-200.5 -89.5t-236.5 -32.5q-274 0 -433 156.5t-159 425.5q0 101 25 210.5t72 220t123 209.5t171 176t223 122t271 45zM858 215q92 0 170.5 31t132 80
t95.5 114.5t66.5 130t41 131t22 113t5.5 80.5q0 169 -87 264.5t-241 95.5q-93 0 -172 -30.5t-133 -79t-97 -113t-68.5 -128.5t-42 -130t-22.5 -113.5t-6 -82.5q0 -167 90.5 -265t245.5 -98zM1575 1837q-36 -130 -109 -190t-163 -60q-53 0 -105 23l-102 51q-64 29 -90 29
q-54 0 -105 -99h-110q35 115 99.5 177.5t147.5 62.5q39 0 68 -7t78 -28l102 -43q30 -14 40 -17t28 -3q67 0 110 104h111zM1556 2044l-34 -164h-615l35 164h614z" />
    <glyph glyph-name="uni022d" unicode="&#x22d;" horiz-adv-x="1251" 
d="M1292 1497q-36 -130 -109 -190t-163 -60q-53 0 -105 23l-102 51q-64 29 -90 29q-54 0 -105 -99h-110q35 115 100 177.5t148 62.5q39 0 67.5 -7t77.5 -28l103 -43q31 -14 40 -17t27 -3q68 0 111 104h110zM168 362q0 207 82 379.5t238.5 277.5t357.5 105q211 0 331.5 -109
t120.5 -300q0 -157 -49.5 -296.5t-137 -242.5t-217 -163t-282.5 -60q-203 0 -323.5 111t-120.5 298zM664 182q65 0 120 27t91 71t62.5 95.5t41 107t21 98t6.5 74.5q0 109 -55.5 174.5t-149.5 65.5q-138 0 -239 -140.5t-101 -334.5q0 -109 55.5 -173.5t147.5 -64.5z
M1282 1825l-35 -164h-614l35 164h614z" />
    <glyph glyph-name="uni022E" unicode="&#x22e;" horiz-adv-x="1593" 
d="M1102 1518q281 0 437.5 -154.5t156.5 -431.5q0 -89 -17.5 -183.5t-54.5 -190t-89.5 -184t-126.5 -165.5t-162 -134t-200.5 -89.5t-236.5 -32.5q-274 0 -433 156.5t-159 425.5q0 101 25 210.5t72 220t123 209.5t171 176t223 122t271 45zM858 215q92 0 170.5 31t132 80
t95.5 114.5t66.5 130t41 131t22 113t5.5 80.5q0 169 -87 264.5t-241 95.5q-93 0 -172 -30.5t-133 -79t-97 -113t-68.5 -128.5t-42 -130t-22.5 -113.5t-6 -82.5q0 -167 90.5 -265t245.5 -98zM1294 1886l-53 -246h-225l53 246h225z" />
    <glyph glyph-name="uni022F" unicode="&#x22f;" horiz-adv-x="1251" 
d="M1038 1493l-53 -246h-225l53 246h225zM168 362q0 207 82 379.5t238.5 277.5t357.5 105q211 0 331.5 -109t120.5 -300q0 -157 -49.5 -296.5t-137 -242.5t-217 -163t-282.5 -60q-203 0 -323.5 111t-120.5 298zM664 182q65 0 120 27t91 71t62.5 95.5t41 107t21 98t6.5 74.5
q0 109 -55.5 174.5t-149.5 65.5q-138 0 -239 -140.5t-101 -334.5q0 -109 55.5 -173.5t147.5 -64.5z" />
    <glyph glyph-name="uni0230" unicode="&#x230;" horiz-adv-x="1593" 
d="M1102 1518q281 0 437.5 -154.5t156.5 -431.5q0 -89 -17.5 -183.5t-54.5 -190t-89.5 -184t-126.5 -165.5t-162 -134t-200.5 -89.5t-236.5 -32.5q-274 0 -433 156.5t-159 425.5q0 101 25 210.5t72 220t123 209.5t171 176t223 122t271 45zM858 215q92 0 170.5 31t132 80
t95.5 114.5t66.5 130t41 131t22 113t5.5 80.5q0 169 -87 264.5t-241 95.5q-93 0 -172 -30.5t-133 -79t-97 -113t-68.5 -128.5t-42 -130t-22.5 -113.5t-6 -82.5q0 -167 90.5 -265t245.5 -98zM1280 1829l-53 -246h-226l54 246h225zM1518 2048l-35 -164h-615l35 164h615z" />
    <glyph glyph-name="uni0231" unicode="&#x231;" horiz-adv-x="1251" 
d="M1038 1493l-53 -246h-225l53 246h225zM168 362q0 207 82 379.5t238.5 277.5t357.5 105q211 0 331.5 -109t120.5 -300q0 -157 -49.5 -296.5t-137 -242.5t-217 -163t-282.5 -60q-203 0 -323.5 111t-120.5 298zM664 182q65 0 120 27t91 71t62.5 95.5t41 107t21 98t6.5 74.5
q0 109 -55.5 174.5t-149.5 65.5q-138 0 -239 -140.5t-101 -334.5q0 -109 55.5 -173.5t147.5 -64.5zM1282 1788l-35 -164h-614l35 164h614z" />
    <glyph glyph-name="uni0232" unicode="&#x232;" horiz-adv-x="1366" 
d="M1384 1804l-34 -164h-615l35 164h614zM977 553l-119 -553h-307l119 553l-297 940h342l168 -645l424 645h342z" />
    <glyph glyph-name="uni0233" unicode="&#x233;" horiz-adv-x="1138" 
d="M1167 1411l-34 -164h-615l35 164h614zM1042 1106h295l-733 -1307q-38 -71 -54 -93q-115 -155 -384 -155q-49 0 -90 9l47 223q23 -4 57 -4q106 0 169 51.5t63 138.5q-27 218 -83.5 609t-74.5 528h315l74 -805z" />
    <glyph glyph-name="dotlessj" unicode="&#x237;" horiz-adv-x="569" 
d="M666 1106l-277 -1299q-28 -133 -119 -193t-266 -60q-56 0 -92 10l49 227q11 -8 51 -8q46 0 70.5 20.5t34.5 69.5l262 1233h287z" />
    <glyph glyph-name="uni0250" unicode="&#x250;" horiz-adv-x="1138" 
d="M496 -47q-95 0 -167.5 16.5t-114 42t-68 60t-35.5 65.5t-9 64q0 32 13 92l129 614q6 32 6 43q0 43 -43 92l8 35h313q15 -35 15 -55q0 -24 -6 -55q92 83 172.5 120t169.5 37q137 0 221 -74t84 -194q0 -31 -8.5 -70.5t-36.5 -95t-71 -103t-120.5 -89t-177.5 -58.5l-119 -18
q-7 -1 -31 -4t-34.5 -4.5t-33.5 -6t-35 -8t-32 -10.5t-30.5 -14t-24 -18t-20.5 -23t-12 -28.5t-5 -35.5q0 -46 36 -67t114 -21q99 0 151 35t78 119h268q-43 -200 -173 -291.5t-371 -91.5zM467 633l-16 -78l16 8t10 5.5t12 4t12 2.5t20 4t26 5l135 22q100 17 154.5 66
t54.5 121q0 102 -150 102q-104 0 -175 -68t-99 -194z" />
    <glyph glyph-name="uni0251" unicode="&#x251;" horiz-adv-x="1251" 
d="M575 193q74 0 133.5 38t94.5 93.5t59 122.5t32.5 119t8.5 89q0 107 -47.5 168.5t-132.5 61.5q-72 0 -131.5 -38.5t-95 -94t-59.5 -122.5t-33 -119t-9 -87q0 -107 47.5 -169t132.5 -62zM102 375q0 123 45 254t122 241.5t194 182t248 71.5q103 0 168 -39t102 -122l31 143
h286l-198 -936q-6 -24 -6 -43q0 -43 43 -92l-9 -35h-311q-16 24 -16 55q0 23 8 56l-8 2q-138 -160 -340 -160q-49 0 -96 11t-96 40.5t-85 75.5t-59 122t-23 173z" />
    <glyph glyph-name="uni0252" unicode="&#x252;" horiz-adv-x="1374" 
d="M825 885q-74 0 -133.5 -38.5t-94.5 -94t-58.5 -122.5t-32 -119t-8.5 -89q0 -107 47.5 -168t132.5 -61q61 0 113 26.5t86 70t60.5 94.5t40.5 104.5t21 94.5t7 70q0 107 -48 169.5t-133 62.5zM1298 702q0 -98 -27.5 -202.5t-82 -201.5t-126.5 -174.5t-169 -124t-203 -46.5
q-103 0 -168 39.5t-102 122.5l-31 -144h-287l199 936q6 24 6 43q0 43 -43 92l8 35h312q16 -24 16 -55q0 -22 -8 -55l8 -2q137 159 340 159q49 0 95.5 -11t95.5 -40.5t85 -75.5t59 -122t23 -173z" />
    <glyph glyph-name="uni0253" unicode="&#x253;" horiz-adv-x="1251" 
d="M819 885q-74 0 -133.5 -38t-94.5 -93t-58.5 -122t-32 -119.5t-8.5 -90.5q0 -107 47.5 -168t132.5 -61q75 0 139 45.5t103.5 115t62 148t22.5 149.5q0 107 -48 170.5t-132 63.5zM1290 700q0 -129 -37.5 -247.5t-99.5 -207.5t-140.5 -156t-163.5 -101.5t-165 -34.5
q-204 0 -270 160l-25 -113h-287l265 1239q28 135 99.5 194.5t205.5 59.5q73 0 168 -10l-49 -230q-27 9 -50 9q-46 0 -68.5 -19.5t-33.5 -66.5l-45 -213q133 161 340 161q49 0 95.5 -11t95 -40.5t84 -75.5t58.5 -122.5t23 -174.5z" />
    <glyph glyph-name="uni0254" unicode="&#x254;" horiz-adv-x="1138" 
d="M510 -47q-186 0 -297 98.5t-111 245.5q0 15 9 88h274q1 -40 3.5 -66t12.5 -54.5t27.5 -45t49 -27t75.5 -10.5q73 0 131.5 38t93 95t57 128t31 130.5t8.5 110.5q0 211 -182 211q-83 0 -138.5 -46t-102.5 -155h-275q64 205 208.5 317.5t342.5 112.5q101 0 180.5 -26.5
t127 -67.5t78.5 -96t42.5 -106t11.5 -103q0 -45 -7 -101t-27 -132t-50.5 -148.5t-82.5 -144.5t-118 -125.5t-162 -87t-210 -33.5z" />
    <glyph glyph-name="uni0255" unicode="&#x255;" horiz-adv-x="1228" 
d="M242 352q0 53 8.5 115.5t30.5 138.5t55.5 147t87 139.5t120.5 119t162 81.5t205 31q186 0 289 -93t103 -259q0 -29 -7 -80h-274q-2 109 -38.5 155t-123.5 46q-95 0 -170 -70t-115 -190t-40 -268q187 108 303.5 145t222.5 37q71 0 119.5 -46.5t48.5 -99.5
q0 -42 -20.5 -97.5t-64.5 -117.5t-104 -113.5t-150 -85.5t-192 -34q-100 0 -170 12t-135 55q-30 -19 -98.5 -60t-104.5 -64l-116 184l188 119q-20 75 -20 153zM938 258q-4 47 -43 47q-25 0 -111.5 -42t-128.5 -70q35 -9 52 -9q134 0 231 74z" />
    <glyph glyph-name="uni0256" unicode="&#x256;" horiz-adv-x="1218" 
d="M575 193q73 0 132 38t94.5 93t59.5 121.5t33 119t9 90.5q0 107 -47.5 168.5t-132.5 61.5q-75 0 -140 -46t-105 -116t-62.5 -149t-22.5 -150q0 -107 48 -169t134 -62zM102 375q0 159 57.5 302.5t146.5 239t196 151.5t207 56q103 0 169 -39t103 -122l113 530h286
l-346 -1622q-4 -24 -4 -35q0 -51 70 -51q26 0 53 8l-49 -229q-95 -10 -172 -10q-108 0 -158.5 38t-50.5 123q0 39 12 92l64 306q-138 -160 -338 -160q-49 0 -96 11t-96 40.5t-85 75.5t-59 122t-23 173z" />
    <glyph glyph-name="uni0257" unicode="&#x257;" horiz-adv-x="1251" 
d="M575 193q73 0 132.5 38t94.5 93.5t59 122.5t33 119t9 89q0 107 -47.5 168.5t-132.5 61.5q-75 0 -139.5 -46t-104.5 -116t-63 -149t-23 -150q0 -107 48 -169t134 -62zM102 375q0 99 28 204t82.5 201.5t127 174t169.5 123.5t202 46q103 0 168 -39t102 -122l59 276
q28 135 100 194.5t206 59.5q75 0 167 -10l-49 -230q-27 9 -49 9q-46 0 -68.5 -19.5t-33.5 -66.5l-250 -1176h-287l25 113q-141 -160 -340 -160q-49 0 -96 11t-96 40.5t-85 75.5t-59 122t-23 173z" />
    <glyph glyph-name="uni0258" unicode="&#x258;" horiz-adv-x="1138" 
d="M772 1124q81 0 146.5 -16.5t110 -46.5t76.5 -68.5t49.5 -86.5t25.5 -96.5t8 -102.5q0 -140 -37.5 -263t-101.5 -211.5t-148.5 -152.5t-179 -95.5t-191.5 -31.5q-186 0 -297.5 93.5t-130.5 264.5h283q7 -58 56.5 -93.5t123.5 -35.5q217 0 297 281h-743q13 119 48.5 218.5
t81.5 166.5t105.5 118.5t115.5 80.5t116.5 47t104 24t81.5 6zM449 653h450q2 16 2 49q0 193 -182 193q-37 0 -69 -9t-55 -21t-45 -35.5t-34 -39.5t-27.5 -47t-21 -44.5t-18.5 -45.5z" />
    <glyph glyph-name="uni0259" unicode="&#x259;" horiz-adv-x="1138" 
d="M537 -47q-195 0 -315 112.5t-120 292.5q0 120 37 256h744q6 57 6 93q0 85 -53.5 136.5t-141.5 51.5q-73 0 -135.5 -35t-93.5 -94h-283q85 170 233.5 264t334.5 94q192 0 312 -118t120 -308q0 -41 -6.5 -93.5t-25.5 -125.5t-48.5 -143.5t-80.5 -141t-115.5 -123
t-160 -85.5t-208.5 -33zM571 182q206 0 275 242h-451q0 -45 2.5 -75.5t12.5 -65t28 -54.5t51.5 -33.5t81.5 -13.5z" />
    <glyph glyph-name="uni025A" unicode="&#x25a;" horiz-adv-x="1708" 
d="M395 424q-4 -46 -4 -64q0 -91 44 -139.5t130 -48.5q191 0 271 252h-441zM1174 725q0 -93 -23 -194.5t-75.5 -205.5t-127 -186t-187.5 -134t-247 -52q-60 0 -115 11.5t-110 41t-95.5 74.5t-66 119t-25.5 168q0 123 37 247h742q12 78 12 115q0 83 -40.5 129.5t-139.5 46.5
q-78 0 -143.5 -36.5t-106.5 -102.5h-283q83 163 243.5 260.5t346.5 97.5q185 0 291 -98l178 141h215q20 -95 35.5 -210t26 -179t24.5 -88q8 1 15 4t16.5 9.5t17.5 12.5t21.5 19.5t24.5 25t31 34t36.5 41t45.5 51.5t54 61l-86 -399q-78 -61 -133.5 -86t-120.5 -25
q-26 0 -47.5 6t-52.5 32t-54.5 70.5t-46 129.5t-34.5 201l-64 -41q11 -60 11 -111z" />
    <glyph glyph-name="uni025B" unicode="&#x25b;" horiz-adv-x="1167" 
d="M582 213q69 0 123.5 11.5t85 26t53 38t30.5 37.5t15 34h266q-40 -96 -94.5 -166t-112 -110.5t-131.5 -64.5t-140.5 -31.5t-150.5 -7.5q-424 0 -424 239q0 213 215 336q-16 12 -27 22t-26 29.5t-23 46.5t-8 60q0 56 15.5 109.5t57.5 111t107.5 99.5t174.5 69.5t248 27.5
q111 0 186.5 -13.5t132 -46.5t83 -92.5t26.5 -148.5q0 -21 -4 -79h-267q2 8 2 22q0 125 -229 125q-74 0 -126 -13t-77 -35t-35 -43t-10 -44q0 -52 39 -76t143 -24h150l-59 -213h-148q-75 0 -127.5 -14t-77.5 -38t-35 -47t-10 -49q0 -88 189 -88z" />
    <glyph glyph-name="uni025C" unicode="&#x25c;" horiz-adv-x="1118" 
d="M586 178q241 0 241 156q0 92 -145 92h-188l49 225h192q48 0 83 17.5t52 44.5t24 52t7 48q0 39 -39.5 62.5t-107.5 23.5q-204 0 -238 -149h-276q40 175 189 274.5t372 99.5q183 0 284 -76t101 -210q0 -88 -37.5 -165.5t-104.5 -117.5q80 -59 80 -154q0 -192 -159 -320
t-412 -128q-222 0 -336.5 74t-114.5 217q0 34 9 78h280v-17q0 -62 42.5 -94.5t152.5 -32.5z" />
    <glyph glyph-name="uni025D" unicode="&#x25d;" horiz-adv-x="1679" 
d="M1124 399q0 -56 -18.5 -115t-62 -119t-107.5 -106.5t-163 -76t-220 -29.5q-224 0 -337.5 74t-113.5 219q0 29 7 76h280q1 -34 6.5 -55.5t23.5 -44t59 -33.5t106 -11q243 0 243 158q0 90 -145 90h-188l49 225h192q51 0 85.5 17t49.5 43.5t20 47t5 40.5q0 100 -141 100
q-204 0 -238 -149h-276q40 175 189 274.5t372 99.5q186 0 286 -77l168 120h218q19 -91 33.5 -209t25.5 -185t27 -89q8 1 14 3t14.5 7.5t15.5 11t19 18t23 24t30.5 34t37 43t48 55t58.5 66.5l-86 -403q-79 -64 -134 -89.5t-120 -25.5q-40 0 -72.5 16t-55.5 41t-41 64.5
t-29.5 78t-20 90.5t-13 93t-8.5 94l-55 -41q2 -8 2 -26q0 -88 -37.5 -163.5t-104.5 -119.5q80 -59 80 -156z" />
    <glyph glyph-name="uni025E" unicode="&#x25e;" horiz-adv-x="1167" 
d="M692 653q240 0 240 146q0 90 -193 90q-72 0 -130.5 -23.5t-97 -59.5t-67.5 -87t-44 -99.5t-24 -103.5t-11.5 -92t-2.5 -72q0 -78 51.5 -109.5t182.5 -31.5q134 0 187 38t53 103q0 53 -46.5 72.5t-142.5 19.5h-145l45 209h145zM1108 383q0 -57 -14.5 -110t-54.5 -107.5
t-101.5 -94.5t-163.5 -65.5t-233 -25.5q-241 0 -340 81t-99 246q0 64 6 128t24 147t48 155t82.5 144.5t121.5 123.5t171.5 83t226.5 32q100 -2 175.5 -15.5t134 -42t88.5 -77t30 -115.5q0 -58 -16 -109t-37 -84t-51 -62t-49 -42t-39 -24q45 -34 67.5 -72t22.5 -94z" />
    <glyph glyph-name="uni025F" unicode="&#x25f;" horiz-adv-x="569" 
d="M532 424l-131 -617q-29 -135 -101 -194t-206 -59q-74 0 -166 10l47 229q27 -8 50 -8q46 0 69.5 19.5t32.5 66.5l119 553h-137l57 276h137l88 406h287l-88 -406h133l-57 -276h-134z" />
    <glyph glyph-name="uni0260" unicode="&#x260;" horiz-adv-x="1251" 
d="M717 885q-69 0 -131 -44.5t-103 -114t-64.5 -151.5t-23.5 -159q0 -103 45.5 -163t124.5 -60q59 0 109.5 21.5t84 55.5t60 75t41 82.5t24 75.5t12.5 55l3 22q8 39 8 79q0 101 -53 163.5t-137 62.5zM100 348q0 102 27.5 211t81.5 209.5t126 180t169 127.5t203 48
q96 0 159.5 -45t106.5 -143l47 219q29 135 100.5 194.5t204.5 59.5q58 0 150 -10l-50 -230q-27 9 -45 9q-44 0 -67.5 -16.5t-30.5 -55.5l-244 -1143q-41 -195 -201 -302t-411 -107q-99 0 -176.5 17.5t-124 44t-77 62t-41.5 68.5t-11 66q0 25 6 55h297q5 -63 49.5 -96
t126.5 -33q107 0 188 62.5t103 162.5l33 150q-100 -91 -175.5 -125.5t-172.5 -34.5q-165 0 -258 106t-93 289z" />
    <glyph glyph-name="uni0261" unicode="&#x261;" horiz-adv-x="1251" 
d="M481 -446q-122 0 -210.5 23.5t-133.5 62t-64.5 79t-19.5 84.5q0 27 6 64h295q-2 -18 -2 -25q0 -44 50.5 -74t125.5 -30q112 0 194.5 62.5t104.5 162.5l33 150q-98 -91 -171.5 -125.5t-168.5 -34.5q-155 0 -256.5 110t-101.5 279q0 109 27 220t80 211.5t125.5 179t171 125
t208.5 46.5q179 0 260 -188l37 170h272l-243 -1143q-41 -194 -203 -301.5t-416 -107.5zM776 895q-82 0 -156.5 -67.5t-119.5 -179.5t-45 -236q0 -106 46.5 -168t125.5 -62q89 0 167.5 63t124.5 170t46 230q0 114 -51.5 182t-137.5 68z" />
    <glyph glyph-name="uni0262" unicode="&#x262;" horiz-adv-x="1138" 
d="M103 352q0 53 8.5 115.5t30.5 138.5t55.5 147t87 139.5t120.5 119t161.5 81.5t204.5 31q186 0 288.5 -92.5t102.5 -259.5q0 -45 -5 -80h-275q-2 109 -38.5 155t-123.5 46q-62 0 -114 -28t-86 -74t-59.5 -99.5t-39 -111t-20 -102t-6.5 -77.5q0 -103 45.5 -160t129.5 -57
q70 0 121 32.5t94 105.5h-180l46 215h475l-120 -562h-184l3 60q-138 -82 -307 -82q-201 0 -308 103.5t-107 295.5z" />
    <glyph glyph-name="uni0263" unicode="&#x263;" horiz-adv-x="1138" 
d="M533 -180q18 0 35.5 16t17.5 51q0 38 -22 88q-26 -32 -46 -68t-20 -53q0 -16 12 -25t23 -9zM802 287q80 -239 80 -335t-60.5 -194.5t-153.5 -161.5t-182 -63q-125 0 -203.5 72t-78.5 191q0 48 10 87.5t46.5 104t73 118.5t124.5 179l-202 821h315l127 -500l340 500h315z
" />
    <glyph glyph-name="uni0264" unicode="&#x264;" horiz-adv-x="1323" 
d="M698 182q45 0 82 43t53.5 95t16.5 96q0 88 -64 243q-73 -86 -112.5 -157.5t-47.5 -109t-8 -81.5q0 -65 22.5 -97t57.5 -32zM627 1126q68 0 122.5 -33t108.5 -92q90 61 168 93t121 32q49 0 100 -24.5t95 -71t72 -124t28 -171.5q0 -68 -19 -155h-258q9 44 9 84
q0 55 -14.5 103.5t-31.5 72.5t-28 24q-5 0 -13 -4t-19.5 -12.5t-19.5 -14.5t-23 -18t-19 -16q58 -99 96.5 -211.5t38.5 -192.5q0 -38 -12.5 -84t-37.5 -96.5t-66 -97t-92 -84t-123 -60t-153 -22.5q-63 0 -120.5 15t-110 48t-84 93.5t-31.5 142.5q0 49 12 99.5t44 121
t100 160.5t168 192q-3 3 -14.5 19.5t-22.5 29.5t-16 13q-3 0 -16 -7.5t-35.5 -27.5t-46 -48t-48 -75.5t-41.5 -103.5h-258q32 119 87 213.5t111.5 146.5t118 86.5t103 45.5t70.5 11z" />
    <glyph glyph-name="uni0265" unicode="&#x265;" horiz-adv-x="1267" 
d="M958 -446h-286l123 577q-80 -92 -168.5 -135t-200.5 -43q-147 0 -225 69.5t-78 200.5q0 56 14 113l164 770h287l-152 -711q-8 -33 -8 -67q0 -131 150 -131q104 0 180 59.5t98 157.5l148 692h286z" />
    <glyph glyph-name="uni0266" unicode="&#x266;" horiz-adv-x="1251" 
d="M961 752q0 49 -33.5 89t-110.5 40q-97 0 -171.5 -61t-96.5 -156l-139 -664h-287l262 1239q29 135 100.5 194.5t204.5 59.5q76 0 168 -10l-47 -230q-30 9 -51 9q-46 0 -69 -19.5t-32 -66.5l-49 -230q153 178 361 178q43 0 82.5 -7.5t78.5 -26.5t67.5 -48t46.5 -76.5
t18 -107.5q0 -52 -15 -117l-155 -741h-287l143 676q11 60 11 76z" />
    <glyph glyph-name="uni0267" unicode="&#x267;" horiz-adv-x="1251" 
d="M946 752q0 49 -33 89t-110 40q-97 0 -171.5 -61t-94.5 -156l-142 -664h-286l262 1239q29 135 101 194.5t206 59.5q73 0 168 -10l-49 -230q-30 9 -49 9q-46 0 -70 -19.5t-33 -66.5l-49 -230q153 178 360 178q56 0 104.5 -13t92.5 -41.5t70 -82.5t26 -129q0 -52 -12 -117
l-199 -934q-29 -135 -101 -194t-206 -59q-73 0 -168 10l49 229q27 -8 50 -8q46 0 69.5 19.5t32.5 66.5l172 805q10 55 10 76z" />
    <glyph glyph-name="uni0268" unicode="&#x268;" horiz-adv-x="569" 
d="M741 1493l-54 -256h-287l55 256h286zM712 700l-59 -276h-139l-90 -424h-287l90 424h-131l59 276h131l86 406h287l-86 -406h139z" />
    <glyph glyph-name="uni0269" unicode="&#x269;" horiz-adv-x="667" 
d="M336 1106h287l-179 -838q-4 -17 -4 -35q0 -27 16.5 -39t53.5 -12q22 0 53 8l-49 -229q-79 -8 -172 -8q-109 0 -159 38t-50 122q0 43 10 92z" />
    <glyph glyph-name="uni026A" unicode="&#x26a;" horiz-adv-x="569" 
d="M241 1106h557l-58 -277h-140l-117 -553h139l-59 -276h-557l59 276h131l118 553h-132z" />
    <glyph glyph-name="uni026B" unicode="&#x26b;" horiz-adv-x="968" 
d="M838 709q36 0 59.5 9t38.5 29.5t22.5 40.5t16.5 56h160q-82 -299 -324 -299q-36 0 -66 6l-116 -551h-287l154 723q-30 10 -58 10q-65 0 -91 -30.5t-46 -102.5h-160q79 297 324 297q38 0 65 -6l129 602h287l-164 -774q20 -10 56 -10z" />
    <glyph glyph-name="uni026C" unicode="&#x26c;" horiz-adv-x="1079" 
d="M551 891q-100 0 -100 -68q0 -43 75 -43h90l23 111h-88zM694 1143l74 350h287l-152 -713h271l-56 -260h-270l-111 -520h-286l110 520h-51q-51 0 -91.5 3.5t-89 16t-81 34.5t-54.5 61.5t-22 93.5q0 65 28.5 133t83 131t148 104.5t209.5 45.5h53z" />
    <glyph glyph-name="uni026D" unicode="&#x26d;" horiz-adv-x="610" 
d="M96 -193l359 1686h286l-344 -1622q-5 -22 -5 -34q0 -28 16.5 -40t53.5 -12q24 0 53 8l-49 -229q-98 -10 -172 -10q-109 0 -159 38t-50 122q0 38 11 93z" />
    </font>
</defs>
</svg>
